<svg width="17" height="17" viewBox="0 0 17 17" fill="none" xmlns="http://www.w3.org/2000/svg">
<path d="M8.50621 12.5523V10.4941" stroke="#0288D1" stroke-width="1.5" stroke-linecap="round" stroke-linejoin="round"/>
<path fill-rule="evenodd" clip-rule="evenodd" d="M13.532 3.34717C14.903 3.34717 16.0063 4.45858 16.0063 5.82959V8.62029C14.0107 9.78849 11.3741 10.4943 8.50229 10.4943C5.63047 10.4943 3.00202 9.78849 1.00635 8.62029V5.82148C1.00635 4.45047 2.11776 3.34717 3.48877 3.34717H13.532Z" stroke="#0288D1" stroke-width="1.5" stroke-linecap="round" stroke-linejoin="round"/>
<path d="M11.3457 3.34368V3.04677C11.3457 2.05704 10.5426 1.25391 9.55288 1.25391H7.45985C6.47013 1.25391 5.66699 2.05704 5.66699 3.04677V3.34368" stroke="#0288D1" stroke-width="1.5" stroke-linecap="round" stroke-linejoin="round"/>
<path d="M1.02637 11.584L1.17969 13.6194C1.28353 14.9912 2.42658 16.0515 3.80165 16.0515H13.2113C14.5864 16.0515 15.7295 14.9912 15.8333 13.6194L15.9866 11.584" stroke="#0288D1" stroke-width="1.5" stroke-linecap="round" stroke-linejoin="round"/>
</svg>
