<svg width="18" height="17" viewBox="0 0 18 17" fill="none" xmlns="http://www.w3.org/2000/svg">
<path d="M8.91734 12.5523V10.4941" stroke="#C2CFE0" stroke-width="1.5" stroke-linecap="round" stroke-linejoin="round"/>
<path fill-rule="evenodd" clip-rule="evenodd" d="M13.9432 3.34717C15.3142 3.34717 16.4175 4.45858 16.4175 5.82959V8.62029C14.4218 9.78849 11.7852 10.4943 8.91342 10.4943C6.0416 10.4943 3.41315 9.78849 1.41748 8.62029V5.82148C1.41748 4.45047 2.52889 3.34717 3.8999 3.34717H13.9432Z" stroke="#C2CFE0" stroke-width="1.5" stroke-linecap="round" stroke-linejoin="round"/>
<path d="M11.7569 3.34368V3.04677C11.7569 2.05704 10.9537 1.25391 9.96401 1.25391H7.87099C6.88126 1.25391 6.07812 2.05704 6.07812 3.04677V3.34368" stroke="#C2CFE0" stroke-width="1.5" stroke-linecap="round" stroke-linejoin="round"/>
<path d="M1.4375 11.584L1.59083 13.6194C1.69467 14.9912 2.83772 16.0515 4.21278 16.0515H13.6225C14.9975 16.0515 16.1406 14.9912 16.2444 13.6194L16.3977 11.584" stroke="#C2CFE0" stroke-width="1.5" stroke-linecap="round" stroke-linejoin="round"/>
</svg>
