<svg width="54" height="54" viewBox="0 0 54 54" fill="none" xmlns="http://www.w3.org/2000/svg">
<rect width="54" height="54" rx="27" fill="#A2DEFF"/>
<rect x="2.04004" y="2" width="50" height="50" rx="25" fill="#0288D1"/>
<path d="M37.9158 34.8936C37.3237 33.491 36.4644 32.217 35.3858 31.1425C34.3105 30.0649 33.0367 29.2058 31.6348 28.6125C31.6222 28.6062 31.6097 28.6031 31.5971 28.5968C33.5527 27.1843 34.8239 24.8834 34.8239 22.2875C34.8239 17.9872 31.3397 14.5029 27.0394 14.5029C22.739 14.5029 19.2548 17.9872 19.2548 22.2875C19.2548 24.8834 20.526 27.1843 22.4816 28.6C22.469 28.6062 22.4565 28.6094 22.4439 28.6157C21.0377 29.2089 19.7758 30.0596 18.6929 31.1457C17.6153 32.221 16.7562 33.4947 16.1629 34.8967C15.5801 36.2692 15.2657 37.7407 15.2369 39.2316C15.2361 39.2651 15.2419 39.2984 15.2542 39.3296C15.2664 39.3608 15.2848 39.3892 15.3082 39.4132C15.3316 39.4372 15.3596 39.4563 15.3904 39.4693C15.4213 39.4823 15.4545 39.489 15.488 39.489H17.3714C17.5095 39.489 17.6194 39.3791 17.6225 39.2441C17.6853 36.8209 18.6584 34.5514 20.3785 32.8313C22.1583 31.0515 24.5219 30.0721 27.0394 30.0721C29.5568 30.0721 31.9204 31.0515 33.7002 32.8313C35.4203 34.5514 36.3934 36.8209 36.4562 39.2441C36.4593 39.3823 36.5692 39.489 36.7073 39.489H38.5907C38.6242 39.489 38.6574 39.4823 38.6883 39.4693C38.7191 39.4563 38.7471 39.4372 38.7705 39.4132C38.7939 39.3892 38.8123 39.3608 38.8245 39.3296C38.8368 39.2984 38.8426 39.2651 38.8418 39.2316C38.8104 37.7312 38.4997 36.2716 37.9158 34.8936ZM27.0394 27.6865C25.5986 27.6865 24.2425 27.1247 23.2224 26.1045C22.2022 25.0843 21.6404 23.7283 21.6404 22.2875C21.6404 20.8468 22.2022 19.4907 23.2224 18.4706C24.2425 17.4504 25.5986 16.8885 27.0394 16.8885C28.4801 16.8885 29.8362 17.4504 30.8563 18.4706C31.8765 19.4907 32.4383 20.8468 32.4383 22.2875C32.4383 23.7283 31.8765 25.0843 30.8563 26.1045C29.8362 27.1247 28.4801 27.6865 27.0394 27.6865Z" fill="white"/>
</svg>
