<svg width="16" height="17" viewBox="0 0 16 17" fill="none" xmlns="http://www.w3.org/2000/svg">
<circle cx="13" cy="3" r="3" fill="#3751FF"/>
<path fill-rule="evenodd" clip-rule="evenodd" d="M8.81781 1.42513C8.63695 1.16802 8.33807 1 8.00002 1C7.44815 1 7.00065 1.44781 7.00065 2V2.65125C4.70502 3.12812 3.00252 5.07188 3.00252 7.5C3.00252 10.4983 2.00881 11.543 1.38728 12.1964C1.34611 12.2397 1.30658 12.2813 1.26908 12.3216C1.08158 12.5231 0.998459 12.7641 1.00002 13C1.00346 13.5125 1.40565 14 2.00315 14H13.9969C14.5944 14 14.9969 13.5125 15 13C15.0016 12.7641 14.9185 12.5228 14.731 12.3216C14.6935 12.2813 14.6539 12.2397 14.6128 12.1964C13.9912 11.543 12.9975 10.4983 12.9975 7.5C12.9975 7.48947 12.9975 7.47895 12.9974 7.46844C10.5311 7.46687 8.53223 5.46703 8.53223 3.00034C8.53223 2.44588 8.63322 1.91502 8.81781 1.42513ZM9.99908 15C9.99908 16.1047 9.10377 17 8.00002 17C6.89627 17 6.00096 16.1047 6.00096 15H9.99908Z" fill="#C5C7CD"/>
</svg>
