<svg width="16" height="18" viewBox="0 0 16 18" fill="none" xmlns="http://www.w3.org/2000/svg">
<path d="M13.9695 6.92383C13.9695 6.92383 13.5092 12.6328 13.2422 15.0376C13.115 16.1861 12.4056 16.8592 11.2434 16.8804C9.0319 16.9202 6.81783 16.9227 4.60715 16.8761C3.48909 16.8532 2.79147 16.1717 2.66687 15.0435C2.39816 12.6175 1.94043 6.92383 1.94043 6.92383" stroke="#FF0000" stroke-width="1.5" stroke-linecap="round" stroke-linejoin="round"/>
<path d="M15.1421 4.1875H0.767578" stroke="#FF0000" stroke-width="1.5" stroke-linecap="round" stroke-linejoin="round"/>
<path d="M12.3722 4.18793C11.7068 4.18793 11.1338 3.71748 11.0032 3.06564L10.7973 2.03489C10.6701 1.55936 10.2395 1.23047 9.74871 1.23047H6.1606C5.66981 1.23047 5.2392 1.55936 5.11205 2.03489L4.90607 3.06564C4.77553 3.71748 4.20252 4.18793 3.53711 4.18793" stroke="#FF0000" stroke-width="1.5" stroke-linecap="round" stroke-linejoin="round"/>
</svg>
