<svg width="21" height="21" viewBox="0 0 21 21" fill="none" xmlns="http://www.w3.org/2000/svg">
<path d="M3.48824 13.8751L3.84882 13.5286L3.8418 13.5215C2.12131 11.801 2.12131 9.01158 3.8418 7.29109C5.50056 5.63233 8.15335 5.57281 9.88307 7.11259C9.90196 7.12941 9.92972 7.15706 9.96779 7.19498C9.97473 7.20189 9.98202 7.20915 9.98966 7.21675C10.01 7.23693 10.0355 7.26217 10.0582 7.28313C10.0686 7.2927 10.087 7.30941 10.1085 7.32616C10.1184 7.33384 10.1397 7.35008 10.1681 7.36679C10.1823 7.37515 10.2073 7.38907 10.2402 7.40209C10.2671 7.4127 10.335 7.43754 10.4258 7.43754C10.5166 7.43754 10.5846 7.4127 10.6114 7.40208C10.6443 7.38906 10.6694 7.37513 10.6835 7.36677C10.7119 7.35006 10.7332 7.33381 10.7431 7.32613C10.7646 7.30937 10.783 7.29267 10.7934 7.28309C10.8162 7.26214 10.8417 7.23689 10.8619 7.21672C10.8696 7.20915 10.8768 7.20192 10.8837 7.19503C10.9218 7.15707 10.9496 7.12941 10.9685 7.11259C12.6982 5.57279 15.351 5.63233 17.0098 7.29109C18.7225 9.00384 18.6435 11.8618 17.007 13.5243L17.007 13.5243L17.0014 13.5301L17.3633 13.8751L17.0013 13.5302L17.0012 13.5304L17.0004 13.5312L16.9971 13.5346L16.9841 13.5483L16.933 13.6017C16.8881 13.6486 16.822 13.7175 16.7377 13.8053C16.5689 13.9808 16.3268 14.2317 16.0338 14.5329C15.4476 15.1353 14.6586 15.9379 13.8462 16.7399C13.0325 17.5431 12.2005 18.3405 11.5269 18.935C11.189 19.2333 10.8994 19.4729 10.6762 19.6354C10.5827 19.7035 10.5079 19.7529 10.4512 19.786C10.3939 19.7527 10.3183 19.7031 10.2236 19.6346C9.99899 19.472 9.70729 19.2322 9.36694 18.9339C8.68843 18.3393 7.85001 17.5418 7.02984 16.7385C6.21094 15.9365 5.41552 15.1339 4.82446 14.5314C4.52904 14.2303 4.2849 13.9793 4.11471 13.8038C4.02961 13.716 3.96301 13.6471 3.91774 13.6002L3.86619 13.5467L3.85307 13.5331L3.8498 13.5297L3.84899 13.5289L3.8488 13.5287L3.48824 13.8751ZM10.3701 19.8275C10.3701 19.8274 10.3709 19.8271 10.3725 19.8266C10.3708 19.8272 10.3701 19.8275 10.3701 19.8275ZM10.5303 19.8265C10.5317 19.827 10.5324 19.8272 10.5325 19.8273C10.5325 19.8273 10.5318 19.8271 10.5303 19.8265Z" stroke="#199BE2"/>
</svg>
