<svg width="20" height="20" viewBox="0 0 20 20" fill="none" xmlns="http://www.w3.org/2000/svg">
<path d="M7.7557 16.5786V14.2785C7.75568 13.6935 8.25772 13.2181 8.87975 13.2142H11.1582C11.7832 13.2142 12.2899 13.6907 12.2899 14.2785V14.2785V16.5857C12.2897 17.0824 12.7113 17.4884 13.2392 17.5H14.7582C16.2725 17.5 17.5 16.3455 17.5 14.9214V14.9214V8.37838C17.4919 7.81812 17.2122 7.29201 16.7405 6.94977L11.5456 3.01398C10.6355 2.32867 9.34174 2.32867 8.43165 3.01398L3.25949 6.95692C2.78599 7.29777 2.50583 7.82475 2.5 8.38552V14.9214C2.5 16.3455 3.72753 17.5 5.24177 17.5H6.76076C7.30186 17.5 7.74051 17.0875 7.74051 16.5786V16.5786" stroke="#0288D1" stroke-width="1.5" stroke-linecap="round" stroke-linejoin="round"/>
</svg>
