<svg width="23" height="18" viewBox="0 0 23 18" fill="none" xmlns="http://www.w3.org/2000/svg">
<path d="M11.9427 15.4511V13.1511C11.9427 12.566 12.4447 12.0907 13.0668 12.0868H15.3452C15.9702 12.0868 16.4769 12.5633 16.4769 13.1511V13.1511V15.4583C16.4767 15.955 16.8983 16.3609 17.4263 16.3726H18.9452C20.4595 16.3726 21.687 15.2181 21.687 13.7939V13.7939V7.25094C21.6789 6.69068 21.3992 6.16457 20.9275 5.82233L15.7326 1.88653C14.8225 1.20123 13.5288 1.20123 12.6187 1.88653L7.44651 5.82948C6.97301 6.17033 6.69284 6.69731 6.68701 7.25808V13.7939C6.68701 15.2181 7.91454 16.3726 9.42878 16.3726H10.9478C11.4889 16.3726 11.9275 15.96 11.9275 15.4511V15.4511" stroke="#0288D1" stroke-width="1.5" stroke-linecap="round" stroke-linejoin="round"/>
<path d="M3.60449 12.6895L0.999756 10.0847L3.60449 7.47998" stroke="#0288D1" stroke-linecap="round" stroke-linejoin="round"/>
</svg>
