<svg width="30" height="30" viewBox="0 0 30 30" fill="none" xmlns="http://www.w3.org/2000/svg">
<path d="M11.25 22.2656H7.5V9.14056H11.25V22.2656ZM9.49123 8.33621C8.51998 8.33621 7.73438 7.5487 7.73438 6.57745C7.73438 5.60619 8.52189 4.81868 9.49123 4.81868C10.4625 4.82053 11.25 5.60804 11.25 6.57745C11.25 7.5487 10.4625 8.33621 9.49123 8.33621ZM24.375 22.2656H20.625V14.1506C20.625 13.1999 20.3531 12.5344 19.185 12.5344C17.2481 12.5344 16.875 14.1506 16.875 14.1506V22.2656H13.125V9.14056H16.875V10.3949C17.4112 9.98433 18.7499 9.14241 20.625 9.14241C21.84 9.14241 24.375 9.86992 24.375 14.2649V22.2656Z" fill="#0288D1"/>
</svg>
