<svg width="17" height="18" viewBox="0 0 17 18" fill="none" xmlns="http://www.w3.org/2000/svg">
<path fill-rule="evenodd" clip-rule="evenodd" d="M12.3824 10.3734C12.8925 10.3734 13.3206 10.7943 13.2426 11.298C12.7851 14.2613 10.2483 16.4615 7.18874 16.4615C3.80372 16.4615 1.06006 13.7178 1.06006 10.3336C1.06006 7.54535 3.17828 4.9481 5.56307 4.36085C6.07552 4.23433 6.6007 4.5948 6.6007 5.12236C6.6007 8.69676 6.72085 9.62139 7.3996 10.1243C8.07836 10.6272 8.87647 10.3734 12.3824 10.3734Z" stroke="#0288D1" stroke-width="1.5" stroke-linecap="round" stroke-linejoin="round"/>
<path fill-rule="evenodd" clip-rule="evenodd" d="M15.7195 7.39676C15.7601 5.10029 12.9393 1.39858 9.50174 1.46224C9.23438 1.46701 9.02033 1.68981 9.00839 1.95638C8.92166 3.84464 9.03863 6.2915 9.10388 7.40074C9.12377 7.74608 9.39511 8.01742 9.73966 8.03732C10.8799 8.10257 13.4159 8.19169 15.2771 7.91C15.5302 7.87181 15.7156 7.65219 15.7195 7.39676Z" stroke="#0288D1" stroke-width="1.5" stroke-linecap="round" stroke-linejoin="round"/>
</svg>
