<svg width="17" height="18" viewBox="0 0 17 18" fill="none" xmlns="http://www.w3.org/2000/svg">
<path fill-rule="evenodd" clip-rule="evenodd" d="M12.3224 10.3734C12.8324 10.3734 13.2605 10.7943 13.1826 11.298C12.725 14.2613 10.1882 16.4615 7.12868 16.4615C3.74366 16.4615 1 13.7178 1 10.3336C1 7.54535 3.11822 4.9481 5.50301 4.36085C6.01546 4.23433 6.54064 4.5948 6.54064 5.12236C6.54064 8.69676 6.66079 9.62139 7.33955 10.1243C8.0183 10.6272 8.81641 10.3734 12.3224 10.3734Z" stroke="#C2CFE0" stroke-width="1.5" stroke-linecap="round" stroke-linejoin="round"/>
<path fill-rule="evenodd" clip-rule="evenodd" d="M15.6595 7.39676C15.7001 5.10029 12.8792 1.39858 9.44168 1.46224C9.17432 1.46701 8.96027 1.68981 8.94833 1.95638C8.8616 3.84464 8.97857 6.2915 9.04382 7.40074C9.06371 7.74608 9.33505 8.01742 9.6796 8.03732C10.8199 8.10257 13.3559 8.19169 15.2171 7.91C15.4701 7.87181 15.6555 7.65219 15.6595 7.39676Z" stroke="#C2CFE0" stroke-width="1.5" stroke-linecap="round" stroke-linejoin="round"/>
</svg>
