<svg width="38" height="37" viewBox="0 0 38 37" fill="none" xmlns="http://www.w3.org/2000/svg">
<path d="M7.70712 25.8406L11.0088 29.0525L3.66035 36.2012C3.47827 36.3783 3.18228 36.3783 3.0002 36.2012L0.359615 33.6324C0.177539 33.4552 0.177539 33.1673 0.359615 32.9902L7.70712 25.8406Z" fill="#199BE2"/>
<path d="M11.7989 21.8594L15.1006 25.0713L11.0081 29.0516L7.70732 25.8407L11.7989 21.8594Z" fill="url(#paint0_radial)"/>
<path d="M22.6311 29.067C14.3802 29.067 7.69149 22.5602 7.69149 14.5335C7.69149 6.50688 14.3802 0 22.6311 0C30.8821 0 37.5708 6.50688 37.5708 14.5335C37.5708 22.5602 30.8821 29.067 22.6311 29.067Z" fill="url(#paint1_linear)"/>
<defs>
<radialGradient id="paint0_radial" cx="0" cy="0" r="1" gradientUnits="userSpaceOnUse" gradientTransform="translate(22.6087 14.6208) rotate(180) scale(18.3048 17.8072)">
<stop offset="0.693" stop-color="#006185"/>
<stop offset="0.921" stop-color="#35C1F1"/>
</radialGradient>
<linearGradient id="paint1_linear" x1="32.9853" y1="4.46088" x2="12.6206" y2="25.3946" gradientUnits="userSpaceOnUse">
<stop stop-color="#A3FFFF"/>
<stop offset="0.223" stop-color="#9DFBFF"/>
<stop offset="0.53" stop-color="#8BF1FF"/>
<stop offset="0.885" stop-color="#6EE0FF"/>
<stop offset="1" stop-color="#63DAFF"/>
</linearGradient>
</defs>
</svg>
