<svg width="16" height="18" viewBox="0 0 16 18" fill="none" xmlns="http://www.w3.org/2000/svg">
<path fill-rule="evenodd" clip-rule="evenodd" d="M14.7382 5.91703L14.2525 5.07418C13.8416 4.36099 12.931 4.11496 12.2168 4.52418V4.52418C11.8769 4.72444 11.4712 4.78125 11.0893 4.6821C10.7074 4.58294 10.3807 4.33596 10.1811 3.99561C10.0527 3.77927 9.9837 3.53287 9.98109 3.28132V3.28132C9.99267 2.87802 9.84052 2.4872 9.55929 2.1979C9.27806 1.90859 8.8917 1.74544 8.48823 1.74561H7.50966C7.11438 1.7456 6.7354 1.90311 6.45657 2.18328C6.17774 2.46346 6.02205 2.84319 6.02395 3.23846V3.23846C6.01223 4.05456 5.34727 4.70998 4.53109 4.70989C4.27954 4.70728 4.03314 4.63829 3.8168 4.50989V4.50989C3.10264 4.10067 2.192 4.34671 1.78109 5.05989L1.25966 5.91703C0.849242 6.62933 1.09192 7.53939 1.80252 7.95275V7.95275C2.26441 8.21942 2.54895 8.71226 2.54895 9.24561C2.54895 9.77896 2.26441 10.2718 1.80252 10.5385V10.5385C1.09283 10.949 0.849879 11.8569 1.25966 12.567V12.567L1.75252 13.417C1.94505 13.7644 2.26808 14.0208 2.65014 14.1294C3.03219 14.238 3.44177 14.1898 3.78823 13.9956V13.9956C4.12883 13.7969 4.5347 13.7424 4.91563 13.8444C5.29656 13.9463 5.62099 14.1962 5.8168 14.5385C5.9452 14.7548 6.01419 15.0012 6.0168 15.2527V15.2527C6.0168 16.0772 6.68518 16.7456 7.50966 16.7456H8.48823C9.30993 16.7456 9.97716 16.0816 9.98109 15.2599V15.2599C9.97918 14.8634 10.1358 14.4826 10.4162 14.2022C10.6966 13.9218 11.0774 13.7651 11.4739 13.767C11.7249 13.7738 11.9703 13.8425 12.1882 13.967V13.967C12.9005 14.3775 13.8106 14.1348 14.2239 13.4242V13.4242L14.7382 12.567C14.9373 12.2254 14.9919 11.8184 14.89 11.4363C14.7882 11.0542 14.5381 10.7285 14.1954 10.5313V10.5313C13.8526 10.3341 13.6026 10.0084 13.5007 9.62633C13.3988 9.24424 13.4535 8.83729 13.6525 8.49561C13.782 8.26959 13.9694 8.0822 14.1954 7.95275V7.95275C14.9017 7.53961 15.1438 6.63487 14.7382 5.92418V5.92418V5.91703Z" stroke="#0288D1" stroke-width="1.5" stroke-linecap="round" stroke-linejoin="round"/>
<circle cx="8.00294" cy="9.24562" r="2.05714" stroke="#0288D1" stroke-width="1.5" stroke-linecap="round" stroke-linejoin="round"/>
</svg>
