<svg width="16" height="18" viewBox="0 0 16 18" fill="none" xmlns="http://www.w3.org/2000/svg">
<path fill-rule="evenodd" clip-rule="evenodd" d="M14.6782 5.91703L14.1925 5.07418C13.7815 4.36099 12.8709 4.11496 12.1567 4.52418V4.52418C11.8168 4.72444 11.4111 4.78125 11.0293 4.6821C10.6474 4.58294 10.3206 4.33596 10.121 3.99561C9.99263 3.77927 9.92364 3.53287 9.92103 3.28132V3.28132C9.93261 2.87802 9.78046 2.4872 9.49923 2.1979C9.218 1.90859 8.83164 1.74544 8.42817 1.74561H7.4496C7.05432 1.7456 6.67534 1.90311 6.39651 2.18328C6.11768 2.46346 5.96199 2.84319 5.96389 3.23846V3.23846C5.95217 4.05456 5.28722 4.70998 4.47103 4.70989C4.21948 4.70728 3.97308 4.63829 3.75674 4.50989V4.50989C3.04258 4.10067 2.13195 4.34671 1.72103 5.05989L1.1996 5.91703C0.789183 6.62933 1.03187 7.53939 1.74246 7.95275V7.95275C2.20435 8.21942 2.4889 8.71226 2.4889 9.24561C2.4889 9.77896 2.20435 10.2718 1.74246 10.5385V10.5385C1.03277 10.949 0.789821 11.8569 1.1996 12.567V12.567L1.69246 13.417C1.88499 13.7644 2.20802 14.0208 2.59008 14.1294C2.97213 14.238 3.38171 14.1898 3.72817 13.9956V13.9956C4.06877 13.7969 4.47464 13.7424 4.85557 13.8444C5.2365 13.9463 5.56093 14.1962 5.75674 14.5385C5.88514 14.7548 5.95413 15.0012 5.95674 15.2527V15.2527C5.95674 16.0772 6.62512 16.7456 7.4496 16.7456H8.42817C9.24987 16.7456 9.9171 16.0816 9.92103 15.2599V15.2599C9.91912 14.8634 10.0758 14.4826 10.3562 14.2022C10.6365 13.9218 11.0174 13.7651 11.4139 13.767C11.6648 13.7738 11.9102 13.8425 12.1282 13.967V13.967C12.8405 14.3775 13.7505 14.1348 14.1639 13.4242V13.4242L14.6782 12.567C14.8772 12.2254 14.9319 11.8184 14.83 11.4363C14.7281 11.0542 14.4781 10.7285 14.1353 10.5313V10.5313C13.7925 10.3341 13.5425 10.0084 13.4406 9.62633C13.3388 9.24424 13.3934 8.83729 13.5925 8.49561C13.7219 8.26959 13.9093 8.0822 14.1353 7.95275V7.95275C14.8416 7.53961 15.0838 6.63487 14.6782 5.92418V5.92418V5.91703Z" stroke="#C2CFE0" stroke-width="1.5" stroke-linecap="round" stroke-linejoin="round"/>
<circle cx="7.94289" cy="9.24562" r="2.05714" stroke="#C2CFE0" stroke-width="1.5" stroke-linecap="round" stroke-linejoin="round"/>
</svg>
