<svg width="456" height="416" viewBox="0 0 456 416" fill="none" xmlns="http://www.w3.org/2000/svg">
<g clip-path="url(#clip0)">
<path d="M442.391 416C449.729 416 455.715 410.112 455.831 402.766C456.391 366.151 459.336 312.127 390.458 297.191C334.713 285.099 367.769 185.919 217.638 192.324C109.875 196.922 138.497 287.868 54.7103 295.437C-1.04522 300.478 -1.53087 371.077 0.612351 403.421C1.07689 410.493 6.947 415.989 14.0313 415.989H442.391V416Z" fill="#B5DFEA"/>
<path opacity="0.55" d="M390.447 297.181C334.702 285.089 367.758 185.909 217.627 192.314C191.993 193.413 174.087 199.396 160.541 207.968C165.102 207.366 169.948 206.943 175.111 206.732C325.231 200.326 292.186 299.506 347.931 311.599C416.081 326.376 413.927 379.406 413.325 415.99H442.38C449.718 415.99 455.704 410.102 455.82 402.756C456.39 366.141 459.336 312.127 390.447 297.181Z" fill="#90CEDD"/>
<path d="M154.111 0H151.746V173.14H154.111V0Z" fill="#79C9E8"/>
<path d="M324.059 0H321.694V199.734H324.059V0Z" fill="#79C9E8"/>
<path d="M323.838 188.096L147.576 167.495C140.048 166.618 133.228 172.019 132.341 179.556L119.197 292.403C118.321 299.939 123.716 306.768 131.243 307.656L307.505 328.257C315.033 329.134 321.853 323.733 322.74 316.196L335.895 203.36C336.76 195.802 331.376 188.974 323.838 188.096Z" fill="#D7F0F9"/>
<path d="M334.586 214.511L335.885 203.338C336.761 195.802 331.366 188.973 323.838 188.086L147.576 167.484C140.049 166.607 133.228 172.008 132.342 179.545L131.043 190.718L334.586 214.511Z" fill="#0582C1"/>
<path d="M159.569 259.054L181.909 219.637C183.345 217.111 186.143 215.695 189.025 216.022C192.984 216.487 195.824 220.071 195.36 224.034L190.714 263.905L190.915 263.926C193.66 264.243 195.624 266.738 195.307 269.476C194.99 272.224 192.499 274.19 189.764 273.873L189.564 273.852L188.719 281.113C188.37 284.084 185.689 286.208 182.733 285.859C179.766 285.511 177.644 282.826 177.992 279.866L178.837 272.604L162.747 270.723C160.002 270.406 158.028 267.911 158.355 265.163L158.777 261.506C158.862 260.639 159.136 259.804 159.569 259.054ZM180.051 262.003L182.933 237.279C182.954 237.11 182.722 237.036 182.638 237.184L169.44 260.502C169.208 260.914 169.472 261.432 169.937 261.485L179.323 262.584C179.681 262.626 180.009 262.362 180.051 262.003Z" fill="#79C9E8"/>
<path d="M258.168 270.575L280.508 231.159C281.944 228.633 284.741 227.216 287.624 227.544C291.583 228.009 294.423 231.592 293.958 235.556L289.313 275.427L289.514 275.448C292.259 275.765 294.222 278.26 293.906 280.997C293.589 283.746 291.097 285.712 288.363 285.395L288.162 285.374L287.318 292.635C286.969 295.605 284.287 297.73 281.331 297.381C278.365 297.032 276.242 294.348 276.591 291.388L277.435 284.126L261.345 282.245C258.6 281.928 256.626 279.433 256.953 276.685L257.376 273.028C257.471 272.161 257.745 271.326 258.168 270.575ZM278.66 273.524L281.542 248.801C281.564 248.632 281.331 248.558 281.247 248.706L268.05 272.023C267.817 272.436 268.081 272.954 268.546 273.006L277.932 274.106C278.291 274.148 278.618 273.884 278.66 273.524Z" fill="#79C9E8"/>
<path d="M213.847 235.863C215.145 224.722 221.744 219.045 232.481 220.293C243.208 221.551 248.328 228.601 247.03 239.731L242.807 275.934C241.508 287.075 234.909 292.751 224.172 291.504C213.446 290.246 208.325 283.196 209.624 272.065L213.847 235.863ZM220.466 274.042C219.886 279.01 221.85 281.156 225.334 281.568C228.807 281.97 231.214 280.342 231.795 275.363L236.176 237.765C236.757 232.797 234.793 230.651 231.309 230.239C227.836 229.838 225.429 231.465 224.848 236.444L220.466 274.042Z" fill="#79C9E8"/>
<path d="M151.831 183.086C151.599 185.115 149.762 186.564 147.734 186.331C145.707 186.098 144.261 184.259 144.493 182.23C144.726 180.2 146.563 178.752 148.59 178.985C150.617 179.228 152.063 181.067 151.831 183.086Z" fill="white"/>
<path d="M169.505 185.158C169.272 187.187 167.435 188.635 165.408 188.403C163.381 188.17 161.935 186.331 162.167 184.302C162.399 182.272 164.236 180.824 166.263 181.056C168.291 181.289 169.748 183.128 169.505 185.158Z" fill="#79C9E8"/>
<path d="M187.833 187.293C187.601 189.323 185.763 190.771 183.736 190.538C181.709 190.306 180.263 188.467 180.495 186.437C180.727 184.408 182.564 182.959 184.592 183.192C186.619 183.435 188.065 185.274 187.833 187.293Z" fill="#FFBF4D"/>
<path d="M116.927 315.827C116.927 315.827 114.541 326.397 114.942 337.2C115.301 346.872 114.15 410.462 114.15 410.462H121.91C121.91 410.462 132.954 360.655 133.366 356.723C133.777 352.791 139.331 313.459 139.331 313.459L116.927 315.827Z" fill="#00668E"/>
<path d="M122.09 312.931C122.09 312.931 123.874 326.513 126.915 336.175C129.955 345.825 144.873 410.472 144.873 410.472H152.633C152.633 410.472 151.208 360.666 150.67 356.734C150.131 352.801 146.204 313.47 146.204 313.47L122.09 312.931Z" fill="#0582C1"/>
<path d="M145.496 410.451V415.874H160.266C161.1 415.874 161.438 414.785 160.731 414.32C158.567 412.882 155.114 410.895 151.894 410.451H145.496V410.451Z" fill="#0582C1"/>
<path d="M114.541 410.451V415.874H129.311C130.145 415.874 130.483 414.785 129.776 414.32C127.612 412.882 124.159 410.895 120.939 410.451H114.541V410.451Z" fill="#0582C1"/>
<path d="M141.188 249.732C141.188 249.732 146.267 242.005 140.439 241.254C135.962 240.673 134.115 242.015 134.115 242.015C134.115 242.015 128.963 241.445 126.133 243.897C124.201 245.577 117.106 258.589 128.582 263.293C140.059 267.997 137.609 255.947 137.609 255.947L141.188 249.732Z" fill="#00668E"/>
<path d="M140.439 241.254C135.962 240.673 134.115 242.015 134.115 242.015C134.115 242.015 128.963 241.445 126.133 243.897C124.201 245.577 117.106 258.589 128.582 263.293C133.977 265.502 136.29 264.012 137.24 261.813C126.355 264.879 125.172 251.74 126.967 248.009C128.794 244.214 133.165 245.958 133.165 245.958C134.875 241.645 140.46 242.11 142.762 242.449C142.339 241.846 141.611 241.402 140.439 241.254Z" fill="#05556D"/>
<path d="M134.041 253.495C134.041 253.495 132.531 251.983 131.412 253.495C130.282 255.006 131.032 258.389 132.921 258.579C132.921 258.579 132.362 263.473 128.593 263.283V267.236H137.43V264.223C137.43 264.223 142.888 261.961 142.698 257.448C142.508 252.924 141.188 249.721 141.188 249.721C141.188 249.721 138.179 253.114 134.041 253.495Z" fill="#F98D3D"/>
<path d="M135.392 265.492C136.269 265.862 136.11 266.411 136.153 267.236H137.419V264.223C137.419 264.223 135.276 264.9 132.141 263.114C132.151 263.124 133.978 264.9 135.392 265.492Z" fill="#ED701B"/>
<path d="M137.209 246.285C137.209 246.285 132.627 244.457 132.088 245.831C131.74 246.729 132.627 247.501 133.851 248.283L132.774 248.463C132.532 248.505 132.447 248.811 132.637 248.959C132.933 249.203 133.767 249.361 135.498 249.425L137.209 246.285Z" fill="#F98D3D"/>
<path d="M169.927 257.775C161.185 251.296 137.325 246.106 137.325 246.106L135.361 249.689C135.361 249.689 157.025 258.092 155.6 259.35C154.756 260.09 144.177 264.942 140.587 266.58C139.816 266.929 138.982 267.098 138.127 267.087L127.158 267.024C127.158 267.024 119.239 266.083 113.021 273.239C107.457 279.655 97.9971 294.506 97.9971 294.506L113.939 317.972L115.702 320.562L115.713 320.53L115.702 320.752C115.702 320.752 116.273 320.816 117.276 320.911C122.396 321.386 138.824 322.687 147.513 320.837L147.756 320.784L147.344 282.287C161.217 271.294 167.847 262.796 170.212 260.132C170.803 259.424 170.687 258.346 169.927 257.775ZM116.452 310.277L114.9 306.874L109.948 296.039L118.162 286.822L116.684 307.043L116.452 310.277Z" fill="#FFBF4D"/>
<path d="M114.889 306.874L116.452 310.277L115.692 320.541L115.681 320.573L113.918 317.983L114.889 306.874Z" fill="#EFAA3A"/>
<path opacity="0.29" d="M143.607 280.913C142.128 281.991 142.509 291.504 142.139 297.455C141.527 307.423 140.935 316.048 141.368 321.608C143.617 321.46 145.708 321.217 147.481 320.837L147.724 320.784L147.312 282.287C161.185 271.294 167.815 262.796 170.18 260.132C170.803 259.424 170.687 258.346 169.927 257.775C169.927 257.775 158.958 269.751 143.607 280.913Z" fill="#F98D2B"/>
<path d="M150.659 356.733C150.269 353.9 148.115 332.633 146.953 321.006L141.379 321.619C141.379 321.619 149.508 388.56 150.047 410.472H152.623C152.623 410.461 151.198 360.665 150.659 356.733Z" fill="#00668E"/>
<path d="M114.911 254.594L113.232 251.581C114.076 249.996 114.552 248.178 114.552 246.254C114.552 239.965 109.452 234.859 103.17 234.859C96.8885 234.859 91.7891 239.965 91.7891 246.254C91.7891 252.543 96.8885 257.648 103.17 257.648C106.338 257.648 109.199 256.348 111.258 254.266L114.911 254.594Z" fill="#0582C1"/>
<path d="M97.2479 245.218H97.6913V246.804C97.6913 247.29 97.8391 247.501 98.1769 247.501C98.4409 247.501 98.6309 247.364 98.8738 247.068V245.218H99.3066V247.819H98.9477L98.9054 247.417H98.8843C98.6415 247.702 98.3881 247.893 98.0291 247.893C97.4801 247.893 97.2373 247.544 97.2373 246.878V245.218H97.2479Z" fill="white"/>
<path d="M101.165 248.03V248.907H100.722V245.208H101.081L101.112 245.504H101.133C101.366 245.303 101.661 245.144 101.957 245.144C102.622 245.144 102.981 245.662 102.981 246.466C102.981 247.343 102.453 247.871 101.862 247.871C101.619 247.871 101.376 247.755 101.144 247.575L101.165 248.03ZM101.799 247.512C102.221 247.512 102.538 247.121 102.538 246.476C102.538 245.905 102.348 245.514 101.851 245.514C101.63 245.514 101.408 245.641 101.155 245.863V247.227C101.397 247.438 101.63 247.512 101.799 247.512Z" fill="white"/>
<path d="M104.153 247.227C104.374 247.406 104.607 247.533 104.913 247.533C105.251 247.533 105.43 247.353 105.43 247.131C105.43 246.867 105.124 246.751 104.839 246.635C104.469 246.497 104.068 246.328 104.068 245.884C104.068 245.461 104.395 245.144 104.966 245.144C105.293 245.144 105.578 245.282 105.768 245.44L105.557 245.715C105.377 245.578 105.198 245.483 104.966 245.483C104.638 245.483 104.49 245.662 104.49 245.852C104.49 246.096 104.775 246.191 105.071 246.307C105.441 246.444 105.863 246.603 105.863 247.089C105.863 247.512 105.525 247.861 104.913 247.861C104.543 247.861 104.195 247.702 103.941 247.501L104.153 247.227Z" fill="white"/>
<path d="M107.225 247.206C107.394 247.206 107.542 247.343 107.542 247.544C107.542 247.734 107.394 247.872 107.225 247.872C107.045 247.872 106.908 247.734 106.908 247.544C106.908 247.343 107.045 247.206 107.225 247.206Z" fill="white"/>
<path d="M109.082 247.206C109.251 247.206 109.399 247.343 109.399 247.544C109.399 247.734 109.251 247.872 109.082 247.872C108.903 247.872 108.766 247.734 108.766 247.544C108.766 247.343 108.913 247.206 109.082 247.206Z" fill="white"/>
<path d="M71.2658 391.615C71.2658 391.615 68.8797 389.374 70.4845 380.896C72.0893 372.419 76.1646 364.27 74.1586 355.073C72.1632 345.867 56.4955 322.676 56.4533 321.133C56.4005 319.589 51.6178 348.118 59.7156 359.365C67.8134 370.601 68.7847 374.501 68.4257 380.41C68.0668 386.319 68.5102 391.086 69.3971 392.46L71.2658 391.615Z" fill="#79C9E8"/>
<path d="M69.7874 374.565C68.8477 378.349 68.2776 387.831 69.7768 390.103C69.9141 390.315 70.1147 390.199 70.3681 389.807C69.9141 388.243 69.6079 385.495 70.4736 380.907C72.0784 372.43 76.1537 364.28 74.1477 355.084C72.1523 345.878 56.4846 322.687 56.4424 321.144C56.4424 321.144 58.8073 340.476 66.7468 353.774C72.4479 363.287 70.727 370.781 69.7874 374.565Z" fill="#49B4D6"/>
<path d="M74.127 391.033C74.127 391.033 69.5238 379.533 77.326 369.576C85.1281 359.619 97.5969 346.829 97.8397 341.766C97.8397 341.766 101.049 365.813 90.8927 372.62C80.7467 379.427 73.6308 380.516 75.3833 390.991L74.127 391.033Z" fill="#79C9E8"/>
<path d="M85.0754 367.789C73.7575 376.034 72.8284 385.537 74.5915 389.944C74.7288 390.283 74.9822 390.494 75.3306 390.61C73.8103 380.505 80.8734 379.353 90.8927 372.63C101.039 365.823 97.8397 341.776 97.8397 341.776C97.8397 341.776 96.3933 359.534 85.0754 367.789Z" fill="#49B4D6"/>
<path d="M66.5564 391.287C66.5564 391.287 68.0345 385.199 67.2427 378.624C66.4614 372.049 59.5988 368.35 53.1903 361.405C49.8963 357.832 48.9144 338.943 50.9626 337.189C50.9626 337.189 39.6447 350.919 41.3973 360.972C43.1393 371.024 61.6048 377.556 63.3152 382.419C65.0255 387.281 64.8777 391.35 64.8777 391.35L66.5564 391.287Z" fill="#79C9E8"/>
<path d="M47.1404 342.59C43.403 352.727 47.2354 365.01 59.6619 372.641C68.8049 378.254 65.891 389.934 65.891 389.934L67.3902 385.326C67.5274 383.338 67.538 381.013 67.2529 378.624C66.4716 372.05 59.6091 368.35 53.2005 361.405C50.0227 357.959 48.9986 340.265 50.7617 337.443C50.2444 338.098 48.7769 340.001 47.1404 342.59Z" fill="#49B4D6"/>
<path d="M50.7617 337.443C50.8884 337.284 50.9623 337.189 50.9623 337.189C50.8884 337.252 50.8251 337.337 50.7617 337.443Z" fill="#49B4D6"/>
<path d="M76.4912 390.526C76.4912 390.526 79.1412 380.674 85.7081 379.342C92.2645 378.021 99.8027 368.307 100.204 366.404C100.204 366.415 99.0954 384.712 76.4912 390.526Z" fill="#79C9E8"/>
<path d="M85.3278 382.608C81.3053 384.617 79.6371 387.323 79.0459 389.786C99.169 383.306 100.204 366.415 100.204 366.415C100.119 366.795 99.7602 367.482 99.1795 368.339C97.2052 371.806 92.4226 379.057 85.3278 382.608Z" fill="#49B4D6"/>
<path d="M90.681 386.901H56.3789L60.4542 412.554C60.7604 414.499 62.4391 415.937 64.4028 415.937H82.6572C84.6209 415.937 86.2996 414.51 86.6058 412.554L90.681 386.901Z" fill="#FFBF4D"/>
<path d="M90.0159 391.15L90.681 386.901H56.3789L57.0546 391.15H90.0159Z" fill="#FF9F50"/>
<path d="M82.3715 386.901L78.2963 412.554C77.9901 414.499 76.3114 415.937 74.3477 415.937H82.6566C84.6204 415.937 86.299 414.51 86.6052 412.554L90.6805 386.901H82.3715Z" fill="#FF9F50"/>
<path d="M327.312 341.153H172.261V372.715H327.312V341.153Z" fill="#FFBF4D"/>
<path opacity="0.29" d="M327.312 341.153H172.261V348.816H327.312V341.153Z" fill="#F98D2B"/>
<path d="M185.743 341.153H199.891L196.1 348.816H181.942L185.743 341.153Z" fill="#F77E2D"/>
<path d="M217.627 341.153H231.775L227.984 348.816H213.837L217.627 341.153Z" fill="#F77E2D"/>
<path d="M249.512 341.153H263.659L259.869 348.816H245.722L249.512 341.153Z" fill="#F77E2D"/>
<path d="M281.397 341.153H295.533L291.743 348.816H277.596L281.397 341.153Z" fill="#F77E2D"/>
<path d="M327.311 341.153V341.364L323.616 348.816H309.479L313.28 341.153H327.311Z" fill="#F77E2D"/>
<path d="M202.488 372.715H191.561V415.873H202.488V372.715Z" fill="#79C9E8"/>
<path d="M202.488 372.715H200.007V415.873H202.488V372.715Z" fill="#49B4D6"/>
<path d="M308.857 372.715H297.93V415.873H308.857V372.715Z" fill="#79C9E8"/>
<path d="M308.857 372.715H305.626V415.873H308.857V372.715Z" fill="#49B4D6"/>
<path d="M202.488 372.683H191.561V378.117H202.488V372.683Z" fill="#49B4D6"/>
<path d="M308.857 372.683H297.93V378.117H308.857V372.683Z" fill="#49B4D6"/>
<path d="M202.488 336.216H191.561V341.121H202.488V336.216Z" fill="#79C9E8"/>
<path d="M202.488 336.216H200.007V341.121H202.488V336.216Z" fill="#49B4D6"/>
<path d="M308.857 336.216H297.93V341.121H308.857V336.216Z" fill="#79C9E8"/>
<path d="M308.857 336.216H305.626V341.121H308.857V336.216Z" fill="#49B4D6"/>
<path d="M202.488 340.508H191.561V341.121H202.488V340.508Z" fill="#49B4D6"/>
<path d="M308.857 340.508H297.93V341.121H308.857V340.508Z" fill="#49B4D6"/>
<path d="M199.89 341.153L184.254 372.715H172.261V368.36L185.743 341.153H199.89Z" fill="#0582C1"/>
<path d="M217.627 341.153L201.991 372.715H216.139L231.775 341.153H217.627Z" fill="#0582C1"/>
<path d="M263.659 341.153L248.023 372.715H233.876L249.512 341.153H263.659Z" fill="#0582C1"/>
<path d="M295.534 341.153L279.908 372.715H265.761L281.397 341.153H295.534Z" fill="#0582C1"/>
<path d="M313.281 341.153L297.645 372.715H311.781L327.312 341.364L313.281 341.153Z" fill="#0582C1"/>
<path d="M199.891 341.153L196.1 348.816H181.942L185.743 341.153H199.891Z" fill="#00668E"/>
<path d="M231.775 341.153L227.984 348.816H213.837L217.627 341.153H231.775Z" fill="#00668E"/>
<path d="M263.659 341.153L259.869 348.816H245.722L249.512 341.153H263.659Z" fill="#00668E"/>
<path d="M295.533 341.153L291.743 348.816H277.596L281.397 341.153H295.533Z" fill="#00668E"/>
<path d="M327.313 341.364L323.617 348.816H309.48L313.281 341.153L327.313 341.364Z" fill="#00668E"/>
<path opacity="0.55" d="M324.641 354.809H176.579V370.601H324.641V354.809Z" fill="url(#paint0_linear)"/>
<path d="M198.292 339.001C203.604 338.135 207.21 333.123 206.345 327.804C205.481 322.486 200.474 318.876 195.162 319.742C189.85 320.607 186.245 325.62 187.109 330.938C187.973 336.256 192.98 339.866 198.292 339.001Z" fill="#FFBF4D"/>
<path d="M201.157 329.367C201.157 326.925 199.183 324.948 196.744 324.948C194.305 324.948 192.331 326.925 192.331 329.367C192.331 331.809 194.305 333.785 196.744 333.785C199.183 333.796 201.157 331.809 201.157 329.367Z" fill="#0582C1"/>
<path d="M304.882 339.006C310.194 338.14 313.799 333.128 312.935 327.809C312.071 322.491 307.064 318.882 301.752 319.747C296.44 320.612 292.834 325.625 293.699 330.943C294.563 336.261 299.57 339.871 304.882 339.006Z" fill="#FFBF4D"/>
<path d="M307.748 329.367C307.748 326.925 305.774 324.948 303.335 324.948C300.896 324.948 298.922 326.925 298.922 329.367C298.922 331.809 300.896 333.785 303.335 333.785C305.774 333.796 307.748 331.809 307.748 329.367Z" fill="#0582C1"/>
<path d="M386.054 412.523H336.676L344.225 394.194V394.184L347.265 386.784L348.099 384.755L349.461 381.457L349.736 380.781L352.776 373.381L353.336 372.039L358.72 358.953C359.692 356.596 363.028 356.596 363.999 358.953L369.384 372.039L369.943 373.381L372.984 380.781L373.258 381.457L374.62 384.755L375.454 386.784L378.495 394.184V394.194L386.054 412.523Z" fill="#FFBF4D"/>
<path opacity="0.29" d="M339.917 404.669L336.676 412.523H386.065L382.824 404.669H339.917Z" fill="#F98D2B"/>
<path d="M389.285 407.829H332.728V415.831H389.285V407.829Z" fill="#79C9E8"/>
<path d="M389.286 407.829H377.07V415.831H389.286V407.829Z" fill="#49B4D6"/>
<path opacity="0.29" d="M384.113 407.829H377.124L371.518 394.204V394.194L368.477 386.795L367.643 384.765L366.281 381.467L366.006 380.791L362.966 373.392L362.406 372.049L357.877 361.035L358.722 358.964C359.693 356.606 363.029 356.606 364 358.964L369.385 372.049L369.944 373.392L372.985 380.791L373.26 381.467L374.622 384.765L375.456 386.795L378.496 394.194V394.204L384.113 407.829Z" fill="#F98D2B"/>
<path d="M372.985 380.791H349.747L352.788 373.392H369.944L372.985 380.791Z" fill="#0582C1"/>
<path d="M378.507 394.183V394.194H344.226V394.183L347.266 386.784H375.466L378.507 394.183Z" fill="#0582C1"/>
<path d="M372.985 380.791H366.006L362.966 373.392H369.945L372.985 380.791Z" fill="#00668E"/>
<path d="M378.506 394.183V394.194H371.517V394.183L368.477 386.784H375.466L378.506 394.183Z" fill="#00668E"/>
<path d="M71.2859 232.766C74.9705 232.766 78.1801 230.081 78.6869 226.424C78.7713 225.769 78.8241 225.092 78.8241 224.416C78.8241 216.266 72.2255 209.66 64.0855 209.66C63.7476 209.66 63.4204 209.67 63.0931 209.702C62.4174 201.669 55.6921 195.358 47.4993 195.358C38.8525 195.358 31.8421 202.377 31.8421 211.034C31.8421 211.414 31.8632 211.795 31.8843 212.176C29.4349 210.801 26.5738 210.072 23.5332 210.209C15.6676 210.569 9.20628 216.869 8.64672 224.733C8.64672 224.796 8.63616 224.86 8.63616 224.923C8.38277 229.194 11.8352 232.787 16.111 232.787H71.2859V232.766Z" fill="#D7F0F9"/>
<path d="M422.997 244.351C434.652 244.351 435.296 226.794 423.651 226.223C423.334 226.213 423.018 226.202 422.69 226.202C420.611 226.202 418.615 226.53 416.736 227.132C415.173 217.63 406.938 210.379 397.003 210.379C386.847 210.379 378.475 217.957 377.187 227.766C374.779 226.614 372.077 225.959 369.226 225.959C367.632 225.959 366.09 226.16 364.612 226.54C354.424 229.172 356.557 244.351 367.083 244.351H422.997V244.351Z" fill="#D7F0F9"/>
<path d="M283.042 157.834C294.688 157.834 295.342 140.277 283.697 139.717C283.38 139.706 283.063 139.696 282.736 139.696C280.656 139.696 278.661 140.024 276.782 140.626C275.219 131.123 266.984 123.872 257.06 123.872C246.914 123.872 238.531 131.451 237.243 141.26C234.836 140.108 232.133 139.453 229.293 139.453C227.699 139.453 226.157 139.654 224.679 140.034C214.491 142.656 216.634 157.834 227.15 157.834H283.042Z" fill="#D7F0F9"/>
<path d="M97.5532 190.274C112.976 190.274 125.478 177.757 125.478 162.316C125.478 146.875 112.976 134.358 97.5532 134.358C82.1305 134.358 69.6279 146.875 69.6279 162.316C69.6279 177.757 82.1305 190.274 97.5532 190.274Z" fill="#FFBF4D"/>
<path d="M97.7861 134.358C105.377 139.358 110.403 147.962 110.403 157.739C110.403 173.182 97.9023 185.697 82.4774 185.697C82.4035 185.697 82.3296 185.697 82.2451 185.687C86.6477 188.583 91.9055 190.274 97.5644 190.274C112.989 190.274 125.49 177.759 125.49 162.316C125.49 146.958 113.105 134.485 97.7861 134.358Z" fill="#FF9F50"/>
</g>
<defs>
<linearGradient id="paint0_linear" x1="250.612" y1="381.945" x2="250.612" y2="356.52" gradientUnits="userSpaceOnUse">
<stop stop-color="white"/>
<stop offset="1" stop-color="white" stop-opacity="0"/>
</linearGradient>
<clipPath id="clip0">
<rect width="456" height="416" fill="white"/>
</clipPath>
</defs>
</svg>
