<svg width="160" height="333" viewBox="0 0 160 333" fill="none" xmlns="http://www.w3.org/2000/svg">
<path opacity="0.05" fill-rule="evenodd" clip-rule="evenodd" d="M88.5981 278.356C87.401 278.356 86.258 278.116 85.4039 277.626L18.7727 239.396C16.8876 238.315 17.1238 236.426 19.301 235.177L22.7207 233.216L85.6751 269.335C85.6825 269.339 85.69 269.343 85.697 269.347C86.5833 269.849 87.7632 270.095 88.9986 270.095C90.5023 270.095 92.0883 269.731 93.3274 269.02L135.118 245.051L138.657 247.081C140.542 248.162 140.306 250.051 138.129 251.3L92.758 277.323C91.5679 278.006 90.0436 278.356 88.5981 278.356" fill="#000E4B"/>
<path fill-rule="evenodd" clip-rule="evenodd" d="M157.327 173.206L87.9933 133.426C87.1883 132.964 86.3701 132.893 85.6439 133.14L85.6485 133.132L85.5221 133.18L85.4917 133.191L82.9864 134.144L85.235 135.238C85.2243 135.279 85.2117 135.318 85.2028 135.36L73.9091 186.445C73.3439 189.001 74.4757 191.987 76.4369 193.111L144.103 231.934L143.862 234.784L146.6 233.729C147.52 233.302 148.257 232.335 148.561 230.957L159.855 179.872C160.42 177.316 159.288 174.33 157.327 173.206" fill="#0037A1"/>
<path fill-rule="evenodd" clip-rule="evenodd" d="M157.328 173.206L87.9945 133.426C87.1894 132.964 86.3713 132.893 85.645 133.14L85.6497 133.132L85.5232 133.18L85.4929 133.191L82.9875 134.144L85.2362 135.238C85.2255 135.279 85.2129 135.318 85.204 135.36L77.7607 169.028L111.685 195.293L159.518 175.951C159.058 174.767 158.295 173.76 157.328 173.206" fill="#B4D0F6"/>
<path fill-rule="evenodd" clip-rule="evenodd" d="M154.713 181.058L159.991 178.825C160.087 176.794 159.241 174.695 157.853 173.573L149.498 177.066L154.713 181.058" fill="#92B6E7"/>
<path fill-rule="evenodd" clip-rule="evenodd" d="M141.454 234.513L72.12 194.734C70.1584 193.608 69.0266 190.623 69.5918 188.067L80.8854 136.982C81.4502 134.425 83.4986 133.265 85.4598 134.39L154.793 174.17C156.754 175.295 157.887 178.28 157.322 180.837L146.028 231.921C145.463 234.478 143.415 235.639 141.454 234.513" fill="#D7E8FE"/>
<path fill-rule="evenodd" clip-rule="evenodd" d="M155.46 173.927L86.1259 134.148C85.1761 133.604 84.2086 133.604 83.3965 134.031C84.0485 133.889 84.7584 133.988 85.4603 134.391L154.794 174.17C156.755 175.295 157.887 178.28 157.322 180.837L146.029 231.921C145.738 233.239 145.048 234.177 144.184 234.63C145.354 234.376 146.331 233.322 146.694 231.68L157.988 180.595C158.553 178.038 157.421 175.053 155.46 173.927" fill="#FFFFFE"/>
<path fill-rule="evenodd" clip-rule="evenodd" d="M139.951 230.713L74.744 193.32C72.9495 192.29 71.9138 189.559 72.4309 187.219L82.765 140.472C83.2822 138.133 85.1565 137.071 86.9515 138.101L152.158 175.494C153.953 176.524 154.989 179.256 154.472 181.595L144.137 228.342C143.62 230.681 141.746 231.743 139.951 230.713" fill="#FFFFFE"/>
<path fill-rule="evenodd" clip-rule="evenodd" d="M139.951 230.713L74.744 193.32C72.9495 192.29 71.9138 189.559 72.4309 187.219L82.765 140.472C83.2822 138.133 85.1565 137.071 86.9515 138.101L152.158 175.494C153.953 176.524 154.989 179.256 154.472 181.595L144.137 228.342C143.62 230.681 141.746 231.743 139.951 230.713" fill="#000E4B"/>
<path fill-rule="evenodd" clip-rule="evenodd" d="M140.519 230.484L75.3125 193.09C73.5179 192.06 72.4823 189.329 72.9989 186.99L83.3335 140.242C83.5953 139.058 84.2058 138.206 84.9764 137.781C83.9426 138.046 83.0885 139.009 82.765 140.472L72.4309 187.219C71.9138 189.559 72.9495 192.29 74.744 193.32L139.951 230.714C140.838 231.222 141.742 231.217 142.494 230.803C141.875 230.961 141.192 230.869 140.519 230.484" fill="#5589BB"/>
<path fill-rule="evenodd" clip-rule="evenodd" d="M142.411 236.245L132.934 235.002L71.755 199.901C69.7938 198.776 66.3676 198.917 64.1031 200.217L20.7523 225.079L15.0215 224.327V227.559L15.0266 227.56C14.9893 228.306 15.4173 229.024 16.3428 229.556L85.6758 269.335C87.6375 270.461 91.0632 270.319 93.3282 269.02L140.539 241.942C141.813 241.211 142.449 240.269 142.411 239.385V236.245" fill="#0037A1"/>
<path fill-rule="evenodd" clip-rule="evenodd" d="M96.444 214.066L92.097 211.572H44.31L20.7523 225.079L15.0215 224.328V227.559L15.0266 227.56C14.9893 228.306 15.4173 229.024 16.3428 229.556L85.6758 269.335C86.7124 269.93 88.1583 270.167 89.6252 270.071L96.444 214.066" fill="#B4D0F6"/>
<path fill-rule="evenodd" clip-rule="evenodd" d="M17.5646 224.661L15.0215 224.327V227.559L15.0266 227.56C14.9893 228.306 15.4173 229.024 16.3428 229.556L17.5646 230.256V224.661" fill="#92B6E7"/>
<path fill-rule="evenodd" clip-rule="evenodd" d="M86.374 269.658C88.2334 270.358 90.8914 270.205 92.8759 269.256V262.049H86.374V269.658" fill="#92B6E7"/>
<path fill-rule="evenodd" clip-rule="evenodd" d="M85.6748 266.107L16.3417 226.328C14.3801 225.203 14.6266 223.237 16.8911 221.938L64.1021 194.86C66.3666 193.561 69.7928 193.42 71.754 194.544L141.087 234.324C143.049 235.45 142.803 237.415 140.538 238.715L93.3272 265.792C91.0622 267.091 87.6364 267.233 85.6748 266.107" fill="#D7E8FE"/>
<path fill-rule="evenodd" clip-rule="evenodd" d="M140.539 237.534L93.328 264.612C91.063 265.911 87.6373 266.053 85.6756 264.927L16.3426 225.148C15.6994 224.779 15.2981 224.319 15.123 223.822C14.8164 224.744 15.2075 225.677 16.3426 226.328L85.6756 266.107C87.6373 267.233 91.063 267.091 93.328 265.792L140.539 238.715C142.061 237.841 142.667 236.668 142.307 235.649C142.084 236.321 141.493 236.987 140.539 237.534" fill="#FFFFFE"/>
<path fill-rule="evenodd" clip-rule="evenodd" d="M98.4253 231.784L95.2885 229.984C95.0364 229.839 95.0677 229.587 95.3585 229.42L98.4668 227.637C98.7581 227.47 99.1977 227.452 99.4497 227.596L102.587 229.396C102.839 229.54 102.807 229.793 102.516 229.96L99.4077 231.743C99.117 231.91 98.6773 231.928 98.4253 231.784" fill="#000E4B"/>
<path fill-rule="evenodd" clip-rule="evenodd" d="M103.27 234.563L100.132 232.764C99.8802 232.619 99.9115 232.366 100.202 232.2L103.311 230.416C103.601 230.249 104.042 230.231 104.293 230.375L107.431 232.175C107.683 232.32 107.651 232.572 107.36 232.739L104.252 234.523C103.961 234.69 103.521 234.708 103.27 234.563" fill="#000E4B"/>
<path fill-rule="evenodd" clip-rule="evenodd" d="M108.114 237.343L104.977 235.543C104.725 235.398 104.756 235.146 105.047 234.979L108.155 233.195C108.446 233.029 108.886 233.011 109.138 233.155L112.275 234.955C112.527 235.1 112.496 235.352 112.204 235.519L109.096 237.302C108.806 237.469 108.365 237.487 108.114 237.343" fill="#000E4B"/>
<path fill-rule="evenodd" clip-rule="evenodd" d="M112.96 240.122L109.823 238.322C109.571 238.178 109.603 237.926 109.894 237.758L113.002 235.975C113.293 235.808 113.733 235.79 113.985 235.935L117.122 237.734C117.374 237.879 117.342 238.132 117.052 238.298L113.943 240.082C113.652 240.248 113.212 240.267 112.96 240.122" fill="#000E4B"/>
<path fill-rule="evenodd" clip-rule="evenodd" d="M121.572 245.064L114.727 241.136C114.476 240.992 114.508 240.739 114.798 240.573L117.907 238.789C118.197 238.622 118.637 238.604 118.889 238.749L125.734 242.676C125.986 242.82 125.954 243.073 125.664 243.24L122.555 245.023C122.264 245.19 121.824 245.208 121.572 245.064" fill="#000E4B"/>
<path fill-rule="evenodd" clip-rule="evenodd" d="M131.003 239.652L125.225 236.338C124.974 236.193 125.006 235.941 125.296 235.774L128.405 233.99C128.695 233.823 129.135 233.805 129.387 233.95L135.164 237.265C135.416 237.409 135.385 237.661 135.094 237.829L131.986 239.612C131.695 239.779 131.254 239.797 131.003 239.652" fill="#000E4B"/>
<path fill-rule="evenodd" clip-rule="evenodd" d="M82.6873 217.342L79.55 215.542C79.298 215.397 79.3297 215.145 79.6205 214.979L82.7288 213.195C83.0196 213.028 83.4597 213.01 83.7113 213.155L86.8486 214.955C87.1006 215.099 87.0689 215.352 86.7781 215.519L83.6697 217.302C83.3785 217.468 82.9389 217.486 82.6873 217.342" fill="#000E4B"/>
<path fill-rule="evenodd" clip-rule="evenodd" d="M77.7208 214.494L74.584 212.693C74.3324 212.549 74.3637 212.297 74.6545 212.129L77.7628 210.347C78.0536 210.18 78.4937 210.161 78.7457 210.306L81.8825 212.106C82.1341 212.25 82.1028 212.503 81.8121 212.669L78.7037 214.453C78.4129 214.62 77.9728 214.638 77.7208 214.494" fill="#000E4B"/>
<path fill-rule="evenodd" clip-rule="evenodd" d="M72.7544 211.644L69.6176 209.845C69.3656 209.7 69.3968 209.448 69.6876 209.281L72.7959 207.498C73.0872 207.331 73.5273 207.313 73.7789 207.457L76.9161 209.257C77.1682 209.402 77.136 209.654 76.8452 209.821L73.7368 211.604C73.4461 211.771 73.0064 211.789 72.7544 211.644" fill="#000E4B"/>
<path fill-rule="evenodd" clip-rule="evenodd" d="M67.7916 208.796L64.6543 206.996C64.4023 206.851 64.4345 206.6 64.7252 206.433L67.8336 204.649C68.1243 204.482 68.564 204.464 68.816 204.609L71.9528 206.409C72.2049 206.553 72.1736 206.806 71.8828 206.972L68.774 208.756C68.4832 208.922 68.0431 208.94 67.7916 208.796" fill="#000E4B"/>
<path fill-rule="evenodd" clip-rule="evenodd" d="M87.531 220.122L84.3937 218.322C84.1417 218.177 84.1734 217.925 84.4646 217.758L87.5725 215.974C87.8638 215.808 88.3034 215.79 88.555 215.934L91.6923 217.734C91.9443 217.879 91.913 218.131 91.6218 218.298L88.5134 220.081C88.2227 220.248 87.7826 220.266 87.531 220.122" fill="#000E4B"/>
<path fill-rule="evenodd" clip-rule="evenodd" d="M92.3758 222.901L89.2385 221.101C88.9864 220.957 89.0182 220.705 89.3089 220.537L92.4178 218.754C92.7085 218.587 93.1482 218.569 93.4002 218.714L96.537 220.514C96.789 220.658 96.7573 220.911 96.4665 221.077L93.3582 222.861C93.0674 223.027 92.6273 223.046 92.3758 222.901" fill="#000E4B"/>
<path fill-rule="evenodd" clip-rule="evenodd" d="M97.2213 225.681L94.084 223.881C93.8324 223.737 93.8637 223.484 94.1545 223.317L97.2628 221.534C97.554 221.367 97.9937 221.348 98.2457 221.493L101.383 223.293C101.635 223.437 101.603 223.69 101.312 223.857L98.2037 225.64C97.9129 225.807 97.4733 225.826 97.2213 225.681" fill="#000E4B"/>
<path fill-rule="evenodd" clip-rule="evenodd" d="M102.065 228.46L98.9277 226.66C98.6762 226.516 98.7074 226.263 98.9982 226.097L102.107 224.313C102.397 224.146 102.837 224.128 103.089 224.273L106.226 226.073C106.478 226.217 106.447 226.469 106.156 226.637L103.047 228.419C102.757 228.586 102.317 228.605 102.065 228.46" fill="#000E4B"/>
<path fill-rule="evenodd" clip-rule="evenodd" d="M50.6752 215.938L47.5379 214.138C47.2863 213.994 47.3181 213.742 47.6088 213.575L51.3113 211.451C51.6021 211.283 52.0427 211.265 52.2942 211.41L55.4315 213.209C55.6835 213.354 55.6513 213.607 55.3606 213.773L51.6581 215.897C51.3673 216.065 50.9272 216.083 50.6752 215.938" fill="#000E4B"/>
<path fill-rule="evenodd" clip-rule="evenodd" d="M55.5189 218.718L52.382 216.918C52.13 216.774 52.1617 216.521 52.4525 216.354L56.155 214.23C56.4462 214.063 56.8863 214.045 57.1379 214.189L60.2747 215.989C60.5268 216.133 60.4955 216.386 60.2047 216.553L56.5013 218.677C56.2105 218.844 55.7709 218.863 55.5189 218.718" fill="#000E4B"/>
<path fill-rule="evenodd" clip-rule="evenodd" d="M62.2198 216.422L59.083 214.622C58.8314 214.478 58.8627 214.225 59.1535 214.059L62.2618 212.276C62.5526 212.108 62.9927 212.09 63.2447 212.235L66.3816 214.035C66.6331 214.179 66.6019 214.431 66.3111 214.599L63.2027 216.382C62.912 216.549 62.4719 216.567 62.2198 216.422" fill="#000E4B"/>
<path fill-rule="evenodd" clip-rule="evenodd" d="M67.0636 219.202L63.9268 217.403C63.6752 217.258 63.7065 217.005 63.9972 216.839L67.1056 215.055C67.3964 214.888 67.8365 214.87 68.0885 215.014L71.2253 216.814C71.4769 216.959 71.4456 217.211 71.1548 217.378L68.0465 219.162C67.7557 219.328 67.3156 219.346 67.0636 219.202" fill="#000E4B"/>
<path fill-rule="evenodd" clip-rule="evenodd" d="M71.9085 221.982L68.7717 220.182C68.5196 220.037 68.5514 219.785 68.8422 219.618L71.9505 217.834C72.2413 217.668 72.6809 217.65 72.9334 217.794L76.0702 219.594C76.3223 219.739 76.2905 219.991 75.9998 220.157L72.8914 221.941C72.6006 222.108 72.1605 222.126 71.9085 221.982" fill="#000E4B"/>
<path fill-rule="evenodd" clip-rule="evenodd" d="M76.7527 224.761L73.6154 222.961C73.3634 222.816 73.3951 222.564 73.6859 222.397L76.7942 220.614C77.085 220.447 77.5251 220.429 77.7767 220.573L80.914 222.373C81.166 222.518 81.1343 222.77 80.8435 222.937L77.7356 224.72C77.4444 224.887 77.0043 224.905 76.7527 224.761" fill="#000E4B"/>
<path fill-rule="evenodd" clip-rule="evenodd" d="M81.5982 227.541L78.4609 225.741C78.2089 225.596 78.2411 225.344 78.5319 225.177L81.6398 223.394C81.9305 223.226 82.3706 223.208 82.6222 223.353L85.7595 225.153C86.0115 225.297 85.9802 225.55 85.689 225.717L82.5807 227.5C82.2899 227.667 81.8498 227.685 81.5982 227.541" fill="#000E4B"/>
<path fill-rule="evenodd" clip-rule="evenodd" d="M86.4421 230.32L83.3048 228.52C83.0528 228.375 83.0845 228.123 83.3758 227.956L86.4841 226.173C86.7749 226.006 87.2145 225.988 87.4666 226.133L90.6034 227.933C90.8554 228.077 90.8237 228.329 90.5329 228.496L87.4246 230.279C87.1338 230.446 86.6937 230.464 86.4421 230.32" fill="#000E4B"/>
<path fill-rule="evenodd" clip-rule="evenodd" d="M91.2857 233.099L88.1484 231.299C87.8969 231.155 87.9281 230.903 88.2189 230.736L91.3277 228.953C91.6185 228.786 92.0581 228.767 92.3102 228.912L95.4475 230.712C95.699 230.856 95.6673 231.109 95.3765 231.276L92.2682 233.059C91.9774 233.226 91.5378 233.244 91.2857 233.099" fill="#000E4B"/>
<path fill-rule="evenodd" clip-rule="evenodd" d="M96.1324 235.879L92.9951 234.079C92.7436 233.935 92.7748 233.682 93.0656 233.515L96.1739 231.732C96.4647 231.565 96.9048 231.547 97.1569 231.692L100.294 233.491C100.546 233.636 100.514 233.888 100.223 234.055L97.1148 235.839C96.8241 236.006 96.3844 236.024 96.1324 235.879" fill="#000E4B"/>
<path fill-rule="evenodd" clip-rule="evenodd" d="M100.977 238.659L97.8398 236.859C97.5883 236.714 97.6196 236.462 97.9103 236.295L101.019 234.512C101.309 234.345 101.75 234.327 102.002 234.471L105.138 236.271C105.39 236.416 105.359 236.668 105.068 236.835L101.96 238.618C101.669 238.785 101.229 238.803 100.977 238.659" fill="#000E4B"/>
<path fill-rule="evenodd" clip-rule="evenodd" d="M105.82 241.438L102.684 239.638C102.432 239.493 102.463 239.241 102.754 239.074L105.862 237.291C106.153 237.124 106.594 237.106 106.845 237.25L109.982 239.05C110.234 239.195 110.202 239.447 109.912 239.614L106.803 241.398C106.512 241.564 106.072 241.582 105.82 241.438" fill="#000E4B"/>
<path fill-rule="evenodd" clip-rule="evenodd" d="M69.3555 215.106L66.2191 213.306C65.9671 213.162 65.9984 212.91 66.2891 212.743L69.3975 210.959C69.6883 210.793 70.1289 210.774 70.3804 210.919L73.5172 212.719C73.7693 212.863 73.7375 213.115 73.4468 213.283L70.3384 215.066C70.0476 215.233 69.6075 215.251 69.3555 215.106" fill="#000E4B"/>
<path fill-rule="evenodd" clip-rule="evenodd" d="M64.4411 212.285L61.3042 210.485C61.0518 210.341 61.0835 210.089 61.3747 209.922L64.4826 208.138C64.7734 207.972 65.2135 207.953 65.4655 208.098L68.6023 209.898C68.8544 210.042 68.8231 210.295 68.5319 210.462L65.424 212.245C65.1332 212.412 64.6926 212.43 64.4411 212.285" fill="#000E4B"/>
<path fill-rule="evenodd" clip-rule="evenodd" d="M59.517 209.46L52.7607 205.583C52.5092 205.439 52.5405 205.186 52.8312 205.019L55.9396 203.236C56.2303 203.069 56.6705 203.051 56.9225 203.196L63.6787 207.072C63.9307 207.217 63.899 207.469 63.6082 207.636L60.4999 209.419C60.2091 209.586 59.7695 209.604 59.517 209.46" fill="#000E4B"/>
<path fill-rule="evenodd" clip-rule="evenodd" d="M62.9584 206.024L57.4754 202.878C57.2238 202.733 57.2556 202.481 57.5463 202.314L60.6547 200.531C60.9454 200.364 61.3851 200.346 61.6371 200.49L67.1201 203.636C67.3717 203.78 67.3404 204.032 67.0497 204.2L63.9413 205.983C63.6506 206.15 63.2104 206.168 62.9584 206.024" fill="#000E4B"/>
<path fill-rule="evenodd" clip-rule="evenodd" d="M74.2036 217.886L71.0668 216.086C70.8147 215.941 70.846 215.689 71.1372 215.522L74.2451 213.739C74.5359 213.572 74.9765 213.554 75.228 213.698L78.3649 215.498C78.6169 215.643 78.5851 215.895 78.2944 216.062L75.1865 217.846C74.8957 218.012 74.4551 218.03 74.2036 217.886" fill="#000E4B"/>
<path fill-rule="evenodd" clip-rule="evenodd" d="M79.0484 220.666L75.9111 218.866C75.6591 218.721 75.6913 218.469 75.9821 218.302L79.09 216.518C79.3812 216.351 79.8208 216.333 80.0724 216.478L83.2097 218.278C83.4617 218.422 83.4304 218.675 83.1397 218.842L80.0313 220.625C79.7406 220.792 79.3 220.81 79.0484 220.666" fill="#000E4B"/>
<path fill-rule="evenodd" clip-rule="evenodd" d="M83.8922 223.445L80.7549 221.645C80.5028 221.501 80.535 221.248 80.8258 221.081L83.9342 219.298C84.2249 219.131 84.6646 219.113 84.9166 219.258L88.0534 221.057C88.3055 221.202 88.2742 221.454 87.9834 221.621L84.8746 223.404C84.5838 223.571 84.1442 223.59 83.8922 223.445" fill="#000E4B"/>
<path fill-rule="evenodd" clip-rule="evenodd" d="M88.7367 226.224L85.5994 224.424C85.3478 224.28 85.3796 224.028 85.6704 223.861L88.7787 222.078C89.0695 221.911 89.5091 221.892 89.7611 222.037L92.8984 223.837C93.15 223.981 93.1187 224.234 92.828 224.4L89.7191 226.184C89.4284 226.351 88.9887 226.369 88.7367 226.224" fill="#000E4B"/>
<path fill-rule="evenodd" clip-rule="evenodd" d="M93.5807 229.004L90.4434 227.204C90.1918 227.06 90.2231 226.807 90.5138 226.64L93.6227 224.857C93.9134 224.69 94.3531 224.672 94.6051 224.817L97.7424 226.616C97.994 226.761 97.9622 227.013 97.6715 227.18L94.5631 228.964C94.2723 229.131 93.8327 229.149 93.5807 229.004" fill="#000E4B"/>
<path fill-rule="evenodd" clip-rule="evenodd" d="M45.8304 213.159L42.6936 211.359C42.4415 211.214 42.4733 210.962 42.764 210.795L46.467 208.67C46.7577 208.504 47.1979 208.486 47.4494 208.63L50.5867 210.43C50.8387 210.575 50.8065 210.827 50.5158 210.994L46.8133 213.118C46.5225 213.285 46.0824 213.303 45.8304 213.159" fill="#000E4B"/>
<path fill-rule="evenodd" clip-rule="evenodd" d="M106.908 231.239L103.771 229.44C103.52 229.295 103.551 229.043 103.842 228.876L106.95 227.093C107.241 226.926 107.681 226.908 107.933 227.052L111.07 228.852C111.322 228.997 111.29 229.249 111 229.416L107.891 231.2C107.6 231.366 107.16 231.384 106.908 231.239" fill="#000E4B"/>
<path fill-rule="evenodd" clip-rule="evenodd" d="M111.753 234.019L108.617 232.219C108.365 232.075 108.396 231.822 108.687 231.655L111.795 229.872C112.086 229.705 112.526 229.687 112.778 229.831L115.915 231.631C116.167 231.776 116.135 232.029 115.844 232.195L112.736 233.979C112.445 234.146 112.005 234.164 111.753 234.019" fill="#000E4B"/>
<path fill-rule="evenodd" clip-rule="evenodd" d="M116.599 236.799L113.462 234.999C113.21 234.854 113.242 234.602 113.533 234.435L116.641 232.652C116.932 232.485 117.372 232.467 117.623 232.611L120.761 234.411C121.013 234.556 120.981 234.808 120.69 234.975L117.582 236.758C117.291 236.925 116.851 236.943 116.599 236.799" fill="#000E4B"/>
<path fill-rule="evenodd" clip-rule="evenodd" d="M121.443 239.578L118.306 237.778C118.054 237.634 118.086 237.382 118.377 237.215L121.484 235.431C121.776 235.264 122.215 235.246 122.467 235.391L125.604 237.191C125.856 237.335 125.825 237.588 125.534 237.754L122.425 239.538C122.135 239.704 121.695 239.723 121.443 239.578" fill="#000E4B"/>
<path fill-rule="evenodd" clip-rule="evenodd" d="M126.287 242.358L123.149 240.558C122.897 240.413 122.93 240.161 123.22 239.994L126.329 238.211C126.619 238.044 127.059 238.026 127.311 238.17L130.448 239.97C130.7 240.115 130.669 240.367 130.378 240.534L127.269 242.317C126.978 242.484 126.539 242.502 126.287 242.358" fill="#000E4B"/>
<path fill-rule="evenodd" clip-rule="evenodd" d="M80.1355 210.467L76.9982 208.668C76.7462 208.523 76.7779 208.27 77.0691 208.104L80.177 206.32C80.4678 206.153 80.9079 206.135 81.1595 206.28L84.2968 208.08C84.5488 208.224 84.5175 208.476 84.2263 208.644L81.1184 210.426C80.8276 210.593 80.3871 210.612 80.1355 210.467" fill="#000E4B"/>
<path fill-rule="evenodd" clip-rule="evenodd" d="M75.3148 207.702L72.1779 205.902C71.9259 205.757 71.9576 205.505 72.2484 205.338L75.3568 203.554C75.6475 203.388 76.0872 203.37 76.3392 203.514L79.4765 205.314C79.7285 205.459 79.6968 205.711 79.406 205.877L76.2977 207.661C76.0064 207.828 75.5668 207.846 75.3148 207.702" fill="#000E4B"/>
<path fill-rule="evenodd" clip-rule="evenodd" d="M70.4945 204.936L67.3572 203.136C67.1057 202.991 67.1374 202.739 67.4282 202.572L70.5365 200.789C70.8273 200.622 71.2669 200.604 71.519 200.748L74.6562 202.548C74.9078 202.693 74.8765 202.945 74.5858 203.112L71.477 204.896C71.1862 205.062 70.7465 205.08 70.4945 204.936" fill="#000E4B"/>
<path fill-rule="evenodd" clip-rule="evenodd" d="M65.6736 202.17L62.5363 200.37C62.2843 200.226 62.316 199.973 62.6068 199.806L65.7156 198.023C66.0064 197.856 66.446 197.838 66.6981 197.982L69.8349 199.782C70.0869 199.927 70.0552 200.18 69.7644 200.346L66.6561 202.129C66.3653 202.296 65.9252 202.314 65.6736 202.17" fill="#000E4B"/>
<path fill-rule="evenodd" clip-rule="evenodd" d="M70.6321 199.326L67.4953 197.526C67.2433 197.382 67.275 197.13 67.5658 196.962L68.5935 196.373C68.8843 196.206 69.3239 196.188 69.5759 196.332L72.7132 198.132C72.9648 198.277 72.9335 198.529 72.6428 198.696L71.6146 199.285C71.3238 199.452 70.8842 199.47 70.6321 199.326" fill="#000E4B"/>
<path fill-rule="evenodd" clip-rule="evenodd" d="M76.9219 202.935L73.7855 201.135C73.5335 200.991 73.5648 200.738 73.8556 200.571L74.8833 199.982C75.174 199.815 75.6142 199.797 75.8662 199.942L79.003 201.742C79.2546 201.886 79.2233 202.138 78.9325 202.305L77.9048 202.895C77.6141 203.062 77.1739 203.08 76.9219 202.935" fill="#000E4B"/>
<path fill-rule="evenodd" clip-rule="evenodd" d="M81.7216 205.69L78.5843 203.89C78.3323 203.745 78.3636 203.493 78.6548 203.326L79.6821 202.736C79.9728 202.57 80.4129 202.551 80.665 202.696L83.8023 204.495C84.0543 204.64 84.0221 204.893 83.7313 205.059L82.7041 205.649C82.4133 205.816 81.9732 205.834 81.7216 205.69" fill="#000E4B"/>
<path fill-rule="evenodd" clip-rule="evenodd" d="M86.5232 208.444L83.3859 206.644C83.1339 206.499 83.1656 206.247 83.4564 206.08L84.4841 205.491C84.7749 205.324 85.215 205.306 85.4666 205.45L88.6038 207.25C88.8559 207.394 88.8237 207.647 88.5329 207.814L87.5057 208.403C87.2149 208.57 86.7748 208.588 86.5232 208.444" fill="#000E4B"/>
<path fill-rule="evenodd" clip-rule="evenodd" d="M91.3226 211.198L88.1853 209.398C87.9338 209.253 87.9655 209.001 88.2563 208.834L89.2835 208.244C89.5748 208.078 90.0144 208.06 90.2665 208.204L93.4033 210.004C93.6553 210.148 93.624 210.401 93.3328 210.568L92.3051 211.157C92.0143 211.324 91.5747 211.342 91.3226 211.198" fill="#000E4B"/>
<path fill-rule="evenodd" clip-rule="evenodd" d="M118.123 226.574L114.986 224.774C114.734 224.63 114.765 224.378 115.056 224.21L116.084 223.621C116.374 223.454 116.815 223.436 117.066 223.58L120.203 225.38C120.455 225.525 120.423 225.777 120.133 225.944L119.105 226.533C118.815 226.7 118.374 226.718 118.123 226.574" fill="#000E4B"/>
<path fill-rule="evenodd" clip-rule="evenodd" d="M122.923 229.328L119.786 227.529C119.534 227.384 119.566 227.131 119.857 226.965L120.884 226.375C121.175 226.208 121.615 226.19 121.867 226.334L125.004 228.134C125.256 228.279 125.225 228.531 124.934 228.698L123.906 229.288C123.615 229.455 123.175 229.473 122.923 229.328" fill="#000E4B"/>
<path fill-rule="evenodd" clip-rule="evenodd" d="M127.722 232.082L124.585 230.282C124.333 230.138 124.365 229.886 124.656 229.719L125.683 229.129C125.974 228.962 126.414 228.944 126.666 229.089L129.803 230.888C130.055 231.033 130.023 231.285 129.733 231.452L128.705 232.042C128.414 232.208 127.974 232.226 127.722 232.082" fill="#000E4B"/>
<path fill-rule="evenodd" clip-rule="evenodd" d="M132.524 234.836L129.387 233.037C129.135 232.892 129.167 232.64 129.457 232.473L130.485 231.883C130.776 231.716 131.215 231.698 131.468 231.842L134.605 233.642C134.856 233.787 134.825 234.04 134.534 234.206L133.507 234.796C133.216 234.963 132.776 234.981 132.524 234.836" fill="#000E4B"/>
<path fill-rule="evenodd" clip-rule="evenodd" d="M84.9791 213.247L81.8418 211.447C81.5898 211.302 81.622 211.05 81.9127 210.883L85.0206 209.099C85.3118 208.933 85.7515 208.915 86.0035 209.059L89.1403 210.859C89.3924 211.004 89.3611 211.256 89.0703 211.423L85.962 213.206C85.6708 213.373 85.2306 213.391 84.9791 213.247" fill="#000E4B"/>
<path fill-rule="evenodd" clip-rule="evenodd" d="M89.8248 216.026L86.6875 214.226C86.4355 214.082 86.4677 213.829 86.7584 213.662L89.8668 211.879C90.1575 211.712 90.5972 211.694 90.8492 211.839L93.9865 213.638C94.2381 213.783 94.2068 214.036 93.916 214.202L90.8072 215.986C90.5165 216.152 90.0768 216.171 89.8248 216.026" fill="#000E4B"/>
<path fill-rule="evenodd" clip-rule="evenodd" d="M94.6685 218.806L91.5313 217.006C91.2797 216.862 91.311 216.609 91.6017 216.442L94.7105 214.659C95.0013 214.492 95.441 214.474 95.693 214.618L98.8303 216.418C99.0818 216.562 99.0501 216.815 98.7593 216.982L95.651 218.765C95.3602 218.932 94.9206 218.95 94.6685 218.806" fill="#000E4B"/>
<path fill-rule="evenodd" clip-rule="evenodd" d="M99.5123 221.585L96.375 219.785C96.1234 219.641 96.1547 219.388 96.4455 219.221L99.5543 217.438C99.8451 217.271 100.285 217.253 100.537 217.398L103.674 219.198C103.926 219.342 103.894 219.594 103.603 219.761L100.495 221.545C100.204 221.712 99.7643 221.73 99.5123 221.585" fill="#000E4B"/>
<path fill-rule="evenodd" clip-rule="evenodd" d="M104.359 224.365L101.222 222.565C100.97 222.42 101.001 222.168 101.292 222.001L104.4 220.218C104.691 220.051 105.132 220.033 105.383 220.177L108.521 221.977C108.773 222.122 108.74 222.374 108.45 222.541L105.341 224.324C105.051 224.491 104.611 224.509 104.359 224.365" fill="#000E4B"/>
<path fill-rule="evenodd" clip-rule="evenodd" d="M109.204 227.144L106.067 225.345C105.815 225.2 105.846 224.948 106.137 224.781L109.245 222.997C109.536 222.831 109.976 222.813 110.228 222.957L113.365 224.756C113.617 224.901 113.585 225.153 113.294 225.32L110.186 227.104C109.895 227.271 109.455 227.289 109.204 227.144" fill="#000E4B"/>
<path fill-rule="evenodd" clip-rule="evenodd" d="M114.048 229.924L110.911 228.124C110.659 227.979 110.691 227.727 110.982 227.56L114.09 225.777C114.381 225.61 114.821 225.592 115.073 225.736L118.209 227.536C118.461 227.681 118.43 227.933 118.139 228.1L115.031 229.883C114.74 230.05 114.3 230.068 114.048 229.924" fill="#000E4B"/>
<path fill-rule="evenodd" clip-rule="evenodd" d="M118.892 232.703L115.755 230.904C115.503 230.759 115.535 230.506 115.826 230.34L118.934 228.556C119.225 228.389 119.665 228.371 119.917 228.516L123.053 230.316C123.305 230.46 123.274 230.713 122.983 230.88L119.875 232.663C119.584 232.829 119.144 232.848 118.892 232.703" fill="#000E4B"/>
<path fill-rule="evenodd" clip-rule="evenodd" d="M123.737 235.483L120.599 233.683C120.348 233.539 120.38 233.286 120.67 233.119L123.779 231.336C124.069 231.169 124.509 231.151 124.761 231.296L127.898 233.095C128.15 233.24 128.119 233.492 127.828 233.659L124.72 235.442C124.428 235.609 123.989 235.627 123.737 235.483" fill="#000E4B"/>
<path fill-rule="evenodd" clip-rule="evenodd" d="M57.2828 213.59L48.0441 208.289C47.7921 208.145 47.8238 207.892 48.1146 207.725L51.223 205.942C51.5137 205.775 51.9534 205.757 52.2054 205.902L61.4446 211.202C61.6961 211.347 61.6649 211.599 61.3741 211.766L58.2658 213.549C57.975 213.716 57.5349 213.734 57.2828 213.59" fill="#000E4B"/>
<path fill-rule="evenodd" clip-rule="evenodd" d="M116.8 247.737L107.561 242.436C107.309 242.292 107.34 242.04 107.631 241.872L110.739 240.089C111.03 239.922 111.47 239.904 111.722 240.048L120.961 245.349C121.213 245.494 121.181 245.746 120.891 245.913L117.782 247.697C117.491 247.863 117.052 247.881 116.8 247.737" fill="#000E4B"/>
<path fill-rule="evenodd" clip-rule="evenodd" d="M97.4251 242.761L94.2883 240.961C94.0362 240.817 94.068 240.564 94.3588 240.397L98.0617 238.273C98.3525 238.106 98.7926 238.088 99.0446 238.233L102.181 240.032C102.433 240.177 102.402 240.429 102.111 240.596L98.408 242.72C98.1168 242.887 97.6771 242.906 97.4251 242.761" fill="#000E4B"/>
<path fill-rule="evenodd" clip-rule="evenodd" d="M62.2426 222.576L57.2258 219.698C56.9737 219.553 57.0055 219.3 57.2963 219.134L60.9992 217.009C61.29 216.843 61.7301 216.824 61.9821 216.969L66.9989 219.847C67.2509 219.992 67.2192 220.244 66.928 220.411L63.2255 222.535C62.9347 222.702 62.4946 222.72 62.2426 222.576" fill="#000E4B"/>
<path fill-rule="evenodd" clip-rule="evenodd" d="M92.7574 240.083L87.7406 237.204C87.4886 237.06 87.5199 236.807 87.8106 236.64L91.5136 234.516C91.8048 234.349 92.2445 234.331 92.4965 234.475L97.5137 237.354C97.7658 237.499 97.7336 237.751 97.4428 237.918L93.7403 240.042C93.4495 240.209 93.0094 240.227 92.7574 240.083" fill="#000E4B"/>
<path fill-rule="evenodd" clip-rule="evenodd" d="M69.234 226.586L64.2168 223.708C63.9652 223.563 63.9965 223.311 64.2873 223.144L67.9902 221.019C68.281 220.853 68.7211 220.834 68.9727 220.979L73.9899 223.858C74.2415 224.002 74.2102 224.255 73.9194 224.421L70.2165 226.545C69.9257 226.713 69.4856 226.731 69.234 226.586" fill="#000E4B"/>
<path fill-rule="evenodd" clip-rule="evenodd" d="M69.0068 220.998L90.8199 233.514C91.0902 233.668 91.0902 233.92 90.8199 234.076L87.0437 236.242C86.773 236.397 86.3338 236.397 86.0636 236.242L64.251 223.727L69.0068 220.998" fill="#000E4B"/>
<path fill-rule="evenodd" clip-rule="evenodd" d="M110.966 247.801L114.46 249.805C114.667 249.924 114.64 250.131 114.402 250.267L112.887 251.137C112.649 251.273 112.288 251.288 112.081 251.17L108.588 249.165C108.381 249.046 108.407 248.84 108.645 248.703L110.16 247.834C110.398 247.697 110.759 247.682 110.966 247.801" fill="#000E4B"/>
<path fill-rule="evenodd" clip-rule="evenodd" d="M106.08 244.998L109.574 247.003C109.781 247.121 109.755 247.328 109.517 247.465L108.002 248.334C107.763 248.471 107.403 248.486 107.196 248.367L103.702 246.362C103.495 246.244 103.522 246.037 103.76 245.9L105.275 245.031C105.513 244.894 105.874 244.879 106.08 244.998" fill="#000E4B"/>
<path fill-rule="evenodd" clip-rule="evenodd" d="M101.236 242.218L104.731 244.224C104.937 244.342 104.911 244.549 104.673 244.686L103.158 245.555C102.92 245.692 102.559 245.706 102.353 245.588L98.8579 243.583C98.6516 243.464 98.6778 243.258 98.9158 243.121L100.431 242.252C100.669 242.115 101.03 242.1 101.236 242.218" fill="#000E4B"/>
<path fill-rule="evenodd" clip-rule="evenodd" d="M108.757 243.463L112.251 245.468C112.457 245.586 112.431 245.793 112.193 245.93L110.679 246.799C110.44 246.935 110.079 246.951 109.873 246.832L106.379 244.827C106.172 244.709 106.198 244.502 106.437 244.365L107.951 243.496C108.19 243.359 108.55 243.345 108.757 243.463" fill="#000E4B"/>
<path fill-rule="evenodd" clip-rule="evenodd" d="M67.2486 248.53L45.6171 236.119C44.988 235.757 45.0668 235.126 45.7935 234.709L58.8477 227.22C59.5748 226.802 60.6744 226.757 61.3045 227.119L82.9355 239.53C83.5651 239.891 83.4863 240.522 82.7591 240.939L69.7054 248.428C68.9783 248.845 67.8787 248.891 67.2486 248.53" fill="#FFFFFE"/>
<mask id="mask0" mask-type="alpha" maskUnits="userSpaceOnUse" x="96" y="141" width="54" height="83">
<path fill-rule="evenodd" clip-rule="evenodd" d="M125.988 218.507L136.599 175.456L96.5029 151.838L119.647 141.239L149.417 152.647C149.417 152.647 149.598 204.778 149.417 205.303C149.237 205.827 138.389 223.318 138.389 223.318L125.988 218.507" fill="white"/>
</mask>
<g mask="url(#mask0)">
<path fill-rule="evenodd" clip-rule="evenodd" d="M112.982 159.292C112.898 159.174 112.774 159.064 112.607 158.968L107.468 156.02C107.133 155.828 106.696 155.733 106.259 155.733C105.875 155.733 105.491 155.806 105.176 155.951L104.317 156.441L104.008 156.259L105.132 155.614C105.468 155.421 105.909 155.325 106.35 155.325C106.792 155.325 107.233 155.421 107.569 155.614L112.709 158.563C112.941 158.696 113.091 158.859 113.163 159.029C113.287 158.734 113.173 158.411 112.818 158.166C113.283 158.487 113.338 158.94 112.982 159.292M112.815 158.164C112.814 158.163 112.813 158.162 112.812 158.162C112.813 158.162 112.814 158.163 112.815 158.164M112.807 158.158C112.806 158.158 112.806 158.157 112.806 158.157C112.806 158.157 112.806 158.158 112.807 158.158M112.801 158.153C112.8 158.153 112.8 158.153 112.8 158.153C112.8 158.153 112.8 158.153 112.801 158.153M112.719 158.102C112.718 158.102 112.718 158.102 112.718 158.102C112.718 158.102 112.718 158.102 112.719 158.102" fill="#2D4F80"/>
<path fill-rule="evenodd" clip-rule="evenodd" d="M113.782 162.015L112.95 161.526L114.194 160.813C115.04 160.327 115.404 159.669 115.289 159.034C115.302 158.964 115.309 158.895 115.311 158.825V161.138C115.305 161.142 115.299 161.144 115.294 161.148L113.782 162.015M112.55 161.29V161.29L114.194 160.347C114.196 160.345 114.199 160.344 114.202 160.342C114.199 160.344 114.196 160.345 114.194 160.347L112.55 161.29M114.203 160.341C114.205 160.34 114.208 160.338 114.21 160.337C114.208 160.338 114.206 160.34 114.203 160.341M114.211 160.337C114.213 160.335 114.216 160.333 114.219 160.332C114.216 160.333 114.213 160.335 114.211 160.337M114.219 160.332C114.24 160.32 114.259 160.308 114.279 160.296C114.259 160.308 114.24 160.32 114.219 160.332M114.279 160.296C114.287 160.291 114.295 160.286 114.303 160.281C114.295 160.286 114.287 160.291 114.279 160.296M114.305 160.28C114.308 160.279 114.31 160.277 114.312 160.276C114.31 160.277 114.308 160.279 114.305 160.28M114.315 160.273C114.317 160.273 114.318 160.272 114.319 160.272C114.318 160.272 114.317 160.273 114.315 160.273M114.323 160.268C114.324 160.268 114.324 160.267 114.325 160.267C114.324 160.267 114.324 160.268 114.323 160.268" fill="#4E6990"/>
<path fill-rule="evenodd" clip-rule="evenodd" d="M111.086 160.428L104.318 156.441L105.177 155.951C105.492 155.806 105.876 155.733 106.26 155.733C106.697 155.733 107.134 155.828 107.469 156.02L112.608 158.968C112.775 159.064 112.899 159.174 112.983 159.292C112.91 159.364 112.819 159.433 112.71 159.495L111.086 160.428" fill="#5B6F91"/>
<path fill-rule="evenodd" clip-rule="evenodd" d="M112.55 161.29L111.085 160.427L112.71 159.495C112.818 159.433 112.909 159.364 112.983 159.292C113.338 158.94 113.284 158.487 112.819 158.166C112.818 158.165 112.817 158.164 112.816 158.164C112.815 158.163 112.814 158.162 112.813 158.162C112.811 158.16 112.809 158.159 112.808 158.158C112.807 158.158 112.807 158.157 112.807 158.157C112.805 158.156 112.802 158.154 112.801 158.153C112.8 158.153 112.8 158.153 112.8 158.153C112.774 158.135 112.747 158.118 112.718 158.102C112.718 158.102 112.718 158.102 112.718 158.102C112.715 158.1 112.712 158.098 112.71 158.097L107.57 155.148C107.234 154.955 106.793 154.859 106.351 154.859C105.91 154.859 105.468 154.955 105.132 155.148L103.608 156.023L102.144 155.16L103.649 154.296C104.394 153.869 105.373 153.656 106.351 153.656C107.33 153.656 108.308 153.869 109.054 154.296L114.194 157.245C114.951 157.68 115.324 158.254 115.311 158.825C115.309 158.895 115.302 158.964 115.289 159.034C115.289 159.032 115.288 159.031 115.288 159.029C115.206 159.477 114.885 159.912 114.326 160.267C114.325 160.267 114.324 160.268 114.324 160.268C114.322 160.269 114.321 160.27 114.319 160.272C114.318 160.272 114.317 160.273 114.315 160.274C114.314 160.274 114.313 160.275 114.312 160.276C114.31 160.277 114.308 160.279 114.305 160.28C114.305 160.28 114.304 160.28 114.304 160.281C114.296 160.286 114.288 160.291 114.279 160.296C114.26 160.308 114.24 160.32 114.22 160.331C114.22 160.331 114.22 160.331 114.219 160.332C114.217 160.333 114.214 160.335 114.212 160.337C114.212 160.337 114.211 160.337 114.211 160.337C114.208 160.338 114.205 160.34 114.203 160.341C114.203 160.342 114.203 160.342 114.202 160.342C114.199 160.344 114.197 160.345 114.194 160.347L112.55 161.29" fill="#4E6990"/>
<path fill-rule="evenodd" clip-rule="evenodd" d="M113.163 159.029C113.091 158.858 112.941 158.696 112.709 158.563L107.568 155.614C107.233 155.421 106.791 155.325 106.35 155.325C105.909 155.325 105.467 155.421 105.131 155.614L104.007 156.259L103.606 156.023L105.131 155.148C105.467 154.955 105.909 154.859 106.35 154.859C106.791 154.859 107.233 154.955 107.568 155.148L112.709 158.097C112.711 158.098 112.714 158.1 112.716 158.102C112.717 158.102 112.717 158.102 112.717 158.102C112.746 158.118 112.773 158.135 112.799 158.153C112.799 158.153 112.799 158.153 112.799 158.153C112.801 158.154 112.804 158.156 112.805 158.157C112.806 158.157 112.806 158.158 112.806 158.158C112.808 158.159 112.81 158.16 112.812 158.162C112.813 158.162 112.814 158.163 112.815 158.164C112.816 158.164 112.817 158.165 112.818 158.166C113.173 158.411 113.287 158.734 113.163 159.029" fill="#5B6F91"/>
<path fill-rule="evenodd" clip-rule="evenodd" d="M112.95 161.526L112.55 161.29L114.194 160.347C114.196 160.345 114.199 160.344 114.202 160.342C114.202 160.342 114.202 160.342 114.203 160.341C114.206 160.34 114.208 160.338 114.21 160.337C114.211 160.337 114.211 160.337 114.211 160.337C114.214 160.335 114.217 160.333 114.219 160.332C114.22 160.332 114.22 160.332 114.22 160.332C114.24 160.32 114.259 160.308 114.279 160.296C114.287 160.291 114.296 160.286 114.304 160.281C114.304 160.281 114.305 160.28 114.305 160.28C114.307 160.279 114.309 160.277 114.312 160.276C114.313 160.275 114.314 160.274 114.315 160.274C114.316 160.273 114.317 160.272 114.319 160.272C114.321 160.27 114.322 160.269 114.324 160.268C114.324 160.268 114.325 160.268 114.326 160.267C114.885 159.912 115.205 159.477 115.288 159.029C115.288 159.031 115.289 159.032 115.289 159.034C115.404 159.669 115.04 160.327 114.194 160.813L112.95 161.526" fill="#5B6F91"/>
<path opacity="0.4" fill-rule="evenodd" clip-rule="evenodd" d="M124.628 166.143C124.544 166.026 124.419 165.915 124.253 165.82L119.113 162.87C118.779 162.679 118.342 162.584 117.905 162.584C117.521 162.584 117.137 162.657 116.821 162.803L115.956 163.297L115.646 163.114L116.777 162.465C117.113 162.272 117.555 162.176 117.996 162.176C118.438 162.176 118.879 162.272 119.215 162.465L124.355 165.414C124.587 165.547 124.737 165.709 124.809 165.881C124.941 165.565 124.803 165.22 124.391 164.97C124.922 165.293 125.001 165.773 124.628 166.143M124.388 164.969C124.386 164.967 124.384 164.966 124.382 164.964C124.384 164.966 124.386 164.967 124.388 164.969M124.379 164.963C124.378 164.962 124.377 164.962 124.376 164.961C124.377 164.962 124.378 164.962 124.379 164.963M124.371 164.958C124.37 164.958 124.369 164.957 124.368 164.957C124.369 164.957 124.37 164.958 124.371 164.958M124.362 164.953C124.362 164.953 124.361 164.952 124.36 164.952C124.361 164.952 124.362 164.953 124.362 164.953" fill="#A2DEFF"/>
<path opacity="0.4" fill-rule="evenodd" clip-rule="evenodd" d="M125.984 169.203L124.589 168.381L125.839 167.664C126.686 167.179 127.05 166.52 126.934 165.885C126.947 165.821 126.954 165.757 126.956 165.693V168.645L125.984 169.203M124.188 168.145V168.145L125.84 167.198C125.842 167.196 125.845 167.195 125.847 167.193C125.845 167.195 125.842 167.196 125.84 167.198L124.188 168.145M125.855 167.189C125.855 167.189 125.855 167.189 125.855 167.189H125.855" fill="#A2DEFF"/>
<path fill-rule="evenodd" clip-rule="evenodd" d="M122.722 167.283L115.954 163.297L116.819 162.803C117.135 162.657 117.519 162.584 117.903 162.584C118.34 162.584 118.777 162.679 119.111 162.87L124.251 165.82C124.418 165.915 124.542 166.026 124.626 166.143C124.552 166.216 124.461 166.284 124.353 166.347L122.722 167.283" fill="#5B6F91"/>
<path opacity="0.4" fill-rule="evenodd" clip-rule="evenodd" d="M124.186 168.145L122.722 167.283L124.353 166.347C124.462 166.284 124.553 166.216 124.626 166.143C125 165.773 124.921 165.293 124.39 164.97C124.389 164.969 124.389 164.969 124.388 164.969C124.386 164.967 124.384 164.966 124.382 164.964C124.381 164.964 124.38 164.964 124.379 164.963C124.378 164.962 124.377 164.962 124.376 164.961C124.374 164.96 124.372 164.959 124.371 164.958C124.371 164.958 124.37 164.957 124.369 164.957C124.367 164.956 124.365 164.954 124.363 164.953C124.362 164.953 124.361 164.952 124.361 164.952C124.358 164.951 124.356 164.95 124.354 164.948L119.214 161.999C118.878 161.806 118.436 161.71 117.995 161.71C117.554 161.71 117.112 161.806 116.776 161.999L115.244 162.878L113.78 162.016L115.292 161.148C115.298 161.145 115.304 161.142 115.309 161.139C116.052 160.717 117.024 160.507 117.995 160.507C118.974 160.507 119.953 160.721 120.698 161.148L125.838 164.097C126.602 164.536 126.975 165.116 126.954 165.693C126.952 165.757 126.945 165.821 126.932 165.885C126.932 165.884 126.932 165.882 126.932 165.881C126.844 166.359 126.485 166.822 125.852 167.189C125.852 167.189 125.852 167.189 125.852 167.189C125.85 167.191 125.847 167.192 125.845 167.193C125.843 167.195 125.84 167.196 125.838 167.198L124.186 168.145" fill="#A2DEFF"/>
<path fill-rule="evenodd" clip-rule="evenodd" d="M124.808 165.881C124.737 165.709 124.587 165.547 124.355 165.414L119.215 162.465C118.879 162.272 118.437 162.176 117.996 162.176C117.554 162.176 117.113 162.272 116.777 162.465L115.646 163.114L115.245 162.878L116.777 161.999C117.113 161.806 117.554 161.71 117.996 161.71C118.437 161.71 118.879 161.806 119.215 161.999L124.355 164.948C124.357 164.95 124.359 164.951 124.362 164.952C124.362 164.952 124.363 164.953 124.363 164.953C124.366 164.954 124.368 164.956 124.369 164.957C124.37 164.957 124.371 164.958 124.372 164.958C124.373 164.959 124.375 164.96 124.376 164.961C124.377 164.962 124.378 164.962 124.38 164.962C124.381 164.963 124.382 164.964 124.383 164.964C124.385 164.966 124.387 164.967 124.389 164.969C124.39 164.969 124.39 164.969 124.39 164.969C124.803 165.22 124.941 165.565 124.808 165.881" fill="#5B6F91"/>
<path fill-rule="evenodd" clip-rule="evenodd" d="M124.588 168.381L124.188 168.145L125.839 167.198C125.841 167.196 125.844 167.195 125.846 167.194C125.849 167.192 125.851 167.191 125.853 167.189H125.854C126.486 166.823 126.845 166.359 126.933 165.881C126.933 165.882 126.934 165.884 126.934 165.885C127.049 166.52 126.685 167.179 125.839 167.664L124.588 168.381" fill="#5B6F91"/>
<path opacity="0.3" fill-rule="evenodd" clip-rule="evenodd" d="M130.439 214.136L129.579 213.642L131.223 212.708L132.075 213.197L130.439 214.136M126.511 216.389L126.798 215.223L129.578 213.642L130.438 214.136L126.511 216.389M132.074 213.197L131.222 212.708L138.92 208.332V208.315C138.94 208.891 138.568 209.47 137.804 209.909L132.074 213.197" fill="#92B6E7"/>
<path fill-rule="evenodd" clip-rule="evenodd" d="M136.594 173.466C136.51 173.348 136.385 173.237 136.219 173.142L131.079 170.193C130.745 170.001 130.308 169.906 129.87 169.906C129.487 169.906 129.103 169.98 128.787 170.125L128.159 170.484L127.849 170.301L128.744 169.788C129.08 169.595 129.521 169.499 129.962 169.499C130.404 169.499 130.845 169.595 131.181 169.788L136.321 172.737C136.553 172.87 136.703 173.032 136.775 173.203C136.898 172.909 136.787 172.589 136.438 172.345C136.896 172.666 136.948 173.115 136.594 173.466M136.437 172.344C136.434 172.343 136.432 172.341 136.43 172.339C136.432 172.341 136.434 172.343 136.437 172.344M136.428 172.337C136.427 172.337 136.426 172.336 136.425 172.335C136.426 172.336 136.427 172.337 136.428 172.337M136.42 172.332C136.419 172.331 136.419 172.331 136.419 172.331C136.419 172.331 136.419 172.331 136.42 172.332M136.412 172.327C136.411 172.326 136.411 172.326 136.411 172.326C136.411 172.326 136.411 172.326 136.412 172.327M136.329 172.275C136.329 172.275 136.328 172.275 136.328 172.275C136.328 172.275 136.329 172.275 136.329 172.275" fill="#2D4F80"/>
<path opacity="0.05" fill-rule="evenodd" clip-rule="evenodd" d="M130.773 199.095L132.238 198.254V193.149L136.535 175.714L137.805 174.986C138.651 174.501 139.015 173.843 138.899 173.207C138.912 173.143 138.919 173.078 138.921 173.013V208.332L131.222 212.708L129.578 213.642L126.798 215.223L130.773 199.095ZM137.804 174.52C137.807 174.519 137.809 174.517 137.812 174.516C137.809 174.517 137.807 174.519 137.804 174.52L136.388 175.332L137.804 174.52ZM137.82 174.51C137.818 174.512 137.815 174.514 137.812 174.515C137.815 174.514 137.818 174.512 137.82 174.51ZM137.83 174.505C137.828 174.507 137.825 174.509 137.823 174.51C137.825 174.509 137.828 174.507 137.83 174.505ZM137.891 174.47C137.871 174.482 137.851 174.494 137.831 174.505C137.851 174.493 137.871 174.482 137.891 174.47ZM137.915 174.454C137.907 174.459 137.899 174.465 137.891 174.47C137.899 174.465 137.907 174.459 137.915 174.454ZM137.924 174.45C137.922 174.451 137.919 174.452 137.917 174.454C137.919 174.452 137.922 174.451 137.924 174.45ZM137.93 174.445C137.929 174.446 137.928 174.446 137.926 174.447C137.928 174.447 137.929 174.446 137.93 174.445ZM137.937 174.441C137.936 174.441 137.936 174.441 137.935 174.442C137.936 174.441 137.936 174.441 137.937 174.441Z" fill="white"/>
<path fill-rule="evenodd" clip-rule="evenodd" d="M128.157 170.484L128.786 170.125C129.102 169.979 129.486 169.906 129.869 169.906C130.307 169.906 130.744 170.001 131.078 170.193L136.218 173.142C136.384 173.237 136.509 173.348 136.593 173.465C136.519 173.538 136.428 173.606 136.32 173.669L134.924 174.469L128.157 170.484Z" fill="#5B6F91"/>
<path fill-rule="evenodd" clip-rule="evenodd" d="M136.389 175.332L134.924 174.47L136.32 173.669C136.429 173.606 136.52 173.538 136.593 173.465C136.947 173.115 136.895 172.665 136.437 172.344C136.434 172.343 136.432 172.341 136.429 172.339C136.429 172.338 136.428 172.338 136.426 172.337C136.426 172.337 136.425 172.336 136.424 172.335C136.422 172.334 136.42 172.333 136.418 172.331C136.418 172.331 136.417 172.331 136.417 172.331C136.415 172.33 136.413 172.328 136.411 172.327C136.411 172.326 136.411 172.326 136.41 172.326C136.385 172.309 136.357 172.292 136.329 172.275C136.329 172.275 136.328 172.275 136.328 172.275C136.326 172.273 136.323 172.272 136.321 172.271L131.18 169.322C130.845 169.129 130.403 169.032 129.962 169.032C129.521 169.032 129.079 169.129 128.743 169.322L127.447 170.065L125.982 169.203L126.955 168.645L127.259 168.47C128.004 168.043 128.983 167.829 129.962 167.829C130.94 167.829 131.919 168.043 132.664 168.47L137.804 171.419C138.568 171.858 138.941 172.437 138.921 173.013C138.918 173.078 138.911 173.143 138.899 173.207C138.899 173.206 138.899 173.204 138.898 173.203C138.816 173.65 138.496 174.086 137.937 174.441C137.936 174.441 137.935 174.441 137.935 174.442C137.933 174.443 137.931 174.444 137.93 174.445C137.928 174.446 137.927 174.447 137.926 174.447C137.925 174.448 137.923 174.449 137.923 174.45C137.92 174.451 137.918 174.452 137.916 174.454C137.916 174.454 137.915 174.454 137.915 174.454C137.907 174.459 137.898 174.464 137.89 174.47C137.87 174.482 137.851 174.493 137.831 174.505C137.83 174.505 137.83 174.505 137.83 174.505C137.828 174.507 137.825 174.509 137.822 174.51C137.822 174.51 137.822 174.51 137.821 174.51C137.819 174.512 137.816 174.514 137.814 174.515C137.813 174.515 137.813 174.515 137.813 174.515C137.81 174.517 137.807 174.519 137.804 174.52L136.389 175.332" fill="#4E6990"/>
<path fill-rule="evenodd" clip-rule="evenodd" d="M130.772 199.095L132.238 193.149V198.254L130.772 199.095" fill="#5B6F91"/>
<path fill-rule="evenodd" clip-rule="evenodd" d="M136.774 173.203C136.702 173.032 136.552 172.87 136.32 172.737L131.18 169.788C130.844 169.595 130.402 169.499 129.961 169.499C129.52 169.499 129.078 169.595 128.742 169.788L127.847 170.301L127.446 170.065L128.742 169.322C129.078 169.129 129.52 169.032 129.961 169.032C130.402 169.032 130.844 169.129 131.18 169.322L136.32 172.271C136.322 172.272 136.325 172.274 136.328 172.275C136.328 172.275 136.328 172.275 136.328 172.275C136.356 172.292 136.384 172.309 136.41 172.326C136.41 172.326 136.41 172.326 136.411 172.327C136.412 172.328 136.415 172.33 136.417 172.331C136.417 172.331 136.417 172.331 136.418 172.331C136.419 172.333 136.421 172.334 136.423 172.335C136.424 172.336 136.425 172.337 136.426 172.337C136.427 172.338 136.428 172.338 136.429 172.339C136.431 172.341 136.433 172.343 136.436 172.344C136.785 172.589 136.897 172.909 136.774 173.203" fill="#5B6F91"/>
<path fill-rule="evenodd" clip-rule="evenodd" d="M136.535 175.714L136.599 175.456L136.389 175.332L137.804 174.52C137.807 174.519 137.81 174.517 137.813 174.516C137.813 174.516 137.813 174.515 137.814 174.515C137.816 174.514 137.819 174.512 137.821 174.51C137.822 174.51 137.822 174.51 137.822 174.51C137.825 174.509 137.828 174.507 137.83 174.505C137.83 174.505 137.83 174.505 137.83 174.505C137.85 174.494 137.87 174.482 137.89 174.47C137.898 174.465 137.906 174.459 137.914 174.454C137.915 174.454 137.915 174.454 137.916 174.454C137.918 174.452 137.92 174.451 137.922 174.45C137.923 174.449 137.925 174.448 137.926 174.447C137.927 174.446 137.928 174.446 137.929 174.445C137.931 174.444 137.933 174.443 137.934 174.442C137.935 174.441 137.935 174.441 137.936 174.441C138.496 174.086 138.816 173.65 138.898 173.203C138.899 173.204 138.899 173.206 138.899 173.207C139.014 173.843 138.65 174.501 137.804 174.986L136.535 175.714" fill="#5B6F91"/>
</g>
<mask id="mask1" mask-type="alpha" maskUnits="userSpaceOnUse" x="47" y="151" width="92" height="86">
<path fill-rule="evenodd" clip-rule="evenodd" d="M125.989 218.507L136.6 175.456L96.5037 151.838L47.6162 169.906L85.133 218.556C85.133 218.556 116.108 236.097 115.928 236.622C115.747 237.147 138.39 223.318 138.39 223.318L125.989 218.507" fill="white"/>
</mask>
<g mask="url(#mask1)">
<path fill-rule="evenodd" clip-rule="evenodd" d="M114.194 192.634C115.684 193.49 115.684 194.881 114.194 195.736L88.8639 210.268C88.4541 210.503 87.79 210.503 87.3802 210.268C86.9709 210.033 86.9709 209.652 87.3802 209.417L112.71 194.884C113.382 194.499 113.382 193.871 112.71 193.485L110.255 192.077C110.528 191.67 110.776 191.245 111.018 190.812L114.194 192.634" fill="#92B6E7"/>
<path fill-rule="evenodd" clip-rule="evenodd" d="M78.321 204.218L103.65 189.686C105.141 188.831 107.565 188.83 109.055 189.686L111.019 190.812C110.778 191.245 110.53 191.67 110.257 192.077L107.571 190.537C106.9 190.151 105.806 190.151 105.134 190.537L79.8042 205.069C79.3945 205.305 78.7308 205.305 78.321 205.069C77.9112 204.835 77.9112 204.454 78.321 204.218" fill="#92B6E7"/>
<path fill-rule="evenodd" clip-rule="evenodd" d="M78.016 204.674L78.0137 169.279L104.558 154.574L108.27 154.331L111.86 156.642L114.063 158.547L88.2003 199.303L79.7564 204.248L78.016 204.674" fill="#92B6E7"/>
<path fill-rule="evenodd" clip-rule="evenodd" d="M87.8317 209.144L79.8975 204.592V170.385L88.0767 174.163L87.8317 209.144" fill="#76A9CF"/>
<path fill-rule="evenodd" clip-rule="evenodd" d="M115.311 158.821V194.158L87.4448 209.997L87.0732 209.849V174.46L115.311 158.821" fill="#D4EAF2"/>
<path fill-rule="evenodd" clip-rule="evenodd" d="M99.6388 159.114L105.177 155.951C105.853 155.64 106.842 155.66 107.469 156.02L112.608 158.968C113.007 159.197 113.167 159.51 113.093 159.808L99.0992 168.118L87.8588 174.974L79.8975 170.385L99.6388 159.114" fill="#FFFFFE"/>
<path fill-rule="evenodd" clip-rule="evenodd" d="M88.0762 173.905V210.442C87.8233 210.436 87.5736 210.379 87.3803 210.268C87.1787 210.153 87.0774 210.001 87.0742 209.85L87.0732 209.849V174.46L88.0762 173.905" fill="#92B6E7"/>
<path fill-rule="evenodd" clip-rule="evenodd" d="M78.0137 169.721V169.279H78.1551L78.1985 169.579L78.0137 169.721" fill="#FFFFFE"/>
<path fill-rule="evenodd" clip-rule="evenodd" d="M87.0752 174.919V174.467L87.2119 174.658L87.0752 174.919" fill="#FFFFFE"/>
<path fill-rule="evenodd" clip-rule="evenodd" d="M88.8656 174.879L114.195 160.347C115.685 159.492 115.685 158.101 114.195 157.245L109.055 154.296C107.565 153.442 105.141 153.442 103.65 154.296L78.321 168.829C77.9112 169.064 77.9112 169.446 78.321 169.681C78.7308 169.916 79.3945 169.916 79.8042 169.681L105.134 155.148C105.806 154.762 106.9 154.762 107.571 155.148L112.712 158.097C113.384 158.482 113.384 159.11 112.712 159.495L87.3819 174.028C86.9726 174.263 86.9726 174.644 87.3819 174.88C87.7917 175.114 88.4558 175.114 88.8656 174.879" fill="#D4EAF2"/>
<path fill-rule="evenodd" clip-rule="evenodd" d="M95.4658 191.633L108.628 184.081V170.968L95.4658 178.52V191.633" fill="#FFFFFE"/>
<path fill-rule="evenodd" clip-rule="evenodd" d="M78.3203 169.681C78.7301 169.916 79.3938 169.916 79.8036 169.681L105.133 155.148C105.805 154.762 106.899 154.762 107.571 155.148L112.711 158.097C113.151 158.349 113.301 158.705 113.165 159.029C113.093 158.858 112.943 158.696 112.711 158.563L107.571 155.614C106.899 155.229 105.805 155.229 105.133 155.614L79.8036 170.147C79.3938 170.382 78.7301 170.382 78.3203 170.147C78.01 169.969 77.9353 169.707 78.0958 169.488C78.1472 169.558 78.2209 169.624 78.3203 169.681" fill="#FFFFFE"/>
<path fill-rule="evenodd" clip-rule="evenodd" d="M87.3797 174.88C87.7895 175.114 88.4536 175.114 88.8634 174.879L114.193 160.347C114.835 159.979 115.199 159.511 115.288 159.029C115.405 159.666 115.041 160.326 114.193 160.813L88.8634 175.346C88.4536 175.581 87.7895 175.581 87.3797 175.346C87.0693 175.168 86.9951 174.906 87.1552 174.687C87.2065 174.757 87.2808 174.823 87.3797 174.88" fill="#FFFFFE"/>
<path fill-rule="evenodd" clip-rule="evenodd" d="M125.839 199.486C127.328 200.341 127.328 201.732 125.839 202.587L100.509 217.12C100.099 217.355 99.4349 217.355 99.0251 217.12C98.6153 216.884 98.6153 216.503 99.0251 216.268L124.354 201.736C125.027 201.35 125.027 200.723 124.355 200.337L121.9 198.929C122.173 198.522 122.421 198.097 122.663 197.664L125.839 199.486" fill="#0288D1"/>
<path fill-rule="evenodd" clip-rule="evenodd" d="M89.9636 211.07L115.293 196.537C116.784 195.682 119.208 195.682 120.698 196.537L122.662 197.664C122.42 198.097 122.172 198.521 121.9 198.929L119.214 197.388C118.542 197.002 117.449 197.002 116.777 197.388L91.4468 211.921C91.0375 212.156 90.3734 212.156 89.9636 211.921C89.5538 211.686 89.5538 211.304 89.9636 211.07" fill="#0288D1"/>
<path fill-rule="evenodd" clip-rule="evenodd" d="M89.6591 211.525L89.6572 176.13L116.201 161.426L119.913 161.182L123.503 163.493L125.706 165.398L99.8434 206.154L91.3995 211.099L89.6591 211.525" fill="#0288D1"/>
<path fill-rule="evenodd" clip-rule="evenodd" d="M99.4782 215.995L91.5439 211.444V177.236L99.7227 181.014L99.4782 215.995" fill="#A2DEFF"/>
<path fill-rule="evenodd" clip-rule="evenodd" d="M126.956 165.672V201.009L99.0903 216.849L98.7188 216.701V181.312L126.956 165.672" fill="#A2DEFF"/>
<path fill-rule="evenodd" clip-rule="evenodd" d="M111.285 165.964L116.823 162.803C117.499 162.491 118.488 162.511 119.115 162.87L124.255 165.82C124.653 166.048 124.813 166.361 124.74 166.659L110.745 174.969L99.5048 181.826L91.5439 177.236L111.285 165.964" fill="#FFFFFE"/>
<path fill-rule="evenodd" clip-rule="evenodd" d="M99.7213 180.756V217.293C99.4683 217.287 99.2186 217.23 99.0254 217.12C98.8238 217.004 98.7225 216.853 98.7197 216.702L98.7188 216.701V181.312L99.7213 180.756" fill="#0288D1"/>
<path fill-rule="evenodd" clip-rule="evenodd" d="M89.6572 176.572V176.13H89.7982L89.8416 176.43L89.6572 176.572" fill="#FFFFFE"/>
<path fill-rule="evenodd" clip-rule="evenodd" d="M98.7188 181.77V181.318L98.8555 181.51L98.7188 181.77" fill="#FFFFFE"/>
<path fill-rule="evenodd" clip-rule="evenodd" d="M100.509 181.73L125.838 167.198C127.328 166.343 127.328 164.952 125.838 164.097L120.698 161.148C119.208 160.293 116.784 160.293 115.293 161.148L89.9636 175.681C89.5538 175.916 89.5538 176.297 89.9636 176.532C90.3734 176.767 91.0375 176.767 91.4468 176.532L116.777 161.999C117.449 161.613 118.542 161.613 119.214 161.999L124.354 164.948C125.026 165.334 125.026 165.961 124.354 166.347L99.0245 180.879C98.6152 181.115 98.6147 181.496 99.0245 181.73C99.4343 181.966 100.099 181.966 100.509 181.73" fill="#A2DEFF"/>
<path fill-rule="evenodd" clip-rule="evenodd" d="M107.109 198.484L120.272 190.932V177.82L107.109 185.371V198.484" fill="#FFFFFE"/>
<path fill-rule="evenodd" clip-rule="evenodd" d="M89.9637 176.532C90.3735 176.767 91.0376 176.767 91.4469 176.532L116.777 161.999C117.449 161.613 118.542 161.613 119.214 161.999L124.354 164.948C124.794 165.201 124.944 165.556 124.808 165.881C124.737 165.709 124.586 165.547 124.354 165.414L119.214 162.465C118.542 162.08 117.449 162.08 116.777 162.465L91.4469 176.998C91.0376 177.233 90.3735 177.233 89.9637 176.998C89.6533 176.82 89.5791 176.558 89.7392 176.339C89.7905 176.409 89.8643 176.475 89.9637 176.532" fill="#FFFFFE"/>
<path fill-rule="evenodd" clip-rule="evenodd" d="M99.025 181.731C99.4348 181.966 100.099 181.966 100.509 181.731L125.839 167.198C126.48 166.829 126.844 166.362 126.933 165.881C127.051 166.517 126.687 167.177 125.839 167.664L100.509 182.197C100.099 182.432 99.4348 182.432 99.025 182.197C98.7146 182.019 98.6409 181.757 98.8005 181.538C98.8518 181.608 98.9261 181.673 99.025 181.731" fill="#FFFFFE"/>
<path fill-rule="evenodd" clip-rule="evenodd" d="M137.806 206.808C139.296 207.663 139.296 209.054 137.806 209.909L112.476 224.442C112.067 224.677 111.402 224.677 110.993 224.442C110.583 224.206 110.583 223.826 110.993 223.59L136.322 209.058C136.994 208.672 136.994 208.045 136.323 207.659L133.868 206.251C134.141 205.844 134.388 205.419 134.63 204.986L137.806 206.808" fill="#92B6E7"/>
<path fill-rule="evenodd" clip-rule="evenodd" d="M101.93 218.392L127.26 203.859C128.75 203.005 131.175 203.004 132.665 203.859L134.629 204.986C134.387 205.419 134.139 205.844 133.866 206.251L131.181 204.71C130.509 204.325 129.416 204.325 128.744 204.71L103.414 219.243C103.004 219.478 102.34 219.478 101.93 219.243C101.521 219.008 101.521 218.627 101.93 218.392" fill="#92B6E7"/>
<path fill-rule="evenodd" clip-rule="evenodd" d="M101.625 218.848L101.623 183.453L128.167 168.748L131.879 168.505L135.469 170.815L137.672 172.721L111.809 213.476L103.366 218.422L101.625 218.848" fill="#92B6E7"/>
<path fill-rule="evenodd" clip-rule="evenodd" d="M111.443 223.318L103.509 218.766V184.558L111.688 188.337L111.443 223.318" fill="#76A9CF"/>
<path fill-rule="evenodd" clip-rule="evenodd" d="M138.923 172.994V208.332L111.057 224.171L110.686 224.023V188.634L138.923 172.994" fill="#D7E8FE"/>
<path fill-rule="evenodd" clip-rule="evenodd" d="M123.25 173.287L128.788 170.125C129.464 169.813 130.453 169.833 131.08 170.193L136.22 173.142C136.618 173.37 136.778 173.684 136.705 173.981L122.711 182.291L111.47 189.148L103.509 184.558L123.25 173.287" fill="#FFFFFE"/>
<path fill-rule="evenodd" clip-rule="evenodd" d="M111.689 188.078V224.615C111.436 224.609 111.186 224.553 110.993 224.442C110.791 224.326 110.69 224.175 110.686 224.024L110.686 224.023V188.634L111.689 188.078" fill="#92B6E7"/>
<path fill-rule="evenodd" clip-rule="evenodd" d="M101.623 183.894V183.453H101.764L101.808 183.753L101.623 183.894" fill="#FFFFFE"/>
<path fill-rule="evenodd" clip-rule="evenodd" d="M110.686 189.092V188.64L110.822 188.832L110.686 189.092" fill="#FFFFFE"/>
<path fill-rule="evenodd" clip-rule="evenodd" d="M112.475 189.053L137.805 174.521C139.295 173.665 139.295 172.274 137.805 171.419L132.665 168.47C131.175 167.616 128.75 167.616 127.26 168.47L101.93 183.003C101.521 183.238 101.521 183.619 101.93 183.855C102.34 184.089 103.004 184.089 103.414 183.854L128.744 169.322C129.416 168.936 130.509 168.936 131.181 169.322L136.321 172.271C136.993 172.656 136.993 173.284 136.321 173.669L110.991 188.202C110.582 188.437 110.582 188.818 110.991 189.053C111.401 189.288 112.065 189.288 112.475 189.053" fill="#D4EAF2"/>
<path fill-rule="evenodd" clip-rule="evenodd" d="M119.077 205.806L132.24 198.254V185.142L119.077 192.694V205.806" fill="#FFFFFE"/>
<path fill-rule="evenodd" clip-rule="evenodd" d="M101.931 183.854C102.341 184.089 103.005 184.089 103.415 183.854L128.745 169.322C129.417 168.936 130.511 168.936 131.182 169.322L136.323 172.271C136.762 172.523 136.913 172.879 136.776 173.203C136.704 173.032 136.555 172.87 136.323 172.737L131.182 169.788C130.511 169.402 129.417 169.402 128.745 169.788L103.415 184.32C103.005 184.555 102.341 184.555 101.931 184.32C101.621 184.142 101.547 183.88 101.707 183.661C101.758 183.732 101.833 183.797 101.931 183.854" fill="#FFFFFE"/>
<path fill-rule="evenodd" clip-rule="evenodd" d="M110.992 189.053C111.401 189.288 112.066 189.288 112.475 189.053L137.806 174.521C138.447 174.152 138.811 173.684 138.9 173.203C139.017 173.839 138.654 174.5 137.806 174.986L112.475 189.519C112.066 189.754 111.401 189.754 110.992 189.519C110.681 189.341 110.608 189.079 110.768 188.86C110.818 188.931 110.893 188.996 110.992 189.053" fill="#FFFFFE"/>
</g>
<path opacity="0.05" fill-rule="evenodd" clip-rule="evenodd" d="M100.019 293.001C99.3631 293.001 98.7064 292.858 98.2056 292.57C97.2036 291.996 97.2036 291.064 98.2056 290.489L144.99 263.637C145.491 263.349 146.147 263.206 146.803 263.206C147.46 263.206 148.116 263.349 148.617 263.637C149.619 264.211 149.619 265.143 148.617 265.717L101.833 292.571C101.332 292.858 100.676 293.001 100.019 293.001" fill="#000E4B"/>
<path fill-rule="evenodd" clip-rule="evenodd" d="M156.614 249.091V249.091C156.57 249.015 156.481 248.976 156.395 248.995L153.564 249.605L154.679 251.489L156.592 249.328C156.65 249.262 156.659 249.166 156.614 249.091" fill="#D4EAF2"/>
<path fill-rule="evenodd" clip-rule="evenodd" d="M155.497 250.48C155.494 250.075 155.204 249.583 154.848 249.384C154.684 249.291 154.536 249.28 154.424 249.332C151.154 249.305 147.937 250.16 145.118 251.807L144.913 251.927L148.428 257.87L149.466 257.186C151.663 255.738 153.515 253.83 154.892 251.596L155.336 250.875C155.437 250.802 155.499 250.668 155.497 250.48" fill="#199BE2"/>
<path fill-rule="evenodd" clip-rule="evenodd" d="M149.136 256.286C149.124 254.732 148.01 252.851 146.65 252.084C145.289 251.318 144.196 251.956 144.208 253.51C144.221 255.065 145.334 256.946 146.694 257.712C148.055 258.479 149.147 257.84 149.136 256.286" fill="#D7E8FE"/>
<path fill-rule="evenodd" clip-rule="evenodd" d="M127.566 270.786L148.429 257.87L144.914 251.927L123.413 263.764L127.566 270.786" fill="#D7E8FE"/>
<path fill-rule="evenodd" clip-rule="evenodd" d="M128.4 268.915C128.386 267.078 127.071 264.855 125.463 263.95C123.855 263.044 122.564 263.798 122.578 265.635C122.593 267.471 123.907 269.694 125.515 270.6C127.123 271.506 128.415 270.751 128.4 268.915" fill="#D4EAF2"/>
<path fill-rule="evenodd" clip-rule="evenodd" d="M127.21 269.61C127.196 267.774 125.881 265.551 124.274 264.645C122.666 263.739 121.374 264.493 121.389 266.33C121.403 268.166 122.718 270.39 124.326 271.295C125.933 272.201 127.225 271.447 127.21 269.61" fill="#D4EAF2"/>
<path fill-rule="evenodd" clip-rule="evenodd" d="M98.7759 287.603L126.376 271.481L122.223 264.459L94.6221 280.581L98.7759 287.603" fill="#D7E8FE"/>
<path fill-rule="evenodd" clip-rule="evenodd" d="M99.6101 285.733C99.5961 283.896 98.2808 281.673 96.673 280.767C95.0652 279.861 93.7737 280.616 93.7882 282.452C93.8022 284.288 95.1179 286.511 96.7253 287.418C98.3327 288.324 99.6245 287.569 99.6101 285.733" fill="#D4EAF2"/>
<path fill-rule="evenodd" clip-rule="evenodd" d="M98.7411 285.281C98.6781 284.197 97.7895 282.847 96.7571 282.265C95.7247 281.684 94.9397 282.091 95.0036 283.175C95.0667 284.259 95.9553 285.609 96.9877 286.191C98.0196 286.772 98.8051 286.365 98.7411 285.281" fill="#199BE2"/>
<path fill-rule="evenodd" clip-rule="evenodd" d="M128.61 268.792C128.596 266.956 127.281 264.733 125.673 263.827C125.026 263.462 124.431 263.371 123.951 263.507C124.472 262.965 125.328 262.901 126.303 263.45C127.91 264.356 129.226 266.579 129.24 268.415C129.249 269.512 128.789 270.218 128.077 270.42C128.416 270.068 128.616 269.516 128.61 268.792" fill="#FFFFFE"/>
<path fill-rule="evenodd" clip-rule="evenodd" d="M128.611 268.792C128.597 266.956 127.282 264.733 125.675 263.827C124.871 263.374 124.146 263.336 123.624 263.641L122.06 264.555L122.805 265.814C122.941 267.485 124.066 269.387 125.468 270.317L126.213 271.576L127.777 270.663C128.3 270.358 128.619 269.711 128.611 268.792" fill="#199BE2"/>
<path fill-rule="evenodd" clip-rule="evenodd" d="M127.047 269.706C127.033 267.869 125.717 265.646 124.11 264.74C122.502 263.835 121.211 264.589 121.225 266.425C121.24 268.262 122.554 270.485 124.162 271.391C125.77 272.297 127.061 271.542 127.047 269.706" fill="#D7E8FE"/>
<path fill-rule="evenodd" clip-rule="evenodd" d="M97.2678 285.96L95.4756 282.931L89.6257 286.348C88.7833 286.84 88.5023 287.917 88.997 288.753C89.4922 289.59 90.5755 289.87 91.4174 289.378L97.2678 285.96" fill="#A2DEFF"/>
<path fill-rule="evenodd" clip-rule="evenodd" d="M97.6282 285.153C97.6221 284.361 97.0546 283.401 96.361 283.011C95.667 282.62 95.1102 282.946 95.1163 283.738C95.1228 284.53 95.6899 285.49 96.3839 285.88C97.077 286.271 97.6342 285.946 97.6282 285.153" fill="#A2DEFF"/>
<path fill-rule="evenodd" clip-rule="evenodd" d="M104.13 274.459L103.253 273.965C102.749 273.68 102.083 273.752 101.377 274.164L98.3701 275.92C97.8031 276.251 97.3452 277.053 97.3503 277.707L97.362 279.203C97.3639 279.454 97.2407 279.742 97.0596 279.954L97.1721 280.647L96.423 280.22L96.4248 280.219C96.3161 280.164 96.247 280.039 96.2456 279.855L96.2335 278.36C96.2232 276.996 97.1772 275.324 98.3603 274.632L101.366 272.877C102.371 272.29 103.319 272.19 104.036 272.593L104.913 273.088C105.417 273.371 106.083 273.3 106.79 272.888L118.907 265.81C119.064 265.718 119.205 265.71 119.308 265.771V265.77L120.055 266.195L119.415 266.44C119.327 266.707 119.139 266.968 118.917 267.097L106.8 274.175C105.795 274.762 104.847 274.863 104.13 274.459" fill="#199BE2"/>
<path fill-rule="evenodd" clip-rule="evenodd" d="M104.012 274.396C103.508 274.113 102.842 274.183 102.136 274.596L99.1289 276.352C98.5618 276.683 98.104 277.485 98.1091 278.139L98.1208 279.635C98.1236 279.99 97.8762 280.424 97.5677 280.604C97.2597 280.784 97.0072 280.642 97.0044 280.287L96.9923 278.791C96.982 277.427 97.936 275.756 99.1191 275.065L102.125 273.309C103.13 272.722 104.078 272.621 104.794 273.025L105.671 273.519C106.175 273.803 106.842 273.732 107.549 273.319L119.666 266.241C119.975 266.061 120.227 266.203 120.229 266.559C120.232 266.914 119.985 267.348 119.676 267.528L107.558 274.607C106.554 275.194 105.606 275.294 104.889 274.891L104.012 274.396" fill="#199BE2"/>
<path fill-rule="evenodd" clip-rule="evenodd" d="M98.0714 278.386L98.0826 279.881L98.0779 279.912C98.1059 279.818 98.1213 279.724 98.1204 279.634L98.1087 278.139C98.1087 278.097 98.1152 278.052 98.1185 278.009C98.09 278.137 98.07 278.264 98.0714 278.386" fill="#FFFFFE"/>
<path opacity="0.2" fill-rule="evenodd" clip-rule="evenodd" d="M87.57 254.492C85.1352 254.492 82.7003 253.958 80.8427 252.893C77.1267 250.76 77.1267 247.304 80.8423 245.173C82.6998 244.107 85.1347 243.574 87.5696 243.574C90.0049 243.574 92.4398 244.107 94.2978 245.173C98.0138 247.304 98.0138 250.76 94.2983 252.893C92.4403 253.958 90.0054 254.492 87.57 254.492" fill="#000E4B"/>
<path fill-rule="evenodd" clip-rule="evenodd" d="M98.3964 244.364V241.344H97.8228C97.307 240.462 96.4492 239.632 95.2255 238.93C90.9989 236.505 84.1451 236.505 79.9175 238.93C78.6938 239.632 77.836 240.462 77.3212 241.344H76.748V244.347H76.7485C76.7415 245.942 77.7968 247.538 79.918 248.755C84.1451 251.181 90.9989 251.181 95.2259 248.755C97.3397 247.543 98.3964 245.953 98.3964 244.364" fill="#0288D1"/>
<path fill-rule="evenodd" clip-rule="evenodd" d="M95.2256 245.735C90.9985 248.161 84.1447 248.161 79.9172 245.735C75.6906 243.31 75.6901 239.378 79.9172 236.952C84.1443 234.527 90.9985 234.527 95.2251 236.953C99.4527 239.378 99.4527 243.31 95.2256 245.735" fill="#A2DEFF"/>
<path fill-rule="evenodd" clip-rule="evenodd" d="M95.2244 245.735C90.9973 248.16 84.1435 248.16 79.9165 245.735C77.8909 244.573 76.8464 243.064 76.7624 241.541C76.6709 243.196 77.7154 244.867 79.9165 246.13C84.1435 248.556 90.9973 248.556 95.2244 246.13C97.4259 244.867 98.4695 243.196 98.3785 241.541C98.294 243.064 97.2504 244.573 95.2244 245.735" fill="#FFFFFE"/>
<path fill-rule="evenodd" clip-rule="evenodd" d="M82.3545 243.4C82.172 243.296 82.0689 243.153 82.0693 243.004L82.0801 238.957C82.0805 238.649 82.5179 238.399 83.0555 238.399C83.5941 238.399 84.0286 238.65 84.0282 238.959L84.0193 242.314L93.8181 241.122C94.345 241.058 94.8617 241.251 94.9732 241.553C95.0852 241.855 94.7487 242.152 94.2227 242.216L83.2455 243.551C82.9575 243.586 82.6579 243.545 82.4292 243.438L82.3545 243.4" fill="#FFFFFE"/>
<path opacity="0.05" fill-rule="evenodd" clip-rule="evenodd" d="M31.628 209.986L23.5859 205.372L31.628 200.758L39.67 205.372L31.628 209.986" fill="#000E4B"/>
<path fill-rule="evenodd" clip-rule="evenodd" d="M39.6685 199.514L31.627 204.128V194.9L39.6685 190.286V199.514" fill="#0288D1"/>
<path fill-rule="evenodd" clip-rule="evenodd" d="M31.628 194.9L23.5859 190.286L31.6275 185.672L39.6696 190.287L31.628 194.9" fill="#A2DEFF"/>
<path fill-rule="evenodd" clip-rule="evenodd" d="M31.628 204.128L23.5859 199.514V190.286L31.628 194.9V204.128" fill="#0288D1"/>
<path fill-rule="evenodd" clip-rule="evenodd" d="M28.733 199.143L26.4834 197.852V195.272L28.733 196.562V199.143" fill="#FFFFFE"/>
<path fill-rule="evenodd" clip-rule="evenodd" d="M34.408 261.219L42.7404 256.308C43.4423 255.817 43.993 254.827 43.994 253.998L43.9996 253.348C44 252.822 43.7788 252.482 43.4376 252.384L27.0352 261.452L13.6777 268.631L13.6899 273.021L34.408 261.219" fill="#FFFFFE"/>
<path fill-rule="evenodd" clip-rule="evenodd" d="M13.2666 275.272L13.7095 275.526L13.7912 275.386L13.5154 275.171L13.2666 275.272" fill="#FFFFFE"/>
<path fill-rule="evenodd" clip-rule="evenodd" d="M13.2793 269.44L13.7329 269.7L13.6195 269.455L13.2793 269.44" fill="#FFFFFE"/>
<path fill-rule="evenodd" clip-rule="evenodd" d="M0 251.159L16.0995 241.94L30.0623 249.968L13.9629 259.186L0 251.159" fill="#FFFFFE"/>
<path opacity="0.05" d="M80 0H150V333H80V0Z" fill="#199BE2"/>
<g opacity="0.3" clip-path="url(#clip0)">
<path opacity="0.3" fill-rule="evenodd" clip-rule="evenodd" d="M82.9735 31.5302L85.5637 39.5028H93.9471L87.1652 44.4301L89.7554 52.4037L82.9735 47.4763L76.1917 52.4037L78.7818 44.4301L72 39.5028H80.3834L82.9735 31.5302Z" stroke="#222222" stroke-width="2" stroke-linecap="round" stroke-linejoin="round"/>
<g opacity="0.3">
<path d="M146.974 121.096C147.994 121.096 148.82 120.269 148.82 119.25C148.82 118.23 147.994 117.404 146.974 117.404C145.954 117.404 145.128 118.23 145.128 119.25C145.128 120.269 145.954 121.096 146.974 121.096Z" fill="#222222"/>
<path d="M141.435 121.096C142.455 121.096 143.281 120.269 143.281 119.25C143.281 118.23 142.455 117.404 141.435 117.404C140.415 117.404 139.589 118.23 139.589 119.25C139.589 120.269 140.415 121.096 141.435 121.096Z" fill="#222222"/>
<path d="M135.897 121.096C136.917 121.096 137.743 120.269 137.743 119.25C137.743 118.23 136.917 117.404 135.897 117.404C134.877 117.404 134.051 118.23 134.051 119.25C134.051 120.269 134.877 121.096 135.897 121.096Z" fill="#222222"/>
</g>
<rect opacity="0.3" x="105.128" y="95.4087" width="14.7692" height="14.7692" rx="7.38461" stroke="#222222" stroke-width="2"/>
</g>
<defs>
<clipPath id="clip0">
<rect width="70" height="158.27" fill="white" transform="translate(80 31.5302)"/>
</clipPath>
</defs>
</svg>
