<svg width="91" height="108" viewBox="0 0 91 108" fill="none" xmlns="http://www.w3.org/2000/svg">
<path d="M0 107.741V92.6469H6.4549C7.41766 92.6469 8.2929 92.8625 9.08062 93.2938C9.86833 93.7251 10.4956 94.3217 10.9624 95.0836C11.4292 95.8455 11.6626 96.7296 11.6626 97.7358C11.6626 98.7278 11.4292 99.6047 10.9624 100.367C10.5102 101.128 9.88292 101.725 9.08062 102.156C8.2929 102.588 7.40307 102.803 6.41113 102.803H2.10058V107.741H0ZM2.10058 100.97H6.17044C6.7977 100.97 7.3666 100.848 7.87716 100.604C8.38772 100.345 8.79616 99.9712 9.1025 99.4825C9.40883 98.9937 9.562 98.4115 9.562 97.7358C9.562 97.0458 9.40883 96.4564 9.1025 95.9677C8.79616 95.4789 8.38772 95.1123 7.87716 94.8679C7.3666 94.6092 6.80499 94.4798 6.19232 94.4798H2.10058V100.97Z" fill="url(#paint0_linear)"/>
<path d="M18.9469 108C17.8091 108 16.7953 107.748 15.9054 107.245C15.0302 106.728 14.3373 106.038 13.8267 105.175C13.3308 104.298 13.0828 103.321 13.0828 102.243C13.0828 101.164 13.3308 100.194 13.8267 99.3315C14.3373 98.4546 15.0302 97.7646 15.9054 97.2615C16.7953 96.7439 17.8091 96.4852 18.9469 96.4852C20.0847 96.4852 21.0912 96.7439 21.9665 97.2615C22.8563 97.7646 23.5492 98.4546 24.0452 99.3315C24.5557 100.194 24.811 101.164 24.811 102.243C24.811 103.321 24.5557 104.298 24.0452 105.175C23.5492 106.038 22.8563 106.728 21.9665 107.245C21.0912 107.748 20.0847 108 18.9469 108ZM18.9469 106.296C19.72 106.296 20.391 106.117 20.9599 105.757C21.5289 105.398 21.9738 104.916 22.2947 104.313C22.6156 103.695 22.7761 103.004 22.7761 102.243C22.7761 101.481 22.6156 100.798 22.2947 100.194C21.9738 99.5759 21.5289 99.0872 20.9599 98.7278C20.391 98.3684 19.72 98.1887 18.9469 98.1887C18.1884 98.1887 17.5173 98.3684 16.9338 98.7278C16.3649 99.0872 15.92 99.5759 15.5991 100.194C15.2782 100.798 15.1177 101.481 15.1177 102.243C15.1177 103.004 15.2782 103.695 15.5991 104.313C15.92 104.916 16.3649 105.398 16.9338 105.757C17.5173 106.117 18.1884 106.296 18.9469 106.296Z" fill="url(#paint1_linear)"/>
<path d="M27.2393 107.741V106.038H32.5782C33.1034 106.038 33.5118 105.88 33.8036 105.563C34.1099 105.233 34.2631 104.859 34.2631 104.442C34.2631 104.054 34.1245 103.716 33.8473 103.429C33.5848 103.127 33.1982 102.976 32.6877 102.976H30.4339C29.3544 102.976 28.4865 102.717 27.8301 102.199C27.1882 101.668 26.8673 100.898 26.8673 99.8922C26.8673 99.3315 27.0059 98.814 27.283 98.3396C27.5602 97.8652 27.9468 97.4843 28.4427 97.1968C28.9387 96.8949 29.5076 96.7439 30.1495 96.7439H35.2915V98.4474H30.3464C29.9088 98.4474 29.5514 98.5912 29.2742 98.8787C29.0116 99.1518 28.8804 99.4681 28.8804 99.8275C28.8804 100.187 29.0116 100.503 29.2742 100.776C29.5514 101.035 29.9379 101.164 30.4339 101.164H32.5782C33.7744 101.164 34.6861 101.445 35.3134 102.005C35.9552 102.566 36.2761 103.357 36.2761 104.377C36.2761 104.967 36.1303 105.52 35.8385 106.038C35.5468 106.541 35.1383 106.951 34.6132 107.267C34.088 107.583 33.49 107.741 32.8189 107.741H27.2393Z" fill="url(#paint2_linear)"/>
<path d="M42.418 107.741C41.4261 107.741 40.6457 107.461 40.0768 106.9C39.5224 106.34 39.2453 105.578 39.2453 104.615V98.4474H37.3198V96.7439H39.2453V93.9838H41.2583V96.7439H45.0875V98.4474H41.2583V104.485C41.2583 104.96 41.3896 105.341 41.6522 105.628C41.9294 105.901 42.3086 106.038 42.79 106.038H45.0438V107.741H42.418Z" fill="url(#paint3_linear)"/>
<path d="M52.4308 108C51.293 108 50.2792 107.748 49.3894 107.245C48.5141 106.728 47.8212 106.038 47.3107 105.175C46.8147 104.298 46.5667 103.321 46.5667 102.243C46.5667 101.164 46.8147 100.194 47.3107 99.3315C47.8212 98.4546 48.5141 97.7646 49.3894 97.2615C50.2792 96.7439 51.293 96.4852 52.4308 96.4852C53.5686 96.4852 54.5751 96.7439 55.4504 97.2615C56.3402 97.7646 57.0331 98.4546 57.5291 99.3315C58.0396 100.194 58.2949 101.164 58.2949 102.243C58.2949 103.321 58.0396 104.298 57.5291 105.175C57.0331 106.038 56.3402 106.728 55.4504 107.245C54.5751 107.748 53.5686 108 52.4308 108ZM52.4308 106.296C53.2039 106.296 53.875 106.117 54.4439 105.757C55.0128 105.398 55.4577 104.916 55.7786 104.313C56.0995 103.695 56.26 103.004 56.26 102.243C56.26 101.481 56.0995 100.798 55.7786 100.194C55.4577 99.5759 55.0128 99.0872 54.4439 98.7278C53.875 98.3684 53.2039 98.1887 52.4308 98.1887C51.6723 98.1887 51.0013 98.3684 50.4178 98.7278C49.8489 99.0872 49.4039 99.5759 49.083 100.194C48.7621 100.798 48.6016 101.481 48.6016 102.243C48.6016 103.004 48.7621 103.695 49.083 104.313C49.4039 104.916 49.8489 105.398 50.4178 105.757C51.0013 106.117 51.6723 106.296 52.4308 106.296Z" fill="url(#paint4_linear)"/>
<path d="M60.1543 103.019V101.208H66.3466V103.019H60.1543Z" fill="url(#paint5_linear)"/>
<path d="M68.8253 107.741V92H70.8384V101.358H73.9017L76.8338 96.7439H79.0656L75.8929 101.66C76.9432 101.962 77.7601 102.53 78.3436 103.364C78.9416 104.183 79.2407 105.139 79.2407 106.232V107.741H77.2057V106.232C77.2057 105.628 77.0672 105.089 76.79 104.615C76.5274 104.14 76.1555 103.766 75.6741 103.493C75.1927 103.206 74.6384 103.062 74.0111 103.062H70.8384V107.741H68.8253Z" fill="url(#paint6_linear)"/>
<path d="M81.9632 107.741V106.038H87.3021C87.8273 106.038 88.2357 105.88 88.5275 105.563C88.8338 105.233 88.987 104.859 88.987 104.442C88.987 104.054 88.8484 103.716 88.5712 103.429C88.3086 103.127 87.9221 102.976 87.4115 102.976H85.1578C84.0783 102.976 83.2104 102.717 82.5539 102.199C81.9121 101.668 81.5912 100.898 81.5912 99.8922C81.5912 99.3315 81.7298 98.814 82.0069 98.3396C82.2841 97.8652 82.6706 97.4843 83.1666 97.1968C83.6626 96.8949 84.2315 96.7439 84.8733 96.7439H90.0154V98.4474H85.0703C84.6326 98.4474 84.2752 98.5912 83.9981 98.8787C83.7355 99.1518 83.6042 99.4681 83.6042 99.8275C83.6042 100.187 83.7355 100.503 83.9981 100.776C84.2752 101.035 84.6618 101.164 85.1578 101.164H87.3021C88.4983 101.164 89.41 101.445 90.0372 102.005C90.6791 102.566 91 103.357 91 104.377C91 104.967 90.8541 105.52 90.5624 106.038C90.2706 106.541 89.8622 106.951 89.3371 107.267C88.8119 107.583 88.2138 107.741 87.5428 107.741H81.9632Z" fill="url(#paint7_linear)"/>
<path d="M70.8306 51.4991C70.2574 52.0723 69.6562 52.6175 69.0244 53.1626C68.5379 53.5626 68.0207 53.965 67.5061 54.337C66.933 54.7675 66.3598 55.1674 65.7586 55.5394C65.4427 55.7686 65.0708 55.9699 64.7269 56.1406C64.2683 56.4259 63.8378 56.6857 63.3513 56.915L63.0074 57.0882C61.6776 57.7531 60.2943 58.311 58.8754 58.7568C58.4296 58.8969 57.9762 59.0345 57.5049 59.1516C56.7024 59.3809 55.872 59.5822 55.0109 59.7248C53.2914 60.0407 51.5439 60.1834 49.7377 60.1834H39.6932C39.2983 59.9312 38.8831 59.6611 38.4857 59.4064C37.6781 57.6257 36.9368 55.9724 34.8938 53.6492C34.5218 53.1906 34.0353 52.676 33.4901 52.1309C31.1694 49.8102 29.4499 48.7199 27.845 47.8894C27.4145 47.6601 26.9865 47.4589 26.556 47.2576C25.8682 46.9137 25.1804 46.5978 24.434 46.1673C23.0864 45.3929 21.5961 44.3051 19.7059 42.4124C16.7534 39.4599 15.8083 37.4831 14.8046 35.5063C14.0047 33.7893 13.1743 32.0978 11.0522 29.749V2.86587C11.0522 1.28391 12.3362 0 13.9181 0H21.3414C22.2584 1.26098 22.7756 2.37931 23.3488 3.46707C24.2658 5.47446 25.2109 7.39268 28.1634 10.3452C31.1159 13.2977 33.0927 14.2428 35.0976 15.2184C37.0464 16.1635 39.0232 17.1392 41.9476 20.0611C44.9001 23.0136 45.8452 24.9904 46.8489 26.9672C47.766 28.9746 48.7111 30.8928 51.6636 33.8453C54.6161 36.7978 56.5929 37.7429 58.5977 38.7186C60.5465 39.6637 62.5233 40.6394 65.4478 43.5613C68.4003 46.5138 69.3454 48.4906 70.3491 50.4674C70.4867 50.8113 70.6599 51.1552 70.8306 51.4991Z" fill="#F2494C"/>
<path d="M11.0522 0V81.5182H31.4318C34.2467 81.5182 36.5267 79.2382 36.5267 76.4233V61.1386H51.8113C51.8113 61.1386 79.8332 58.5912 79.8332 33.1168C79.8332 7.64233 64.5486 0 51.8113 0H11.0522Z" fill="url(#paint8_linear)"/>
<path d="M19.9938 81.5181H11.0522V75.5571L11.1389 75.6437C14.0913 78.5962 16.0682 79.5413 18.073 80.5144C18.7048 80.8023 19.334 81.1156 19.9938 81.5181Z" fill="#3231C7"/>
<path d="M79.4053 38.339C79.232 38.9402 78.5111 52.969 59.7594 59.3096C58.557 58.5657 54.9855 57.4041 53.3525 55.7686C50.4001 52.8162 49.4269 50.8393 48.4513 48.8625C47.8501 47.6296 47.2489 46.3966 46.1866 44.9369C45.5268 44.0784 44.6963 43.1027 43.606 42.015C41.456 39.8649 39.8231 38.7772 38.3328 37.9747C37.7877 37.6589 37.2451 37.3735 36.6999 37.1163C36.3 36.915 35.8975 36.7443 35.4975 36.5151C33.8926 35.6846 32.1731 34.5943 29.8524 32.2736C26.8999 29.3211 25.9268 27.3443 24.9511 25.3674C24.006 23.3906 23.0303 21.4418 20.1084 18.5174C17.1559 15.5649 15.1791 14.5918 13.2023 13.6161C12.4865 13.3002 11.7986 12.9563 11.0522 12.4978V0H38.1061H38.1086C41.1707 3.10533 43.1933 4.10393 45.2135 5.09744C47.1903 6.04254 49.1111 6.98764 52.0635 9.94013C55.016 12.8926 55.9891 14.8414 56.9368 16.8182C57.9125 18.795 58.8576 20.7438 61.8101 23.6963C64.7625 26.6488 66.7674 27.6219 68.7467 28.5976C70.6955 29.5707 72.6724 30.5184 75.5688 33.4403C77.1686 35.0503 78.6614 37.1647 79.4053 38.339Z" fill="#199BE2"/>
<path d="M71.3732 52.8849C64.4136 58.8383 59.2117 61.1387 51.8113 61.1387C46.3293 61.1387 39.6473 60.9145 39.4461 60.8916C38.6385 59.1109 36.9394 55.975 34.8963 53.6492C34.5244 53.1906 34.0378 52.676 33.4927 52.1309C31.172 49.8102 29.4524 48.7199 27.8475 47.8894C27.417 47.6601 26.9891 47.4589 26.5585 47.2576C25.8707 46.9137 25.1829 46.5978 24.4365 46.1673C23.0889 45.3929 23.1755 42.1449 21.2828 40.2522C18.3303 37.2997 16.677 35.2948 15.6733 33.3155C14.8734 31.5985 13.1743 32.0978 11.0522 29.749V0H21.3414C22.2585 1.26098 22.7756 2.37931 23.3488 3.46707C24.2658 5.47446 25.2109 7.39268 28.1634 10.3452C31.1159 13.2977 33.0927 14.2428 35.0976 15.2184C37.0464 16.1635 39.0232 17.1392 41.9476 20.0611C44.9001 23.0136 45.8452 24.9904 46.8489 26.9672C47.766 28.9746 48.7111 30.8928 51.6636 33.8453C54.6161 36.7978 56.5929 37.7429 58.5977 38.7186C60.5465 39.6637 62.5233 40.6394 65.4478 43.5613C68.4003 46.5138 69.3454 48.4906 70.3491 50.4674C70.4867 50.8113 71.2025 52.541 71.3732 52.8849Z" fill="#A2DEFF"/>
<path d="M36.5267 70.414V74.5128V76.4234C36.5267 79.2383 34.2467 81.5183 31.4318 81.5183C31.4318 81.5183 33.3577 77.045 30.1657 73.853C29.134 72.8493 28.1023 72.1055 26.584 71.1884C25.0938 70.2713 23.4608 69.097 22.1693 67.808C19.6193 65.2274 17.4107 62.4201 16.0656 59.0677C15.7803 58.3518 15.5205 57.664 15.2912 56.9762C14.9473 56.0872 14.6314 55.2567 14.2009 54.4262C13.829 53.7053 11.5694 51.6088 11.0522 50.949C12.3693 52.0087 13.9716 52.4749 15.0899 53.8225C16.1803 55.1395 17.0668 56.7164 17.9558 58.064C18.0705 58.2372 18.1571 58.3799 18.2997 58.5225C20.0192 60.9299 22.3986 62.8786 24.8339 64.4555C24.9486 64.5141 25.0352 64.5982 25.1498 64.6287C26.3522 65.3726 27.5571 65.8897 28.9608 66.3763C30.4791 66.8629 32.4278 67.6933 34.0608 68.7276C34.9498 69.2676 35.7523 69.8408 36.5267 70.414Z" fill="#199BE2"/>
<path d="M79.8334 33.1167C79.8053 33.7179 79.8334 39.0191 78.2157 43.1587L77.5611 42.1729L75.9281 40.0509L72.6037 35.9826C71.572 34.6936 70.5403 33.6033 69.2513 32.6862C68.0183 31.7131 66.2122 30.796 64.5513 29.4484C62.9183 28.1594 61.5707 26.6691 60.3378 25.1483C59.1354 23.63 58.0171 21.9665 57.1866 20.1604C56.6414 18.958 56.2695 17.7811 55.839 16.6628C55.6378 16.0896 55.4085 15.5164 55.1512 14.9713C54.3768 13.3664 53.6507 11.8201 52.5044 10.3859C53.9386 11.5322 55.0085 12.8212 56.1829 14.342C57.128 15.575 57.9024 16.9226 58.7049 18.125C58.9061 18.4103 59.0768 18.6702 59.278 18.9274C61.1988 21.3628 63.8354 23.5409 66.472 25.0031C66.7293 25.1458 66.9586 25.2604 67.1879 25.375C68.6221 26.0909 70.283 26.5214 72.2318 27.3824C74.1806 28.2409 76.0428 29.4739 77.6477 30.7348C78.4501 31.3997 79.8334 33.1167 79.8334 33.1167Z" fill="#DAEFFB"/>
<path d="M73.9412 50.3171C73.61 50.7502 70.6677 53.6517 68.1661 55.4884L67.3764 53.7307C66.7905 52.2277 66.4084 51.2087 65.6696 50.0624C65.0073 48.9415 64.0647 47.7697 63.1477 46.7507C62.1796 45.7063 61.2371 44.8656 60.0143 44.0759C58.817 43.3117 57.1866 42.4201 55.862 41.2482C54.5373 40.1019 53.4419 38.8536 52.4229 37.5544C51.4039 36.2552 50.4614 34.8287 49.7991 33.2747C49.4424 32.3831 49.1367 31.517 48.831 30.7018C48.6018 30.0904 48.0515 29.3848 47.7458 28.7989C47.058 27.4233 46.6581 25.9661 45.6646 24.7433C46.8873 25.7369 47.8375 27.1354 48.831 28.4091C49.6717 29.479 50.385 30.7273 51.0728 31.8227C51.2001 32.0265 51.302 32.2048 51.4294 32.3831C53.1107 34.7523 55.5818 36.7902 58.0273 38.2168C58.1547 38.2932 58.282 38.3696 58.4349 38.4206C59.5303 39.0065 60.7021 39.3886 62.1287 39.949C63.7336 40.5604 65.3894 41.4775 66.816 42.522C68.2171 43.5919 69.5163 44.6618 70.79 46.012C71.9363 47.1838 73.177 49.0689 73.9412 50.3171Z" fill="#199BE2"/>
<path d="M50.3313 54.4262C47.7329 51.8278 46.0006 50.9616 44.2429 50.121C42.4852 49.2548 42.0903 47.5149 39.4664 44.8911C36.868 42.2927 35.0695 38.2626 34.2289 36.5023C33.3628 34.7446 33.1692 33.7053 30.5453 31.0814C27.9469 28.483 26.2146 27.6169 24.4569 26.7762C22.6992 25.9101 20.353 24.9115 17.7291 22.2876C15.1307 19.6892 13.75 18.1123 12.9093 16.3546C12.3998 15.3102 11.9439 13.9396 11.0522 12.7169V33.1168C12.3005 34.0084 13.2914 34.4491 14.3359 34.9841C15.9917 35.7483 17.1152 37.2742 19.4079 39.4905L19.4843 39.5669C19.6371 39.6688 19.8155 39.8471 19.9938 40.0255C22.6176 42.6493 23.9143 46.9087 24.7804 48.6919C25.6211 50.4241 26.4872 52.1819 29.0856 54.7803C31.7095 57.4041 33.4672 58.2448 35.2249 59.1364C35.9128 59.4421 36.5573 60.5757 37.2705 60.9833C37.2705 60.9833 40.0727 61.1489 44.169 61.1361C44.9664 61.1336 46.7165 61.1361 46.7165 61.1361C46.7165 61.1361 52.2342 61.261 54.3562 61.0623C53.643 59.8166 52.089 56.1839 50.3313 54.4262Z" fill="#DAEFFB"/>
<path d="M46.7164 61.1386H36.5267L36.5012 61.5386C36.1012 61.2533 35.6427 60.9654 35.1536 60.6801C33.6633 59.763 32.0304 58.5887 30.7389 57.2997C28.1889 54.7191 25.9803 51.9118 24.6352 48.5594C24.434 48.0728 24.2633 47.5862 24.09 47.1252C23.6901 46.0068 23.2876 44.9471 22.773 43.9154C22.1998 42.8251 21.512 41.7653 20.7656 40.7642L20.679 40.6776C20.4778 40.3617 20.2205 40.0764 19.9912 39.7605C21.3082 40.8202 22.5412 41.9666 23.6595 43.3142C24.7498 44.6312 25.6363 46.2081 26.5254 47.5557C26.8107 48.0142 27.1572 48.4447 27.4985 48.8447C29.162 50.8801 31.2535 52.541 33.4035 53.9447C33.7754 54.1739 34.1779 54.4032 34.5499 54.6045C35.495 55.091 36.4706 55.4935 37.5304 55.8654C39.0486 56.352 40.9974 57.1825 42.6303 58.2167C44.0671 59.1032 47.0731 61.2991 46.7164 61.1386Z" fill="#0288D1"/>
<path d="M62.7298 58.7925C60.8115 60.1961 55.0008 61.2176 54.3334 61.1387C54.1322 60.7948 53.9309 60.4509 53.7322 60.135C52.8431 58.6727 52.1273 57.6996 51.009 56.4386C49.9773 55.2362 48.9175 54.2606 47.598 53.3715C46.2809 52.513 44.4162 51.4507 42.9259 50.1337C41.4077 48.8167 40.1467 47.3825 39.0003 45.9202C37.826 44.43 36.7662 42.7691 36.0198 41.019C35.5613 39.9592 35.2174 38.9275 34.8174 37.9238C34.5882 37.292 34.3309 36.6628 34.015 36.0616C33.2711 34.4848 32.2394 33.0225 31.1211 31.6189C32.5247 32.7372 33.8443 33.9982 34.9907 35.4299C36.0224 36.6909 36.8248 38.1531 37.6553 39.3861C37.7699 39.5593 37.8846 39.73 37.9992 39.9006C39.976 42.5372 42.7578 44.8019 45.5091 46.3482C45.5371 46.3482 45.5371 46.3762 45.5651 46.3762C46.9687 47.1507 48.3749 47.5786 50.2371 48.297C52.0993 49.0128 53.992 50.1312 55.5969 51.3055C57.1738 52.3958 58.8347 54.0848 60.0117 55.547C60.837 56.5253 62.0114 57.7608 62.7298 58.7925Z" fill="#0288D1"/>
<path d="M76.9091 16.3419C74.4635 10.7503 71.2282 6.55465 65.9678 3.58179C67.458 6.27444 68.1484 8.48307 71.9594 12.294C74.0508 14.388 75.4468 15.5675 76.9091 16.3419Z" fill="#A2DEFF"/>
<path d="M19.6218 81.5182H11.0522V75.2158L11.1338 75.3075C13.9614 78.4281 15.8567 79.4267 17.78 80.4584C18.3863 80.7616 18.9901 81.0928 19.6218 81.5182Z" fill="#199BE2"/>
<g filter="url(#filter0_d)">
<path d="M31.2122 37.1333L34.0967 40.0178L27.6768 46.4377C27.5177 46.5967 27.2591 46.5967 27.1001 46.4377L24.7931 44.1307C24.6341 43.9717 24.6341 43.7131 24.7931 43.554L31.2122 37.1333Z" fill="url(#paint9_radial)"/>
<path d="M34.7869 33.5579L37.6714 36.4423L34.096 40.0169L31.2123 37.1333L34.7869 33.5579Z" fill="url(#paint10_radial)"/>
<path d="M44.2504 40.0308C37.042 40.0308 31.1985 34.1873 31.1985 26.9789C31.1985 19.7706 37.042 13.9271 44.2504 13.9271C51.4587 13.9271 57.3022 19.7706 57.3022 26.9789C57.3022 34.1873 51.4587 40.0308 44.2504 40.0308Z" fill="url(#paint11_linear)"/>
</g>
<defs>
<filter id="filter0_d" x="17.6738" y="12.9271" width="46.6287" height="46.6299" filterUnits="userSpaceOnUse" color-interpolation-filters="sRGB">
<feFlood flood-opacity="0" result="BackgroundImageFix"/>
<feColorMatrix in="SourceAlpha" type="matrix" values="0 0 0 0 0 0 0 0 0 0 0 0 0 0 0 0 0 0 127 0"/>
<feOffset dy="6"/>
<feGaussianBlur stdDeviation="3.5"/>
<feColorMatrix type="matrix" values="0 0 0 0 0 0 0 0 0 0 0 0 0 0 0 0 0 0 0.25 0"/>
<feBlend mode="normal" in2="BackgroundImageFix" result="effect1_dropShadow"/>
<feBlend mode="normal" in="SourceGraphic" in2="effect1_dropShadow" result="shape"/>
</filter>
<linearGradient id="paint0_linear" x1="-46.0635" y1="61.5511" x2="-25.4527" y2="141.496" gradientUnits="userSpaceOnUse">
<stop stop-color="#A3FFFF"/>
<stop offset="0.223" stop-color="#9DFBFF"/>
<stop offset="0.53" stop-color="#8BF1FF"/>
<stop offset="0.885" stop-color="#6EE0FF"/>
<stop offset="1" stop-color="#63DAFF"/>
</linearGradient>
<linearGradient id="paint1_linear" x1="-46.0635" y1="61.5511" x2="-25.4527" y2="141.496" gradientUnits="userSpaceOnUse">
<stop stop-color="#A3FFFF"/>
<stop offset="0.223" stop-color="#9DFBFF"/>
<stop offset="0.53" stop-color="#8BF1FF"/>
<stop offset="0.885" stop-color="#6EE0FF"/>
<stop offset="1" stop-color="#63DAFF"/>
</linearGradient>
<linearGradient id="paint2_linear" x1="-46.0635" y1="61.5511" x2="-25.4527" y2="141.496" gradientUnits="userSpaceOnUse">
<stop stop-color="#A3FFFF"/>
<stop offset="0.223" stop-color="#9DFBFF"/>
<stop offset="0.53" stop-color="#8BF1FF"/>
<stop offset="0.885" stop-color="#6EE0FF"/>
<stop offset="1" stop-color="#63DAFF"/>
</linearGradient>
<linearGradient id="paint3_linear" x1="-46.0635" y1="61.5511" x2="-25.4527" y2="141.496" gradientUnits="userSpaceOnUse">
<stop stop-color="#A3FFFF"/>
<stop offset="0.223" stop-color="#9DFBFF"/>
<stop offset="0.53" stop-color="#8BF1FF"/>
<stop offset="0.885" stop-color="#6EE0FF"/>
<stop offset="1" stop-color="#63DAFF"/>
</linearGradient>
<linearGradient id="paint4_linear" x1="-46.0635" y1="61.5511" x2="-25.4527" y2="141.496" gradientUnits="userSpaceOnUse">
<stop stop-color="#A3FFFF"/>
<stop offset="0.223" stop-color="#9DFBFF"/>
<stop offset="0.53" stop-color="#8BF1FF"/>
<stop offset="0.885" stop-color="#6EE0FF"/>
<stop offset="1" stop-color="#63DAFF"/>
</linearGradient>
<linearGradient id="paint5_linear" x1="-46.0635" y1="61.5511" x2="-25.4527" y2="141.496" gradientUnits="userSpaceOnUse">
<stop stop-color="#A3FFFF"/>
<stop offset="0.223" stop-color="#9DFBFF"/>
<stop offset="0.53" stop-color="#8BF1FF"/>
<stop offset="0.885" stop-color="#6EE0FF"/>
<stop offset="1" stop-color="#63DAFF"/>
</linearGradient>
<linearGradient id="paint6_linear" x1="-46.0635" y1="61.5511" x2="-25.4527" y2="141.496" gradientUnits="userSpaceOnUse">
<stop stop-color="#A3FFFF"/>
<stop offset="0.223" stop-color="#9DFBFF"/>
<stop offset="0.53" stop-color="#8BF1FF"/>
<stop offset="0.885" stop-color="#6EE0FF"/>
<stop offset="1" stop-color="#63DAFF"/>
</linearGradient>
<linearGradient id="paint7_linear" x1="-46.0635" y1="61.5511" x2="-25.4527" y2="141.496" gradientUnits="userSpaceOnUse">
<stop stop-color="#A3FFFF"/>
<stop offset="0.223" stop-color="#9DFBFF"/>
<stop offset="0.53" stop-color="#8BF1FF"/>
<stop offset="0.885" stop-color="#6EE0FF"/>
<stop offset="1" stop-color="#63DAFF"/>
</linearGradient>
<linearGradient id="paint8_linear" x1="21.608" y1="12.5105" x2="77.9272" y2="60.0299" gradientUnits="userSpaceOnUse">
<stop stop-color="#A3FFFF"/>
<stop offset="0.223" stop-color="#9DFBFF"/>
<stop offset="0.53" stop-color="#8BF1FF"/>
<stop offset="0.885" stop-color="#6EE0FF"/>
<stop offset="1" stop-color="#63DAFF"/>
</linearGradient>
<radialGradient id="paint9_radial" cx="0" cy="0" r="1" gradientUnits="userSpaceOnUse" gradientTransform="translate(36.7018 45.4528) rotate(-135.751) scale(20.5033 20.5051)">
<stop offset="0.222227" stop-color="#006185"/>
<stop offset="0.670497" stop-color="#35C1F1"/>
</radialGradient>
<radialGradient id="paint10_radial" cx="0" cy="0" r="1" gradientUnits="userSpaceOnUse" gradientTransform="translate(44.2308 27.0572) rotate(180) scale(15.9918)">
<stop offset="0.693" stop-color="#006185"/>
<stop offset="0.921" stop-color="#35C1F1"/>
</radialGradient>
<linearGradient id="paint11_linear" x1="53.2961" y1="17.9332" x2="35.0007" y2="36.2286" gradientUnits="userSpaceOnUse">
<stop stop-color="#A3FFFF"/>
<stop offset="0.223" stop-color="#9DFBFF"/>
<stop offset="0.53" stop-color="#8BF1FF"/>
<stop offset="0.885" stop-color="#6EE0FF"/>
<stop offset="1" stop-color="#63DAFF"/>
</linearGradient>
</defs>
</svg>
