<svg width="160" height="408" viewBox="0 0 160 408" fill="none" xmlns="http://www.w3.org/2000/svg">
<path opacity="0.05" fill-rule="evenodd" clip-rule="evenodd" d="M88.5981 353.356C87.401 353.356 86.258 353.116 85.4039 352.626L18.7727 314.396C16.8876 313.315 17.1238 311.426 19.301 310.177L22.7207 308.216L85.6751 344.335C85.6825 344.339 85.69 344.343 85.697 344.347C86.5833 344.849 87.7632 345.095 88.9986 345.095C90.5023 345.095 92.0883 344.731 93.3274 344.02L135.118 320.051L138.657 322.081C140.542 323.162 140.306 325.051 138.129 326.3L92.758 352.323C91.5679 353.006 90.0436 353.356 88.5981 353.356" fill="#000E4B"/>
<path fill-rule="evenodd" clip-rule="evenodd" d="M157.326 248.206L87.9929 208.426C87.1878 207.964 86.3696 207.893 85.6434 208.14L85.6481 208.132L85.5216 208.18L85.4912 208.191L82.9859 209.144L85.2345 210.238C85.2238 210.279 85.2112 210.318 85.2023 210.36L73.9087 261.445C73.3435 264.001 74.4753 266.987 76.4364 268.111L144.103 306.934L143.862 309.784L146.6 308.729C147.52 308.302 148.257 307.335 148.561 305.957L159.855 254.872C160.42 252.316 159.288 249.33 157.326 248.206" fill="#0037A1"/>
<path fill-rule="evenodd" clip-rule="evenodd" d="M157.329 248.206L87.995 208.426C87.1899 207.964 86.3717 207.893 85.6455 208.14L85.6502 208.132L85.5237 208.18L85.4934 208.191L82.988 209.144L85.2367 210.238C85.2259 210.279 85.2133 210.318 85.2045 210.36L77.7612 244.028L111.685 270.293L159.518 250.951C159.059 249.767 158.295 248.76 157.329 248.206" fill="#B4D0F6"/>
<path fill-rule="evenodd" clip-rule="evenodd" d="M154.712 256.058L159.99 253.825C160.087 251.794 159.241 249.695 157.852 248.573L149.498 252.066L154.712 256.058" fill="#92B6E7"/>
<path fill-rule="evenodd" clip-rule="evenodd" d="M141.454 309.513L72.12 269.734C70.1584 268.608 69.0266 265.623 69.5918 263.067L80.8854 211.982C81.4502 209.425 83.4986 208.265 85.4598 209.39L154.793 249.17C156.754 250.295 157.887 253.28 157.322 255.837L146.028 306.921C145.463 309.478 143.415 310.639 141.454 309.513" fill="#D7E8FE"/>
<path fill-rule="evenodd" clip-rule="evenodd" d="M155.459 248.927L86.1254 209.148C85.1756 208.604 84.2081 208.604 83.396 209.031C84.048 208.889 84.7579 208.988 85.4598 209.391L154.793 249.17C156.755 250.295 157.887 253.28 157.322 255.837L146.028 306.921C145.737 308.239 145.048 309.177 144.183 309.63C145.353 309.376 146.331 308.322 146.694 306.68L157.987 255.595C158.552 253.038 157.421 250.053 155.459 248.927" fill="#FFFFFE"/>
<path fill-rule="evenodd" clip-rule="evenodd" d="M139.951 305.713L74.744 268.32C72.9495 267.29 71.9138 264.559 72.4309 262.219L82.765 215.472C83.2822 213.133 85.1565 212.071 86.9515 213.101L152.158 250.494C153.953 251.524 154.989 254.256 154.472 256.595L144.137 303.342C143.62 305.681 141.746 306.743 139.951 305.713" fill="#FFFFFE"/>
<path fill-rule="evenodd" clip-rule="evenodd" d="M139.951 305.713L74.744 268.32C72.9495 267.29 71.9138 264.559 72.4309 262.219L82.765 215.472C83.2822 213.133 85.1565 212.071 86.9515 213.101L152.158 250.494C153.953 251.524 154.989 254.256 154.472 256.595L144.137 303.342C143.62 305.681 141.746 306.743 139.951 305.713" fill="#000E4B"/>
<path fill-rule="evenodd" clip-rule="evenodd" d="M140.519 305.484L75.3125 268.09C73.5179 267.06 72.4823 264.329 72.9989 261.99L83.3335 215.242C83.5953 214.058 84.2058 213.206 84.9764 212.781C83.9426 213.046 83.0885 214.009 82.765 215.472L72.4309 262.219C71.9138 264.559 72.9495 267.29 74.744 268.32L139.951 305.714C140.838 306.222 141.742 306.217 142.494 305.803C141.875 305.961 141.192 305.869 140.519 305.484" fill="#5589BB"/>
<path fill-rule="evenodd" clip-rule="evenodd" d="M142.411 311.245L132.933 310.002L71.7545 274.901C69.7933 273.776 66.3672 273.917 64.1026 275.217L20.7518 300.079L15.021 299.327V302.559L15.0261 302.56C14.9888 303.306 15.4168 304.024 16.3423 304.556L85.6753 344.335C87.637 345.461 91.0627 345.319 93.3277 344.02L140.539 316.942C141.813 316.211 142.448 315.269 142.411 314.385V311.245" fill="#0037A1"/>
<path fill-rule="evenodd" clip-rule="evenodd" d="M96.4435 289.066L92.0965 286.572H44.3095L20.7518 300.079L15.021 299.328V302.559L15.0261 302.56C14.9888 303.306 15.4168 304.024 16.3423 304.556L85.6753 344.335C86.7119 344.93 88.1578 345.167 89.6247 345.071L96.4435 289.066" fill="#B4D0F6"/>
<path fill-rule="evenodd" clip-rule="evenodd" d="M17.5642 299.661L15.021 299.327V302.559L15.0261 302.56C14.9888 303.306 15.4168 304.024 16.3423 304.556L17.5642 305.256V299.661" fill="#92B6E7"/>
<path fill-rule="evenodd" clip-rule="evenodd" d="M86.374 344.658C88.2334 345.358 90.8914 345.205 92.8759 344.256V337.049H86.374V344.658" fill="#92B6E7"/>
<path fill-rule="evenodd" clip-rule="evenodd" d="M85.6753 341.107L16.3422 301.328C14.3806 300.203 14.627 298.237 16.8916 296.938L64.1026 269.86C66.3671 268.561 69.7933 268.42 71.7545 269.544L141.088 309.324C143.049 310.45 142.804 312.415 140.539 313.715L93.3276 340.792C91.0626 342.091 87.6369 342.233 85.6753 341.107" fill="#D7E8FE"/>
<path fill-rule="evenodd" clip-rule="evenodd" d="M140.539 312.534L93.328 339.612C91.063 340.911 87.6373 341.053 85.6756 339.927L16.3426 300.148C15.6994 299.779 15.2981 299.319 15.123 298.822C14.8164 299.744 15.2075 300.677 16.3426 301.328L85.6756 341.107C87.6373 342.233 91.063 342.091 93.328 340.792L140.539 313.715C142.061 312.841 142.667 311.668 142.307 310.649C142.084 311.321 141.493 311.987 140.539 312.534" fill="#FFFFFE"/>
<path fill-rule="evenodd" clip-rule="evenodd" d="M98.4253 306.784L95.2885 304.984C95.0364 304.839 95.0677 304.587 95.3585 304.42L98.4668 302.637C98.7581 302.47 99.1977 302.452 99.4497 302.596L102.587 304.396C102.839 304.54 102.807 304.793 102.516 304.96L99.4077 306.743C99.117 306.91 98.6773 306.928 98.4253 306.784" fill="#000E4B"/>
<path fill-rule="evenodd" clip-rule="evenodd" d="M103.27 309.563L100.132 307.764C99.8802 307.619 99.9115 307.366 100.202 307.2L103.311 305.416C103.601 305.249 104.042 305.231 104.293 305.375L107.431 307.175C107.683 307.32 107.651 307.572 107.36 307.739L104.252 309.523C103.961 309.69 103.521 309.708 103.27 309.563" fill="#000E4B"/>
<path fill-rule="evenodd" clip-rule="evenodd" d="M108.114 312.343L104.977 310.543C104.725 310.398 104.757 310.146 105.048 309.979L108.156 308.195C108.447 308.029 108.887 308.011 109.139 308.155L112.275 309.955C112.527 310.1 112.496 310.352 112.205 310.519L109.097 312.302C108.806 312.469 108.366 312.487 108.114 312.343" fill="#000E4B"/>
<path fill-rule="evenodd" clip-rule="evenodd" d="M112.96 315.122L109.823 313.322C109.571 313.178 109.603 312.926 109.893 312.758L113.002 310.975C113.293 310.808 113.733 310.79 113.985 310.935L117.121 312.734C117.373 312.879 117.342 313.132 117.051 313.298L113.943 315.082C113.652 315.248 113.211 315.267 112.96 315.122" fill="#000E4B"/>
<path fill-rule="evenodd" clip-rule="evenodd" d="M121.573 320.064L114.728 316.136C114.476 315.992 114.508 315.739 114.799 315.573L117.907 313.789C118.198 313.622 118.638 313.604 118.89 313.749L125.734 317.676C125.986 317.82 125.955 318.073 125.664 318.24L122.556 320.023C122.265 320.19 121.825 320.208 121.573 320.064" fill="#000E4B"/>
<path fill-rule="evenodd" clip-rule="evenodd" d="M131.003 314.652L125.225 311.338C124.974 311.193 125.006 310.941 125.296 310.774L128.405 308.99C128.695 308.823 129.135 308.805 129.387 308.95L135.164 312.265C135.416 312.409 135.385 312.661 135.094 312.829L131.986 314.612C131.695 314.779 131.254 314.797 131.003 314.652" fill="#000E4B"/>
<path fill-rule="evenodd" clip-rule="evenodd" d="M82.6868 292.342L79.5495 290.542C79.2975 290.397 79.3292 290.145 79.62 289.979L82.7283 288.195C83.0191 288.028 83.4592 288.01 83.7108 288.155L86.8481 289.955C87.1001 290.099 87.0684 290.352 86.7776 290.519L83.6692 292.302C83.378 292.468 82.9384 292.486 82.6868 292.342" fill="#000E4B"/>
<path fill-rule="evenodd" clip-rule="evenodd" d="M77.7208 289.494L74.584 287.693C74.3324 287.549 74.3637 287.297 74.6545 287.129L77.7628 285.347C78.0536 285.18 78.4937 285.161 78.7457 285.306L81.8825 287.106C82.1341 287.25 82.1028 287.503 81.8121 287.669L78.7037 289.453C78.4129 289.62 77.9728 289.638 77.7208 289.494" fill="#000E4B"/>
<path fill-rule="evenodd" clip-rule="evenodd" d="M72.7549 286.644L69.6181 284.845C69.366 284.7 69.3973 284.448 69.6881 284.281L72.7964 282.498C73.0877 282.331 73.5278 282.313 73.7793 282.457L76.9166 284.257C77.1687 284.402 77.1365 284.654 76.8457 284.821L73.7373 286.604C73.4466 286.771 73.0069 286.789 72.7549 286.644" fill="#000E4B"/>
<path fill-rule="evenodd" clip-rule="evenodd" d="M67.7916 283.796L64.6543 281.996C64.4023 281.851 64.4345 281.6 64.7252 281.433L67.8336 279.649C68.1243 279.482 68.564 279.464 68.816 279.609L71.9528 281.409C72.2049 281.553 72.1736 281.806 71.8828 281.972L68.774 283.756C68.4832 283.922 68.0431 283.94 67.7916 283.796" fill="#000E4B"/>
<path fill-rule="evenodd" clip-rule="evenodd" d="M87.5305 295.122L84.3932 293.322C84.1412 293.177 84.1729 292.925 84.4642 292.758L87.572 290.974C87.8633 290.808 88.3029 290.79 88.5545 290.934L91.6918 292.734C91.9438 292.879 91.9125 293.131 91.6213 293.298L88.513 295.081C88.2222 295.248 87.7821 295.266 87.5305 295.122" fill="#000E4B"/>
<path fill-rule="evenodd" clip-rule="evenodd" d="M92.3753 297.901L89.238 296.101C88.986 295.957 89.0177 295.705 89.3085 295.537L92.4173 293.754C92.708 293.587 93.1477 293.569 93.3997 293.714L96.5365 295.514C96.7886 295.658 96.7568 295.911 96.4661 296.077L93.3577 297.861C93.0669 298.027 92.6268 298.046 92.3753 297.901" fill="#000E4B"/>
<path fill-rule="evenodd" clip-rule="evenodd" d="M97.2213 300.681L94.084 298.881C93.8324 298.737 93.8637 298.484 94.1545 298.317L97.2628 296.534C97.554 296.367 97.9937 296.348 98.2457 296.493L101.383 298.293C101.635 298.437 101.603 298.69 101.312 298.857L98.2037 300.64C97.9129 300.807 97.4733 300.826 97.2213 300.681" fill="#000E4B"/>
<path fill-rule="evenodd" clip-rule="evenodd" d="M102.065 303.46L98.9277 301.66C98.6762 301.516 98.7074 301.263 98.9982 301.097L102.107 299.313C102.397 299.146 102.837 299.128 103.089 299.273L106.226 301.073C106.478 301.217 106.447 301.469 106.156 301.637L103.047 303.419C102.757 303.586 102.317 303.605 102.065 303.46" fill="#000E4B"/>
<path fill-rule="evenodd" clip-rule="evenodd" d="M50.6752 290.938L47.5379 289.138C47.2863 288.994 47.3181 288.742 47.6088 288.575L51.3113 286.451C51.6021 286.283 52.0427 286.265 52.2942 286.41L55.4315 288.209C55.6835 288.354 55.6513 288.607 55.3606 288.773L51.6581 290.897C51.3673 291.065 50.9272 291.083 50.6752 290.938" fill="#000E4B"/>
<path fill-rule="evenodd" clip-rule="evenodd" d="M55.5189 293.718L52.382 291.918C52.13 291.774 52.1617 291.521 52.4525 291.354L56.155 289.23C56.4462 289.063 56.8863 289.045 57.1379 289.189L60.2747 290.989C60.5268 291.133 60.4955 291.386 60.2047 291.553L56.5013 293.677C56.2105 293.844 55.7709 293.863 55.5189 293.718" fill="#000E4B"/>
<path fill-rule="evenodd" clip-rule="evenodd" d="M62.2198 291.422L59.083 289.622C58.8314 289.478 58.8627 289.225 59.1535 289.059L62.2618 287.276C62.5526 287.108 62.9927 287.09 63.2447 287.235L66.3816 289.035C66.6331 289.179 66.6019 289.431 66.3111 289.599L63.2027 291.382C62.912 291.549 62.4719 291.567 62.2198 291.422" fill="#000E4B"/>
<path fill-rule="evenodd" clip-rule="evenodd" d="M67.0636 294.202L63.9268 292.403C63.6752 292.258 63.7065 292.005 63.9972 291.839L67.1056 290.055C67.3964 289.888 67.8365 289.87 68.0885 290.014L71.2253 291.814C71.4769 291.959 71.4456 292.211 71.1548 292.378L68.0465 294.162C67.7557 294.328 67.3156 294.346 67.0636 294.202" fill="#000E4B"/>
<path fill-rule="evenodd" clip-rule="evenodd" d="M71.9085 296.982L68.7717 295.182C68.5196 295.037 68.5514 294.785 68.8422 294.618L71.9505 292.834C72.2413 292.668 72.6809 292.65 72.9334 292.794L76.0702 294.594C76.3223 294.739 76.2905 294.991 75.9998 295.157L72.8914 296.941C72.6006 297.108 72.1605 297.126 71.9085 296.982" fill="#000E4B"/>
<path fill-rule="evenodd" clip-rule="evenodd" d="M76.7527 299.761L73.6154 297.961C73.3634 297.816 73.3951 297.564 73.6859 297.397L76.7942 295.614C77.085 295.447 77.5251 295.429 77.7767 295.573L80.914 297.373C81.166 297.518 81.1343 297.77 80.8435 297.937L77.7356 299.72C77.4444 299.887 77.0043 299.905 76.7527 299.761" fill="#000E4B"/>
<path fill-rule="evenodd" clip-rule="evenodd" d="M81.5987 302.541L78.4614 300.741C78.2094 300.596 78.2416 300.344 78.5324 300.177L81.6402 298.394C81.931 298.226 82.3711 298.208 82.6227 298.353L85.76 300.153C86.012 300.297 85.9807 300.55 85.6895 300.717L82.5812 302.5C82.2904 302.667 81.8503 302.685 81.5987 302.541" fill="#000E4B"/>
<path fill-rule="evenodd" clip-rule="evenodd" d="M86.4426 305.32L83.3053 303.52C83.0533 303.375 83.085 303.123 83.3763 302.956L86.4846 301.173C86.7754 301.006 87.215 300.988 87.4671 301.133L90.6039 302.933C90.8559 303.077 90.8242 303.329 90.5334 303.496L87.4251 305.279C87.1343 305.446 86.6942 305.464 86.4426 305.32" fill="#000E4B"/>
<path fill-rule="evenodd" clip-rule="evenodd" d="M91.2862 308.099L88.1489 306.299C87.8974 306.155 87.9286 305.903 88.2194 305.736L91.3282 303.953C91.619 303.786 92.0586 303.767 92.3107 303.912L95.448 305.712C95.6995 305.856 95.6678 306.109 95.377 306.276L92.2687 308.059C91.9779 308.226 91.5382 308.244 91.2862 308.099" fill="#000E4B"/>
<path fill-rule="evenodd" clip-rule="evenodd" d="M96.1319 310.879L92.9946 309.079C92.7431 308.935 92.7743 308.682 93.0651 308.515L96.1735 306.732C96.4642 306.565 96.9043 306.547 97.1564 306.692L100.294 308.491C100.545 308.636 100.513 308.888 100.223 309.055L97.1144 310.839C96.8236 311.006 96.3839 311.024 96.1319 310.879" fill="#000E4B"/>
<path fill-rule="evenodd" clip-rule="evenodd" d="M100.976 313.659L97.8394 311.859C97.5878 311.714 97.6191 311.462 97.9098 311.295L101.018 309.512C101.309 309.345 101.749 309.327 102.001 309.471L105.138 311.271C105.39 311.416 105.358 311.668 105.067 311.835L101.959 313.618C101.668 313.785 101.229 313.803 100.976 313.659" fill="#000E4B"/>
<path fill-rule="evenodd" clip-rule="evenodd" d="M105.82 316.438L102.683 314.638C102.431 314.493 102.463 314.241 102.754 314.074L105.862 312.291C106.153 312.124 106.593 312.106 106.845 312.25L109.982 314.05C110.234 314.195 110.202 314.447 109.911 314.614L106.803 316.398C106.512 316.564 106.072 316.582 105.82 316.438" fill="#000E4B"/>
<path fill-rule="evenodd" clip-rule="evenodd" d="M69.356 290.106L66.2196 288.306C65.9676 288.162 65.9989 287.91 66.2896 287.743L69.398 285.959C69.6888 285.793 70.1293 285.774 70.3809 285.919L73.5177 287.719C73.7698 287.863 73.738 288.115 73.4473 288.283L70.3389 290.066C70.0481 290.233 69.608 290.251 69.356 290.106" fill="#000E4B"/>
<path fill-rule="evenodd" clip-rule="evenodd" d="M64.4411 287.285L61.3042 285.485C61.0518 285.341 61.0835 285.089 61.3747 284.922L64.4826 283.138C64.7734 282.972 65.2135 282.953 65.4655 283.098L68.6023 284.898C68.8544 285.042 68.8231 285.295 68.5319 285.462L65.424 287.245C65.1332 287.412 64.6926 287.43 64.4411 287.285" fill="#000E4B"/>
<path fill-rule="evenodd" clip-rule="evenodd" d="M59.5165 284.46L52.7603 280.583C52.5087 280.439 52.54 280.186 52.8307 280.019L55.9391 278.236C56.2298 278.069 56.67 278.051 56.922 278.196L63.6782 282.072C63.9303 282.217 63.8985 282.469 63.6078 282.636L60.4994 284.419C60.2086 284.586 59.769 284.604 59.5165 284.46" fill="#000E4B"/>
<path fill-rule="evenodd" clip-rule="evenodd" d="M62.9584 281.024L57.4754 277.878C57.2238 277.733 57.2556 277.481 57.5463 277.314L60.6547 275.531C60.9454 275.364 61.3851 275.346 61.6371 275.49L67.1201 278.636C67.3717 278.78 67.3404 279.032 67.0497 279.2L63.9413 280.983C63.6506 281.15 63.2104 281.168 62.9584 281.024" fill="#000E4B"/>
<path fill-rule="evenodd" clip-rule="evenodd" d="M74.2031 292.886L71.0663 291.086C70.8142 290.941 70.8455 290.689 71.1367 290.522L74.2446 288.739C74.5354 288.572 74.976 288.554 75.2275 288.698L78.3644 290.498C78.6164 290.643 78.5847 290.895 78.2939 291.062L75.186 292.846C74.8952 293.012 74.4547 293.03 74.2031 292.886" fill="#000E4B"/>
<path fill-rule="evenodd" clip-rule="evenodd" d="M79.0484 295.666L75.9111 293.866C75.6591 293.721 75.6913 293.469 75.9821 293.302L79.09 291.518C79.3812 291.351 79.8208 291.333 80.0724 291.478L83.2097 293.278C83.4617 293.422 83.4304 293.675 83.1397 293.842L80.0313 295.625C79.7406 295.792 79.3 295.81 79.0484 295.666" fill="#000E4B"/>
<path fill-rule="evenodd" clip-rule="evenodd" d="M83.8922 298.445L80.7549 296.645C80.5028 296.501 80.535 296.248 80.8258 296.081L83.9342 294.298C84.2249 294.131 84.6646 294.113 84.9166 294.258L88.0534 296.057C88.3055 296.202 88.2742 296.454 87.9834 296.621L84.8746 298.404C84.5838 298.571 84.1442 298.59 83.8922 298.445" fill="#000E4B"/>
<path fill-rule="evenodd" clip-rule="evenodd" d="M88.7367 301.224L85.5994 299.424C85.3478 299.28 85.3796 299.028 85.6704 298.861L88.7787 297.078C89.0695 296.911 89.5091 296.892 89.7611 297.037L92.8984 298.837C93.15 298.981 93.1187 299.234 92.828 299.4L89.7191 301.184C89.4284 301.351 88.9887 301.369 88.7367 301.224" fill="#000E4B"/>
<path fill-rule="evenodd" clip-rule="evenodd" d="M93.5807 304.004L90.4434 302.204C90.1918 302.06 90.2231 301.807 90.5138 301.64L93.6227 299.857C93.9134 299.69 94.3531 299.672 94.6051 299.817L97.7424 301.616C97.994 301.761 97.9622 302.013 97.6715 302.18L94.5631 303.964C94.2723 304.131 93.8327 304.149 93.5807 304.004" fill="#000E4B"/>
<path fill-rule="evenodd" clip-rule="evenodd" d="M45.8304 288.159L42.6936 286.359C42.4415 286.214 42.4733 285.962 42.764 285.795L46.467 283.67C46.7577 283.504 47.1979 283.486 47.4494 283.63L50.5867 285.43C50.8387 285.575 50.8065 285.827 50.5158 285.994L46.8133 288.118C46.5225 288.285 46.0824 288.303 45.8304 288.159" fill="#000E4B"/>
<path fill-rule="evenodd" clip-rule="evenodd" d="M106.908 306.239L103.771 304.44C103.52 304.295 103.551 304.043 103.842 303.876L106.95 302.093C107.241 301.926 107.681 301.908 107.933 302.052L111.07 303.852C111.322 303.997 111.29 304.249 111 304.416L107.891 306.2C107.6 306.366 107.16 306.384 106.908 306.239" fill="#000E4B"/>
<path fill-rule="evenodd" clip-rule="evenodd" d="M111.753 309.019L108.617 307.219C108.365 307.075 108.396 306.822 108.687 306.655L111.795 304.872C112.086 304.705 112.526 304.687 112.778 304.831L115.915 306.631C116.167 306.776 116.135 307.029 115.844 307.195L112.736 308.979C112.445 309.146 112.005 309.164 111.753 309.019" fill="#000E4B"/>
<path fill-rule="evenodd" clip-rule="evenodd" d="M116.6 311.799L113.463 309.999C113.211 309.854 113.242 309.602 113.533 309.435L116.641 307.652C116.932 307.485 117.372 307.467 117.624 307.611L120.761 309.411C121.013 309.556 120.982 309.808 120.691 309.975L117.583 311.758C117.292 311.925 116.851 311.943 116.6 311.799" fill="#000E4B"/>
<path fill-rule="evenodd" clip-rule="evenodd" d="M121.443 314.578L118.306 312.778C118.054 312.634 118.086 312.382 118.377 312.215L121.485 310.431C121.776 310.264 122.216 310.246 122.468 310.391L125.605 312.191C125.857 312.335 125.825 312.588 125.535 312.754L122.426 314.538C122.135 314.704 121.695 314.723 121.443 314.578" fill="#000E4B"/>
<path fill-rule="evenodd" clip-rule="evenodd" d="M126.287 317.358L123.15 315.558C122.898 315.413 122.93 315.161 123.221 314.994L126.329 313.211C126.62 313.044 127.06 313.026 127.312 313.17L130.449 314.97C130.7 315.115 130.669 315.367 130.378 315.534L127.27 317.317C126.979 317.484 126.539 317.502 126.287 317.358" fill="#000E4B"/>
<path fill-rule="evenodd" clip-rule="evenodd" d="M80.1355 285.467L76.9982 283.668C76.7462 283.523 76.7779 283.27 77.0691 283.104L80.177 281.32C80.4678 281.153 80.9079 281.135 81.1595 281.28L84.2968 283.08C84.5488 283.224 84.5175 283.476 84.2263 283.644L81.1184 285.426C80.8276 285.593 80.3871 285.612 80.1355 285.467" fill="#000E4B"/>
<path fill-rule="evenodd" clip-rule="evenodd" d="M75.3148 282.702L72.1779 280.902C71.9259 280.757 71.9576 280.505 72.2484 280.338L75.3568 278.554C75.6475 278.388 76.0872 278.37 76.3392 278.514L79.4765 280.314C79.7285 280.459 79.6968 280.711 79.406 280.877L76.2977 282.661C76.0064 282.828 75.5668 282.846 75.3148 282.702" fill="#000E4B"/>
<path fill-rule="evenodd" clip-rule="evenodd" d="M70.4945 279.936L67.3572 278.136C67.1057 277.991 67.1374 277.739 67.4282 277.572L70.5365 275.789C70.8273 275.622 71.2669 275.604 71.519 275.748L74.6562 277.548C74.9078 277.693 74.8765 277.945 74.5858 278.112L71.477 279.896C71.1862 280.062 70.7465 280.08 70.4945 279.936" fill="#000E4B"/>
<path fill-rule="evenodd" clip-rule="evenodd" d="M65.6736 277.17L62.5363 275.37C62.2843 275.226 62.316 274.973 62.6068 274.806L65.7156 273.023C66.0064 272.856 66.446 272.838 66.6981 272.982L69.8349 274.782C70.0869 274.927 70.0552 275.18 69.7644 275.346L66.6561 277.129C66.3653 277.296 65.9252 277.314 65.6736 277.17" fill="#000E4B"/>
<path fill-rule="evenodd" clip-rule="evenodd" d="M70.6316 274.326L67.4948 272.526C67.2428 272.382 67.2745 272.13 67.5653 271.962L68.593 271.373C68.8838 271.206 69.3234 271.188 69.5755 271.332L72.7127 273.132C72.9643 273.277 72.933 273.529 72.6423 273.696L71.6141 274.285C71.3233 274.452 70.8837 274.47 70.6316 274.326" fill="#000E4B"/>
<path fill-rule="evenodd" clip-rule="evenodd" d="M76.9214 277.935L73.7851 276.135C73.533 275.991 73.5643 275.738 73.8551 275.571L74.8828 274.982C75.1736 274.815 75.6137 274.797 75.8657 274.942L79.0025 276.742C79.2541 276.886 79.2228 277.138 78.932 277.305L77.9043 277.895C77.6136 278.062 77.1734 278.08 76.9214 277.935" fill="#000E4B"/>
<path fill-rule="evenodd" clip-rule="evenodd" d="M81.7216 280.69L78.5843 278.89C78.3323 278.745 78.3636 278.493 78.6548 278.326L79.6821 277.736C79.9728 277.57 80.4129 277.551 80.665 277.696L83.8023 279.495C84.0543 279.64 84.0221 279.893 83.7313 280.059L82.7041 280.649C82.4133 280.816 81.9732 280.834 81.7216 280.69" fill="#000E4B"/>
<path fill-rule="evenodd" clip-rule="evenodd" d="M86.5227 283.444L83.3854 281.644C83.1334 281.499 83.1652 281.247 83.4559 281.08L84.4836 280.491C84.7744 280.324 85.2145 280.306 85.4661 280.45L88.6034 282.25C88.8554 282.394 88.8232 282.647 88.5324 282.814L87.5052 283.403C87.2144 283.57 86.7743 283.588 86.5227 283.444" fill="#000E4B"/>
<path fill-rule="evenodd" clip-rule="evenodd" d="M91.3226 286.198L88.1853 284.398C87.9338 284.253 87.9655 284.001 88.2563 283.834L89.2835 283.244C89.5748 283.078 90.0144 283.06 90.2665 283.204L93.4033 285.004C93.6553 285.148 93.624 285.401 93.3328 285.568L92.3051 286.157C92.0143 286.324 91.5747 286.342 91.3226 286.198" fill="#000E4B"/>
<path fill-rule="evenodd" clip-rule="evenodd" d="M118.123 301.574L114.986 299.774C114.734 299.63 114.766 299.378 115.057 299.21L116.084 298.621C116.375 298.454 116.815 298.436 117.067 298.58L120.204 300.38C120.456 300.525 120.424 300.777 120.133 300.944L119.106 301.533C118.815 301.7 118.375 301.718 118.123 301.574" fill="#000E4B"/>
<path fill-rule="evenodd" clip-rule="evenodd" d="M122.923 304.328L119.786 302.529C119.534 302.384 119.566 302.131 119.857 301.965L120.884 301.375C121.175 301.208 121.615 301.19 121.867 301.334L125.004 303.134C125.256 303.279 125.225 303.531 124.934 303.698L123.906 304.288C123.615 304.455 123.175 304.473 122.923 304.328" fill="#000E4B"/>
<path fill-rule="evenodd" clip-rule="evenodd" d="M127.722 307.082L124.585 305.282C124.333 305.138 124.365 304.886 124.656 304.719L125.683 304.129C125.974 303.962 126.414 303.944 126.666 304.089L129.803 305.888C130.055 306.033 130.023 306.285 129.733 306.452L128.705 307.042C128.414 307.208 127.974 307.226 127.722 307.082" fill="#000E4B"/>
<path fill-rule="evenodd" clip-rule="evenodd" d="M132.523 309.836L129.387 308.037C129.134 307.892 129.166 307.64 129.457 307.473L130.485 306.883C130.775 306.716 131.215 306.698 131.467 306.842L134.604 308.642C134.856 308.787 134.825 309.04 134.534 309.206L133.506 309.796C133.215 309.963 132.775 309.981 132.523 309.836" fill="#000E4B"/>
<path fill-rule="evenodd" clip-rule="evenodd" d="M84.9791 288.247L81.8418 286.447C81.5898 286.302 81.622 286.05 81.9127 285.883L85.0206 284.099C85.3118 283.933 85.7515 283.915 86.0035 284.059L89.1403 285.859C89.3924 286.004 89.3611 286.256 89.0703 286.423L85.962 288.206C85.6708 288.373 85.2306 288.391 84.9791 288.247" fill="#000E4B"/>
<path fill-rule="evenodd" clip-rule="evenodd" d="M89.8253 291.026L86.688 289.226C86.436 289.082 86.4682 288.829 86.7589 288.662L89.8673 286.879C90.158 286.712 90.5977 286.694 90.8497 286.839L93.987 288.638C94.2386 288.783 94.2073 289.036 93.9165 289.202L90.8077 290.986C90.5169 291.152 90.0773 291.171 89.8253 291.026" fill="#000E4B"/>
<path fill-rule="evenodd" clip-rule="evenodd" d="M94.669 293.806L91.5317 292.006C91.2802 291.862 91.3114 291.609 91.6022 291.442L94.711 289.659C95.0018 289.492 95.4414 289.474 95.6935 289.618L98.8308 291.418C99.0823 291.562 99.0506 291.815 98.7598 291.982L95.6515 293.765C95.3607 293.932 94.9211 293.95 94.669 293.806" fill="#000E4B"/>
<path fill-rule="evenodd" clip-rule="evenodd" d="M99.5128 296.585L96.3755 294.785C96.1239 294.641 96.1552 294.388 96.446 294.221L99.5548 292.438C99.8455 292.271 100.285 292.253 100.537 292.398L103.675 294.198C103.926 294.342 103.894 294.594 103.604 294.761L100.495 296.545C100.204 296.712 99.7648 296.73 99.5128 296.585" fill="#000E4B"/>
<path fill-rule="evenodd" clip-rule="evenodd" d="M104.358 299.365L101.222 297.565C100.97 297.42 101.001 297.168 101.292 297.001L104.4 295.218C104.691 295.051 105.131 295.033 105.383 295.177L108.52 296.977C108.772 297.122 108.74 297.374 108.449 297.541L105.341 299.324C105.05 299.491 104.61 299.509 104.358 299.365" fill="#000E4B"/>
<path fill-rule="evenodd" clip-rule="evenodd" d="M109.203 302.144L106.066 300.345C105.814 300.2 105.846 299.948 106.137 299.781L109.245 297.997C109.535 297.831 109.976 297.813 110.228 297.957L113.364 299.756C113.616 299.901 113.585 300.153 113.294 300.32L110.186 302.104C109.895 302.271 109.455 302.289 109.203 302.144" fill="#000E4B"/>
<path fill-rule="evenodd" clip-rule="evenodd" d="M114.048 304.924L110.911 303.124C110.659 302.979 110.691 302.727 110.982 302.56L114.09 300.777C114.381 300.61 114.821 300.592 115.073 300.736L118.209 302.536C118.461 302.681 118.43 302.933 118.139 303.1L115.031 304.883C114.74 305.05 114.3 305.068 114.048 304.924" fill="#000E4B"/>
<path fill-rule="evenodd" clip-rule="evenodd" d="M118.892 307.703L115.755 305.904C115.503 305.759 115.535 305.506 115.826 305.34L118.934 303.556C119.225 303.389 119.665 303.371 119.917 303.516L123.053 305.316C123.305 305.46 123.274 305.713 122.983 305.88L119.875 307.663C119.584 307.829 119.144 307.848 118.892 307.703" fill="#000E4B"/>
<path fill-rule="evenodd" clip-rule="evenodd" d="M123.737 310.483L120.599 308.683C120.348 308.539 120.38 308.286 120.67 308.119L123.779 306.336C124.069 306.169 124.509 306.151 124.761 306.296L127.898 308.095C128.15 308.24 128.119 308.492 127.828 308.659L124.72 310.442C124.428 310.609 123.989 310.627 123.737 310.483" fill="#000E4B"/>
<path fill-rule="evenodd" clip-rule="evenodd" d="M57.2828 288.59L48.0441 283.289C47.7921 283.145 47.8238 282.892 48.1146 282.725L51.223 280.942C51.5137 280.775 51.9534 280.757 52.2054 280.902L61.4446 286.202C61.6961 286.347 61.6649 286.599 61.3741 286.766L58.2658 288.549C57.975 288.716 57.5349 288.734 57.2828 288.59" fill="#000E4B"/>
<path fill-rule="evenodd" clip-rule="evenodd" d="M116.8 322.737L107.561 317.436C107.309 317.292 107.34 317.04 107.631 316.872L110.739 315.089C111.03 314.922 111.47 314.904 111.722 315.048L120.961 320.349C121.213 320.494 121.181 320.746 120.891 320.913L117.782 322.697C117.491 322.863 117.052 322.881 116.8 322.737" fill="#000E4B"/>
<path fill-rule="evenodd" clip-rule="evenodd" d="M97.4251 317.761L94.2883 315.961C94.0362 315.817 94.068 315.564 94.3588 315.397L98.0617 313.273C98.3525 313.106 98.7926 313.088 99.0446 313.233L102.181 315.032C102.433 315.177 102.402 315.429 102.111 315.596L98.408 317.72C98.1168 317.887 97.6771 317.906 97.4251 317.761" fill="#000E4B"/>
<path fill-rule="evenodd" clip-rule="evenodd" d="M62.2426 297.576L57.2258 294.698C56.9737 294.553 57.0055 294.3 57.2963 294.134L60.9992 292.009C61.29 291.843 61.7301 291.824 61.9821 291.969L66.9989 294.847C67.2509 294.992 67.2192 295.244 66.928 295.411L63.2255 297.535C62.9347 297.702 62.4946 297.72 62.2426 297.576" fill="#000E4B"/>
<path fill-rule="evenodd" clip-rule="evenodd" d="M92.7574 315.083L87.7406 312.204C87.4886 312.06 87.5199 311.807 87.8106 311.64L91.5136 309.516C91.8048 309.349 92.2445 309.331 92.4965 309.475L97.5137 312.354C97.7658 312.499 97.7336 312.751 97.4428 312.918L93.7403 315.042C93.4495 315.209 93.0094 315.227 92.7574 315.083" fill="#000E4B"/>
<path fill-rule="evenodd" clip-rule="evenodd" d="M69.234 301.586L64.2168 298.708C63.9652 298.563 63.9965 298.311 64.2873 298.144L67.9902 296.019C68.281 295.853 68.7211 295.834 68.9727 295.979L73.9899 298.858C74.2415 299.002 74.2102 299.255 73.9194 299.421L70.2165 301.545C69.9257 301.713 69.4856 301.731 69.234 301.586" fill="#000E4B"/>
<path fill-rule="evenodd" clip-rule="evenodd" d="M69.0068 295.998L90.8199 308.514C91.0902 308.668 91.0902 308.92 90.8199 309.076L87.0437 311.242C86.773 311.397 86.3338 311.397 86.0636 311.242L64.251 298.727L69.0068 295.998" fill="#000E4B"/>
<path fill-rule="evenodd" clip-rule="evenodd" d="M110.966 322.801L114.46 324.805C114.667 324.924 114.641 325.131 114.402 325.267L112.888 326.137C112.649 326.273 112.289 326.288 112.082 326.17L108.588 324.165C108.382 324.046 108.407 323.84 108.646 323.703L110.16 322.834C110.399 322.697 110.759 322.682 110.966 322.801" fill="#000E4B"/>
<path fill-rule="evenodd" clip-rule="evenodd" d="M106.08 319.998L109.574 322.003C109.781 322.121 109.755 322.328 109.517 322.465L108.002 323.334C107.763 323.471 107.403 323.486 107.196 323.367L103.702 321.362C103.495 321.244 103.522 321.037 103.76 320.9L105.275 320.031C105.513 319.894 105.874 319.879 106.08 319.998" fill="#000E4B"/>
<path fill-rule="evenodd" clip-rule="evenodd" d="M101.236 317.218L104.731 319.224C104.937 319.342 104.911 319.549 104.673 319.686L103.158 320.555C102.92 320.692 102.559 320.706 102.353 320.588L98.8579 318.583C98.6516 318.464 98.6778 318.258 98.9158 318.121L100.431 317.252C100.669 317.115 101.03 317.1 101.236 317.218" fill="#000E4B"/>
<path fill-rule="evenodd" clip-rule="evenodd" d="M108.756 318.463L112.251 320.468C112.457 320.586 112.431 320.793 112.193 320.93L110.678 321.799C110.44 321.935 110.079 321.951 109.873 321.832L106.378 319.827C106.172 319.709 106.198 319.502 106.436 319.365L107.951 318.496C108.189 318.359 108.55 318.345 108.756 318.463" fill="#000E4B"/>
<path fill-rule="evenodd" clip-rule="evenodd" d="M67.2481 323.53L45.6166 311.119C44.9875 310.757 45.0664 310.126 45.793 309.709L58.8472 302.22C59.5743 301.802 60.6739 301.757 61.304 302.119L82.935 314.53C83.5647 314.891 83.4858 315.522 82.7586 315.939L69.7049 323.428C68.9778 323.845 67.8782 323.891 67.2481 323.53" fill="#FFFFFE"/>
<mask id="mask0" mask-type="alpha" maskUnits="userSpaceOnUse" x="96" y="216" width="54" height="83">
<path fill-rule="evenodd" clip-rule="evenodd" d="M125.988 293.507L136.6 250.456L96.5034 226.838L119.647 216.239L149.418 227.647C149.418 227.647 149.598 279.778 149.418 280.303C149.237 280.827 138.39 298.318 138.39 298.318L125.988 293.507" fill="white"/>
</mask>
<g mask="url(#mask0)">
<path fill-rule="evenodd" clip-rule="evenodd" d="M112.982 234.292C112.899 234.174 112.774 234.064 112.608 233.968L107.468 231.02C107.133 230.828 106.697 230.733 106.259 230.733C105.876 230.733 105.492 230.806 105.176 230.951L104.318 231.441L104.008 231.259L105.132 230.614C105.468 230.421 105.91 230.325 106.351 230.325C106.792 230.325 107.234 230.421 107.569 230.614L112.71 233.563C112.942 233.696 113.092 233.859 113.163 234.029C113.288 233.734 113.174 233.411 112.819 233.166C113.283 233.487 113.338 233.94 112.982 234.292M112.816 233.164C112.815 233.163 112.814 233.162 112.813 233.162C112.814 233.162 112.815 233.163 112.816 233.164M112.807 233.158C112.807 233.158 112.807 233.157 112.806 233.157C112.806 233.157 112.807 233.158 112.807 233.158M112.801 233.153C112.801 233.153 112.801 233.153 112.801 233.153C112.801 233.153 112.801 233.153 112.801 233.153M112.719 233.102C112.719 233.102 112.719 233.102 112.718 233.102C112.719 233.102 112.719 233.102 112.719 233.102" fill="#2D4F80"/>
<path fill-rule="evenodd" clip-rule="evenodd" d="M113.782 237.015L112.95 236.526L114.194 235.813C115.04 235.327 115.404 234.669 115.289 234.034C115.302 233.964 115.309 233.895 115.311 233.825V236.138C115.305 236.142 115.299 236.144 115.294 236.148L113.782 237.015M112.55 236.29V236.29L114.194 235.347C114.196 235.345 114.199 235.344 114.202 235.342C114.199 235.344 114.196 235.345 114.194 235.347L112.55 236.29M114.203 235.341C114.205 235.34 114.208 235.338 114.21 235.337C114.208 235.338 114.206 235.34 114.203 235.341M114.211 235.337C114.213 235.335 114.216 235.333 114.219 235.332C114.216 235.333 114.213 235.335 114.211 235.337M114.219 235.332C114.24 235.32 114.259 235.308 114.279 235.296C114.259 235.308 114.24 235.32 114.219 235.332M114.279 235.296C114.287 235.291 114.295 235.286 114.303 235.281C114.295 235.286 114.287 235.291 114.279 235.296M114.305 235.28C114.308 235.279 114.31 235.277 114.312 235.276C114.31 235.277 114.308 235.279 114.305 235.28M114.315 235.273C114.317 235.273 114.318 235.272 114.319 235.272C114.318 235.272 114.317 235.273 114.315 235.273M114.323 235.268C114.324 235.268 114.324 235.267 114.325 235.267C114.324 235.267 114.324 235.268 114.323 235.268" fill="#4E6990"/>
<path fill-rule="evenodd" clip-rule="evenodd" d="M111.086 235.428L104.318 231.441L105.177 230.951C105.492 230.806 105.876 230.733 106.26 230.733C106.697 230.733 107.134 230.828 107.469 231.02L112.608 233.968C112.775 234.064 112.899 234.174 112.983 234.292C112.91 234.364 112.819 234.433 112.71 234.495L111.086 235.428" fill="#5B6F91"/>
<path fill-rule="evenodd" clip-rule="evenodd" d="M112.551 236.29L111.086 235.427L112.711 234.495C112.819 234.433 112.91 234.364 112.984 234.292C113.339 233.94 113.285 233.487 112.82 233.166C112.819 233.165 112.818 233.164 112.817 233.164C112.816 233.163 112.815 233.162 112.814 233.162C112.812 233.16 112.81 233.159 112.809 233.158C112.808 233.158 112.808 233.157 112.808 233.157C112.806 233.156 112.803 233.154 112.802 233.153C112.801 233.153 112.801 233.153 112.801 233.153C112.775 233.135 112.748 233.118 112.719 233.102C112.719 233.102 112.719 233.102 112.719 233.102C112.716 233.1 112.713 233.098 112.711 233.097L107.571 230.148C107.235 229.955 106.794 229.859 106.352 229.859C105.911 229.859 105.469 229.955 105.133 230.148L103.609 231.023L102.145 230.16L103.65 229.296C104.395 228.869 105.374 228.656 106.352 228.656C107.331 228.656 108.309 228.869 109.055 229.296L114.195 232.245C114.952 232.68 115.325 233.254 115.312 233.825C115.31 233.895 115.303 233.964 115.29 234.034C115.29 234.032 115.289 234.031 115.289 234.029C115.207 234.477 114.886 234.912 114.327 235.267C114.326 235.267 114.325 235.268 114.325 235.268C114.323 235.269 114.322 235.27 114.32 235.272C114.319 235.272 114.318 235.273 114.316 235.274C114.315 235.274 114.314 235.275 114.313 235.276C114.311 235.277 114.309 235.279 114.306 235.28C114.306 235.28 114.305 235.28 114.305 235.281C114.297 235.286 114.289 235.291 114.28 235.296C114.261 235.308 114.241 235.32 114.221 235.331C114.221 235.331 114.221 235.331 114.22 235.332C114.218 235.333 114.215 235.335 114.213 235.337C114.213 235.337 114.212 235.337 114.212 235.337C114.209 235.338 114.206 235.34 114.204 235.341C114.204 235.342 114.204 235.342 114.203 235.342C114.2 235.344 114.198 235.345 114.195 235.347L112.551 236.29" fill="#4E6990"/>
<path fill-rule="evenodd" clip-rule="evenodd" d="M113.163 234.029C113.091 233.858 112.941 233.696 112.709 233.563L107.568 230.614C107.233 230.421 106.791 230.325 106.35 230.325C105.909 230.325 105.467 230.421 105.131 230.614L104.007 231.259L103.606 231.023L105.131 230.148C105.467 229.955 105.909 229.859 106.35 229.859C106.791 229.859 107.233 229.955 107.568 230.148L112.709 233.097C112.711 233.098 112.714 233.1 112.716 233.102C112.717 233.102 112.717 233.102 112.717 233.102C112.746 233.118 112.773 233.135 112.799 233.153C112.799 233.153 112.799 233.153 112.799 233.153C112.801 233.154 112.804 233.156 112.805 233.157C112.806 233.157 112.806 233.158 112.806 233.158C112.808 233.159 112.81 233.16 112.812 233.162C112.813 233.162 112.814 233.163 112.815 233.164C112.816 233.164 112.817 233.165 112.818 233.166C113.173 233.411 113.287 233.734 113.163 234.029" fill="#5B6F91"/>
<path fill-rule="evenodd" clip-rule="evenodd" d="M112.951 236.526L112.551 236.29L114.195 235.347C114.197 235.345 114.2 235.344 114.203 235.342C114.203 235.342 114.203 235.342 114.204 235.341C114.207 235.34 114.209 235.338 114.211 235.337C114.212 235.337 114.212 235.337 114.212 235.337C114.215 235.335 114.218 235.333 114.22 235.332C114.221 235.332 114.221 235.332 114.221 235.332C114.241 235.32 114.26 235.308 114.28 235.296C114.288 235.291 114.297 235.286 114.305 235.281C114.305 235.281 114.306 235.28 114.306 235.28C114.308 235.279 114.31 235.277 114.313 235.276C114.314 235.275 114.315 235.274 114.316 235.274C114.317 235.273 114.318 235.272 114.32 235.272C114.322 235.27 114.323 235.269 114.325 235.268C114.325 235.268 114.326 235.268 114.327 235.267C114.886 234.912 115.206 234.477 115.289 234.029C115.289 234.031 115.29 234.032 115.29 234.034C115.405 234.669 115.041 235.327 114.195 235.813L112.951 236.526" fill="#5B6F91"/>
<path opacity="0.4" fill-rule="evenodd" clip-rule="evenodd" d="M124.628 241.143C124.544 241.026 124.419 240.915 124.253 240.82L119.113 237.87C118.779 237.679 118.342 237.584 117.905 237.584C117.521 237.584 117.137 237.657 116.821 237.803L115.956 238.297L115.646 238.114L116.777 237.465C117.113 237.272 117.555 237.176 117.996 237.176C118.438 237.176 118.879 237.272 119.215 237.465L124.355 240.414C124.587 240.547 124.737 240.709 124.809 240.881C124.941 240.565 124.803 240.22 124.391 239.97C124.922 240.293 125.001 240.773 124.628 241.143M124.388 239.969C124.386 239.967 124.384 239.966 124.382 239.964C124.384 239.966 124.386 239.967 124.388 239.969M124.379 239.963C124.378 239.962 124.377 239.962 124.376 239.961C124.377 239.962 124.378 239.962 124.379 239.963M124.371 239.958C124.37 239.958 124.369 239.957 124.368 239.957C124.369 239.957 124.37 239.958 124.371 239.958M124.362 239.953C124.362 239.953 124.361 239.952 124.36 239.952C124.361 239.952 124.362 239.953 124.362 239.953" fill="#A2DEFF"/>
<path opacity="0.4" fill-rule="evenodd" clip-rule="evenodd" d="M125.985 244.203L124.59 243.381L125.84 242.664C126.687 242.179 127.051 241.52 126.935 240.885C126.947 240.821 126.955 240.757 126.957 240.693V243.645L125.985 244.203M124.189 243.145V243.145L125.841 242.198C125.843 242.196 125.846 242.195 125.848 242.193C125.846 242.195 125.843 242.196 125.841 242.198L124.189 243.145M125.856 242.189C125.856 242.189 125.856 242.189 125.856 242.189H125.856" fill="#A2DEFF"/>
<path fill-rule="evenodd" clip-rule="evenodd" d="M122.722 242.283L115.955 238.297L116.82 237.803C117.136 237.657 117.52 237.584 117.904 237.584C118.341 237.584 118.778 237.679 119.112 237.87L124.251 240.82C124.418 240.915 124.543 241.026 124.626 241.143C124.553 241.216 124.462 241.284 124.353 241.347L122.722 242.283" fill="#5B6F91"/>
<path opacity="0.4" fill-rule="evenodd" clip-rule="evenodd" d="M124.187 243.145L122.723 242.283L124.354 241.347C124.463 241.284 124.554 241.216 124.627 241.143C125.001 240.773 124.921 240.293 124.39 239.97C124.39 239.969 124.389 239.969 124.389 239.969C124.386 239.967 124.385 239.966 124.382 239.964C124.381 239.964 124.38 239.964 124.379 239.963C124.378 239.962 124.377 239.962 124.376 239.961C124.375 239.96 124.373 239.959 124.372 239.958C124.371 239.958 124.37 239.957 124.369 239.957C124.367 239.956 124.365 239.954 124.363 239.953C124.363 239.953 124.362 239.952 124.361 239.952C124.359 239.951 124.357 239.95 124.354 239.948L119.214 236.999C118.878 236.806 118.437 236.71 117.996 236.71C117.554 236.71 117.113 236.806 116.777 236.999L115.245 237.878L113.781 237.016L115.293 236.148C115.299 236.145 115.304 236.142 115.31 236.139C116.053 235.717 117.024 235.507 117.996 235.507C118.974 235.507 119.953 235.721 120.698 236.148L125.838 239.097C126.603 239.536 126.975 240.116 126.955 240.693C126.953 240.757 126.945 240.821 126.933 240.885C126.933 240.884 126.932 240.882 126.932 240.881C126.844 241.359 126.485 241.822 125.853 242.189C125.853 242.189 125.853 242.189 125.852 242.189C125.85 242.191 125.848 242.192 125.845 242.193C125.843 242.195 125.84 242.196 125.838 242.198L124.187 243.145" fill="#A2DEFF"/>
<path fill-rule="evenodd" clip-rule="evenodd" d="M124.809 240.881C124.738 240.709 124.587 240.547 124.356 240.414L119.216 237.465C118.88 237.272 118.438 237.176 117.997 237.176C117.555 237.176 117.114 237.272 116.778 237.465L115.647 238.114L115.246 237.878L116.778 236.999C117.114 236.806 117.555 236.71 117.997 236.71C118.438 236.71 118.88 236.806 119.216 236.999L124.356 239.948C124.358 239.95 124.36 239.951 124.363 239.952C124.363 239.952 124.364 239.953 124.364 239.953C124.367 239.954 124.369 239.956 124.37 239.957C124.371 239.957 124.372 239.958 124.373 239.958C124.374 239.959 124.376 239.96 124.377 239.961C124.378 239.962 124.379 239.962 124.381 239.962C124.382 239.963 124.383 239.964 124.384 239.964C124.386 239.966 124.388 239.967 124.39 239.969C124.391 239.969 124.391 239.969 124.391 239.969C124.804 240.22 124.942 240.565 124.809 240.881" fill="#5B6F91"/>
<path fill-rule="evenodd" clip-rule="evenodd" d="M124.589 243.381L124.188 243.145L125.839 242.198C125.842 242.196 125.844 242.195 125.847 242.194C125.849 242.192 125.851 242.191 125.854 242.189H125.854C126.487 241.823 126.845 241.359 126.934 240.881C126.934 240.882 126.934 240.884 126.934 240.885C127.049 241.52 126.685 242.179 125.839 242.664L124.589 243.381" fill="#5B6F91"/>
<path opacity="0.3" fill-rule="evenodd" clip-rule="evenodd" d="M130.439 289.136L129.579 288.642L131.223 287.708L132.075 288.197L130.439 289.136M126.511 291.389L126.798 290.223L129.578 288.642L130.438 289.136L126.511 291.389M132.074 288.197L131.222 287.708L138.92 283.332V283.315C138.94 283.891 138.568 284.47 137.804 284.909L132.074 288.197" fill="#92B6E7"/>
<path fill-rule="evenodd" clip-rule="evenodd" d="M136.594 248.466C136.51 248.348 136.385 248.237 136.219 248.142L131.079 245.193C130.745 245.001 130.308 244.906 129.87 244.906C129.487 244.906 129.103 244.98 128.787 245.125L128.159 245.484L127.849 245.301L128.744 244.788C129.08 244.595 129.521 244.499 129.962 244.499C130.404 244.499 130.845 244.595 131.181 244.788L136.321 247.737C136.553 247.87 136.703 248.032 136.775 248.203C136.898 247.909 136.787 247.589 136.438 247.345C136.896 247.666 136.948 248.115 136.594 248.466M136.437 247.344C136.434 247.343 136.432 247.341 136.43 247.339C136.432 247.341 136.434 247.343 136.437 247.344M136.428 247.337C136.427 247.337 136.426 247.336 136.425 247.335C136.426 247.336 136.427 247.337 136.428 247.337M136.42 247.332C136.419 247.331 136.419 247.331 136.419 247.331C136.419 247.331 136.419 247.331 136.42 247.332M136.412 247.327C136.411 247.326 136.411 247.326 136.411 247.326C136.411 247.326 136.411 247.326 136.412 247.327M136.329 247.275C136.329 247.275 136.328 247.275 136.328 247.275C136.328 247.275 136.329 247.275 136.329 247.275" fill="#2D4F80"/>
<path opacity="0.05" fill-rule="evenodd" clip-rule="evenodd" d="M130.773 274.095L132.239 273.254V268.149L136.536 250.714L137.805 249.986C138.651 249.501 139.015 248.843 138.9 248.207C138.912 248.143 138.919 248.078 138.921 248.013V283.332L131.223 287.708L129.579 288.642L126.798 290.223L130.773 274.095ZM137.804 249.52C137.807 249.519 137.81 249.517 137.813 249.516C137.81 249.517 137.807 249.519 137.804 249.52L136.389 250.332L137.804 249.52ZM137.82 249.51C137.818 249.512 137.815 249.514 137.813 249.515C137.815 249.514 137.818 249.512 137.82 249.51ZM137.831 249.505C137.829 249.507 137.826 249.509 137.823 249.51C137.826 249.509 137.829 249.507 137.831 249.505ZM137.891 249.47C137.872 249.482 137.852 249.494 137.832 249.505C137.852 249.493 137.872 249.482 137.891 249.47ZM137.916 249.454C137.908 249.459 137.9 249.465 137.891 249.47C137.9 249.465 137.908 249.459 137.916 249.454ZM137.924 249.45C137.922 249.451 137.92 249.452 137.918 249.454C137.92 249.452 137.922 249.451 137.924 249.45ZM137.93 249.445C137.929 249.446 137.928 249.446 137.927 249.447C137.928 249.447 137.929 249.446 137.93 249.445ZM137.938 249.441C137.937 249.441 137.936 249.441 137.936 249.442C137.936 249.441 137.937 249.441 137.938 249.441Z" fill="white"/>
<path fill-rule="evenodd" clip-rule="evenodd" d="M128.158 245.484L128.786 245.125C129.102 244.979 129.486 244.906 129.87 244.906C130.307 244.906 130.744 245.001 131.078 245.193L136.218 248.142C136.385 248.237 136.51 248.348 136.593 248.465C136.519 248.538 136.428 248.606 136.32 248.669L134.924 249.469L128.158 245.484Z" fill="#5B6F91"/>
<path fill-rule="evenodd" clip-rule="evenodd" d="M136.389 250.332L134.924 249.47L136.32 248.669C136.429 248.606 136.52 248.538 136.593 248.465C136.947 248.115 136.895 247.665 136.437 247.344C136.434 247.343 136.432 247.341 136.429 247.339C136.429 247.338 136.428 247.338 136.426 247.337C136.426 247.337 136.425 247.336 136.424 247.335C136.422 247.334 136.42 247.333 136.418 247.331C136.418 247.331 136.417 247.331 136.417 247.331C136.415 247.33 136.413 247.328 136.411 247.327C136.411 247.326 136.411 247.326 136.41 247.326C136.385 247.309 136.357 247.292 136.329 247.275C136.329 247.275 136.328 247.275 136.328 247.275C136.326 247.273 136.323 247.272 136.321 247.271L131.18 244.322C130.845 244.129 130.403 244.032 129.962 244.032C129.521 244.032 129.079 244.129 128.743 244.322L127.447 245.065L125.982 244.203L126.955 243.645L127.259 243.47C128.004 243.043 128.983 242.829 129.962 242.829C130.94 242.829 131.919 243.043 132.664 243.47L137.804 246.419C138.568 246.858 138.941 247.437 138.921 248.013C138.918 248.078 138.911 248.143 138.899 248.207C138.899 248.206 138.899 248.204 138.898 248.203C138.816 248.65 138.496 249.086 137.937 249.441C137.936 249.441 137.935 249.441 137.935 249.442C137.933 249.443 137.931 249.444 137.93 249.445C137.928 249.446 137.927 249.447 137.926 249.447C137.925 249.448 137.923 249.449 137.923 249.45C137.92 249.451 137.918 249.452 137.916 249.454C137.916 249.454 137.915 249.454 137.915 249.454C137.907 249.459 137.898 249.464 137.89 249.47C137.87 249.482 137.851 249.493 137.831 249.505C137.83 249.505 137.83 249.505 137.83 249.505C137.828 249.507 137.825 249.509 137.822 249.51C137.822 249.51 137.822 249.51 137.821 249.51C137.819 249.512 137.816 249.514 137.814 249.515C137.813 249.515 137.813 249.515 137.813 249.515C137.81 249.517 137.807 249.519 137.804 249.52L136.389 250.332" fill="#4E6990"/>
<path fill-rule="evenodd" clip-rule="evenodd" d="M130.773 274.095L132.238 268.149V273.254L130.773 274.095" fill="#5B6F91"/>
<path fill-rule="evenodd" clip-rule="evenodd" d="M136.774 248.203C136.702 248.032 136.552 247.87 136.321 247.737L131.18 244.788C130.845 244.595 130.403 244.499 129.961 244.499C129.52 244.499 129.079 244.595 128.743 244.788L127.848 245.301L127.447 245.065L128.743 244.322C129.079 244.129 129.52 244.032 129.961 244.032C130.403 244.032 130.845 244.129 131.18 244.322L136.321 247.271C136.323 247.272 136.326 247.274 136.328 247.275C136.328 247.275 136.328 247.275 136.328 247.275C136.357 247.292 136.384 247.309 136.41 247.326C136.411 247.326 136.411 247.326 136.411 247.327C136.413 247.328 136.415 247.33 136.417 247.331C136.417 247.331 136.418 247.331 136.418 247.331C136.42 247.333 136.422 247.334 136.424 247.335C136.425 247.336 136.426 247.337 136.426 247.337C136.427 247.338 136.428 247.338 136.429 247.339C136.432 247.341 136.434 247.343 136.437 247.344C136.786 247.589 136.897 247.909 136.774 248.203" fill="#5B6F91"/>
<path fill-rule="evenodd" clip-rule="evenodd" d="M136.535 250.714L136.599 250.456L136.389 250.332L137.804 249.52C137.807 249.519 137.81 249.517 137.813 249.516C137.813 249.516 137.813 249.515 137.814 249.515C137.816 249.514 137.819 249.512 137.821 249.51C137.822 249.51 137.822 249.51 137.822 249.51C137.825 249.509 137.828 249.507 137.83 249.505C137.83 249.505 137.83 249.505 137.83 249.505C137.85 249.494 137.87 249.482 137.89 249.47C137.898 249.465 137.906 249.459 137.914 249.454C137.915 249.454 137.915 249.454 137.916 249.454C137.918 249.452 137.92 249.451 137.922 249.45C137.923 249.449 137.925 249.448 137.926 249.447C137.927 249.446 137.928 249.446 137.929 249.445C137.931 249.444 137.933 249.443 137.934 249.442C137.935 249.441 137.935 249.441 137.936 249.441C138.496 249.086 138.816 248.65 138.898 248.203C138.899 248.204 138.899 248.206 138.899 248.207C139.014 248.843 138.65 249.501 137.804 249.986L136.535 250.714" fill="#5B6F91"/>
</g>
<mask id="mask1" mask-type="alpha" maskUnits="userSpaceOnUse" x="47" y="226" width="92" height="86">
<path fill-rule="evenodd" clip-rule="evenodd" d="M125.989 293.507L136.6 250.456L96.5037 226.838L47.6162 244.906L85.133 293.556C85.133 293.556 116.108 311.097 115.928 311.622C115.747 312.147 138.39 298.318 138.39 298.318L125.989 293.507" fill="white"/>
</mask>
<g mask="url(#mask1)">
<path fill-rule="evenodd" clip-rule="evenodd" d="M114.194 267.634C115.684 268.49 115.684 269.881 114.194 270.736L88.8644 285.268C88.4546 285.503 87.7905 285.503 87.3807 285.268C86.9714 285.033 86.9714 284.652 87.3807 284.417L112.711 269.884C113.383 269.499 113.383 268.871 112.711 268.485L110.256 267.077C110.529 266.67 110.776 266.245 111.018 265.812L114.194 267.634" fill="#92B6E7"/>
<path fill-rule="evenodd" clip-rule="evenodd" d="M78.3205 279.218L103.65 264.686C105.14 263.831 107.565 263.83 109.055 264.686L111.019 265.812C110.777 266.245 110.529 266.67 110.256 267.077L107.571 265.537C106.899 265.151 105.806 265.151 105.134 265.537L79.8038 280.069C79.394 280.305 78.7303 280.305 78.3205 280.069C77.9107 279.835 77.9107 279.454 78.3205 279.218" fill="#92B6E7"/>
<path fill-rule="evenodd" clip-rule="evenodd" d="M78.0155 279.674L78.0132 244.279L104.557 229.574L108.27 229.331L111.859 231.642L114.062 233.547L88.1998 274.303L79.7559 279.248L78.0155 279.674" fill="#92B6E7"/>
<path fill-rule="evenodd" clip-rule="evenodd" d="M87.8317 284.144L79.8975 279.592V245.385L88.0767 249.163L87.8317 284.144" fill="#76A9CF"/>
<path fill-rule="evenodd" clip-rule="evenodd" d="M115.311 233.821V269.158L87.4452 284.997L87.0737 284.849V249.46L115.311 233.821" fill="#D4EAF2"/>
<path fill-rule="evenodd" clip-rule="evenodd" d="M99.6388 234.114L105.177 230.951C105.853 230.64 106.842 230.66 107.469 231.02L112.608 233.968C113.007 234.197 113.167 234.51 113.093 234.808L99.0992 243.118L87.8588 249.974L79.8975 245.385L99.6388 234.114" fill="#FFFFFE"/>
<path fill-rule="evenodd" clip-rule="evenodd" d="M88.0767 248.905V285.442C87.8238 285.436 87.5741 285.379 87.3808 285.268C87.1792 285.153 87.0779 285.001 87.0747 284.85L87.0737 284.849V249.46L88.0767 248.905" fill="#92B6E7"/>
<path fill-rule="evenodd" clip-rule="evenodd" d="M78.0132 244.721V244.279H78.1546L78.198 244.579L78.0132 244.721" fill="#FFFFFE"/>
<path fill-rule="evenodd" clip-rule="evenodd" d="M87.0747 249.919V249.467L87.2115 249.658L87.0747 249.919" fill="#FFFFFE"/>
<path fill-rule="evenodd" clip-rule="evenodd" d="M88.8651 249.879L114.195 235.347C115.685 234.492 115.685 233.101 114.195 232.245L109.055 229.296C107.565 228.442 105.14 228.442 103.65 229.296L78.3205 243.829C77.9107 244.064 77.9107 244.446 78.3205 244.681C78.7303 244.916 79.394 244.916 79.8038 244.681L105.134 230.148C105.806 229.762 106.899 229.762 107.571 230.148L112.711 233.097C113.383 233.482 113.383 234.11 112.711 234.495L87.3814 249.028C86.9721 249.263 86.9721 249.644 87.3814 249.88C87.7912 250.114 88.4553 250.114 88.8651 249.879" fill="#D4EAF2"/>
<path fill-rule="evenodd" clip-rule="evenodd" d="M95.4653 266.633L108.628 259.081V245.968L95.4653 253.52V266.633" fill="#FFFFFE"/>
<path fill-rule="evenodd" clip-rule="evenodd" d="M78.3198 244.681C78.7296 244.916 79.3933 244.916 79.8031 244.681L105.133 230.148C105.805 229.762 106.898 229.762 107.57 230.148L112.711 233.097C113.151 233.349 113.3 233.705 113.164 234.029C113.092 233.858 112.943 233.696 112.711 233.563L107.57 230.614C106.898 230.229 105.805 230.229 105.133 230.614L79.8031 245.147C79.3933 245.382 78.7296 245.382 78.3198 245.147C78.0095 244.969 77.9348 244.707 78.0954 244.488C78.1467 244.558 78.2204 244.624 78.3198 244.681" fill="#FFFFFE"/>
<path fill-rule="evenodd" clip-rule="evenodd" d="M87.3802 249.88C87.79 250.114 88.4541 250.114 88.8639 249.879L114.194 235.347C114.835 234.979 115.199 234.511 115.288 234.029C115.406 234.666 115.042 235.326 114.194 235.813L88.8639 250.346C88.4541 250.581 87.79 250.581 87.3802 250.346C87.0698 250.168 86.9956 249.906 87.1557 249.687C87.207 249.757 87.2812 249.823 87.3802 249.88" fill="#FFFFFE"/>
<path fill-rule="evenodd" clip-rule="evenodd" d="M125.839 274.486C127.328 275.341 127.328 276.732 125.839 277.587L100.509 292.12C100.099 292.355 99.4349 292.355 99.0251 292.12C98.6153 291.884 98.6153 291.503 99.0251 291.268L124.354 276.736C125.027 276.35 125.027 275.723 124.355 275.337L121.9 273.929C122.173 273.522 122.421 273.097 122.663 272.664L125.839 274.486" fill="#0288D1"/>
<path fill-rule="evenodd" clip-rule="evenodd" d="M89.9636 286.07L115.293 271.537C116.784 270.682 119.208 270.682 120.698 271.537L122.662 272.664C122.42 273.097 122.172 273.521 121.9 273.929L119.214 272.388C118.542 272.002 117.449 272.002 116.777 272.388L91.4468 286.921C91.0375 287.156 90.3734 287.156 89.9636 286.921C89.5538 286.686 89.5538 286.304 89.9636 286.07" fill="#0288D1"/>
<path fill-rule="evenodd" clip-rule="evenodd" d="M89.6591 286.525L89.6572 251.13L116.201 236.426L119.913 236.182L123.503 238.493L125.706 240.398L99.8434 281.154L91.3995 286.099L89.6591 286.525" fill="#0288D1"/>
<path fill-rule="evenodd" clip-rule="evenodd" d="M99.4777 290.995L91.5435 286.444V252.236L99.7223 256.014L99.4777 290.995" fill="#A2DEFF"/>
<path fill-rule="evenodd" clip-rule="evenodd" d="M126.956 240.672V276.009L99.0903 291.849L98.7188 291.701V256.312L126.956 240.672" fill="#A2DEFF"/>
<path fill-rule="evenodd" clip-rule="evenodd" d="M111.284 240.964L116.822 237.803C117.499 237.491 118.487 237.511 119.114 237.87L124.254 240.82C124.652 241.048 124.813 241.361 124.739 241.659L110.745 249.969L99.5043 256.826L91.5435 252.236L111.284 240.964" fill="#FFFFFE"/>
<path fill-rule="evenodd" clip-rule="evenodd" d="M99.7213 255.756V292.293C99.4683 292.287 99.2186 292.23 99.0254 292.12C98.8238 292.004 98.7225 291.853 98.7197 291.702L98.7188 291.701V256.312L99.7213 255.756" fill="#0288D1"/>
<path fill-rule="evenodd" clip-rule="evenodd" d="M89.6572 251.572V251.13H89.7982L89.8416 251.43L89.6572 251.572" fill="#FFFFFE"/>
<path fill-rule="evenodd" clip-rule="evenodd" d="M98.7188 256.77V256.318L98.8555 256.51L98.7188 256.77" fill="#FFFFFE"/>
<path fill-rule="evenodd" clip-rule="evenodd" d="M100.509 256.73L125.838 242.198C127.328 241.343 127.328 239.952 125.838 239.097L120.698 236.148C119.208 235.293 116.784 235.293 115.293 236.148L89.9636 250.681C89.5538 250.916 89.5538 251.297 89.9636 251.532C90.3734 251.767 91.0375 251.767 91.4468 251.532L116.777 236.999C117.449 236.613 118.542 236.613 119.214 236.999L124.354 239.948C125.026 240.334 125.026 240.961 124.354 241.347L99.0245 255.879C98.6152 256.115 98.6147 256.496 99.0245 256.73C99.4343 256.966 100.099 256.966 100.509 256.73" fill="#A2DEFF"/>
<path fill-rule="evenodd" clip-rule="evenodd" d="M107.109 273.484L120.272 265.932V252.82L107.109 260.371V273.484" fill="#FFFFFE"/>
<path fill-rule="evenodd" clip-rule="evenodd" d="M89.9637 251.532C90.3735 251.767 91.0376 251.767 91.4469 251.532L116.777 236.999C117.449 236.613 118.542 236.613 119.214 236.999L124.354 239.948C124.794 240.201 124.944 240.556 124.808 240.881C124.737 240.709 124.586 240.547 124.354 240.414L119.214 237.465C118.542 237.08 117.449 237.08 116.777 237.465L91.4469 251.998C91.0376 252.233 90.3735 252.233 89.9637 251.998C89.6533 251.82 89.5791 251.558 89.7392 251.339C89.7905 251.409 89.8643 251.475 89.9637 251.532" fill="#FFFFFE"/>
<path fill-rule="evenodd" clip-rule="evenodd" d="M99.025 256.731C99.4348 256.966 100.099 256.966 100.509 256.731L125.839 242.198C126.48 241.829 126.844 241.362 126.933 240.881C127.051 241.517 126.687 242.177 125.839 242.664L100.509 257.197C100.099 257.432 99.4348 257.432 99.025 257.197C98.7146 257.019 98.6409 256.757 98.8005 256.538C98.8518 256.608 98.9261 256.673 99.025 256.731" fill="#FFFFFE"/>
<path fill-rule="evenodd" clip-rule="evenodd" d="M137.806 281.808C139.296 282.663 139.296 284.054 137.806 284.909L112.476 299.442C112.066 299.677 111.402 299.677 110.992 299.442C110.583 299.206 110.583 298.826 110.992 298.59L136.322 284.058C136.994 283.672 136.994 283.045 136.322 282.659L133.867 281.251C134.14 280.844 134.388 280.419 134.63 279.986L137.806 281.808" fill="#92B6E7"/>
<path fill-rule="evenodd" clip-rule="evenodd" d="M101.93 293.392L127.259 278.859C128.749 278.005 131.174 278.004 132.664 278.859L134.628 279.986C134.386 280.419 134.139 280.844 133.866 281.251L131.18 279.71C130.509 279.325 129.415 279.325 128.743 279.71L103.413 294.243C103.003 294.478 102.339 294.478 101.93 294.243C101.52 294.008 101.52 293.627 101.93 293.392" fill="#92B6E7"/>
<path fill-rule="evenodd" clip-rule="evenodd" d="M101.625 293.848L101.623 258.453L128.167 243.748L131.879 243.505L135.469 245.815L137.672 247.721L111.809 288.476L103.365 293.422L101.625 293.848" fill="#92B6E7"/>
<path fill-rule="evenodd" clip-rule="evenodd" d="M111.443 298.318L103.509 293.766V259.558L111.688 263.337L111.443 298.318" fill="#76A9CF"/>
<path fill-rule="evenodd" clip-rule="evenodd" d="M138.922 247.994V283.332L111.057 299.171L110.685 299.023V263.634L138.922 247.994" fill="#D7E8FE"/>
<path fill-rule="evenodd" clip-rule="evenodd" d="M123.25 248.287L128.788 245.125C129.464 244.813 130.453 244.833 131.08 245.193L136.22 248.142C136.618 248.37 136.778 248.684 136.705 248.981L122.711 257.291L111.47 264.148L103.509 259.558L123.25 248.287" fill="#FFFFFE"/>
<path fill-rule="evenodd" clip-rule="evenodd" d="M111.688 263.078V299.615C111.435 299.609 111.185 299.553 110.992 299.442C110.791 299.326 110.689 299.175 110.686 299.024L110.685 299.023V263.634L111.688 263.078" fill="#92B6E7"/>
<path fill-rule="evenodd" clip-rule="evenodd" d="M101.623 258.894V258.453H101.764L101.807 258.753L101.623 258.894" fill="#FFFFFE"/>
<path fill-rule="evenodd" clip-rule="evenodd" d="M110.685 264.092V263.64L110.822 263.832L110.685 264.092" fill="#FFFFFE"/>
<path fill-rule="evenodd" clip-rule="evenodd" d="M112.474 264.053L137.804 249.521C139.294 248.665 139.294 247.274 137.804 246.419L132.664 243.47C131.174 242.616 128.749 242.616 127.259 243.47L101.93 258.003C101.52 258.238 101.52 258.619 101.93 258.855C102.339 259.089 103.003 259.089 103.413 258.854L128.743 244.322C129.415 243.936 130.509 243.936 131.18 244.322L136.321 247.271C136.992 247.656 136.992 248.284 136.32 248.669L110.991 263.202C110.581 263.437 110.581 263.818 110.991 264.053C111.4 264.288 112.065 264.288 112.474 264.053" fill="#D4EAF2"/>
<path fill-rule="evenodd" clip-rule="evenodd" d="M119.077 280.806L132.24 273.254V260.142L119.077 267.694V280.806" fill="#FFFFFE"/>
<path fill-rule="evenodd" clip-rule="evenodd" d="M101.931 258.854C102.341 259.089 103.005 259.089 103.415 258.854L128.745 244.322C129.417 243.936 130.511 243.936 131.182 244.322L136.323 247.271C136.762 247.523 136.913 247.879 136.776 248.203C136.704 248.032 136.555 247.87 136.323 247.737L131.182 244.788C130.511 244.402 129.417 244.402 128.745 244.788L103.415 259.32C103.005 259.555 102.341 259.555 101.931 259.32C101.621 259.142 101.547 258.88 101.707 258.661C101.758 258.732 101.833 258.797 101.931 258.854" fill="#FFFFFE"/>
<path fill-rule="evenodd" clip-rule="evenodd" d="M110.992 264.053C111.401 264.288 112.066 264.288 112.475 264.053L137.805 249.521C138.447 249.152 138.81 248.684 138.899 248.203C139.017 248.839 138.653 249.5 137.805 249.986L112.475 264.519C112.066 264.754 111.401 264.754 110.992 264.519C110.681 264.341 110.607 264.079 110.767 263.86C110.818 263.931 110.893 263.996 110.992 264.053" fill="#FFFFFE"/>
</g>
<path opacity="0.05" fill-rule="evenodd" clip-rule="evenodd" d="M100.019 368.001C99.3631 368.001 98.7064 367.858 98.2056 367.57C97.2036 366.996 97.2036 366.064 98.2056 365.489L144.99 338.637C145.491 338.349 146.147 338.206 146.803 338.206C147.46 338.206 148.116 338.349 148.617 338.637C149.619 339.211 149.619 340.143 148.617 340.717L101.833 367.571C101.332 367.858 100.676 368.001 100.019 368.001" fill="#000E4B"/>
<path fill-rule="evenodd" clip-rule="evenodd" d="M156.615 324.091V324.091C156.57 324.015 156.481 323.976 156.395 323.995L153.565 324.605L154.679 326.489L156.593 324.328C156.651 324.262 156.66 324.166 156.615 324.091" fill="#D4EAF2"/>
<path fill-rule="evenodd" clip-rule="evenodd" d="M155.497 325.48C155.494 325.075 155.204 324.583 154.848 324.384C154.684 324.291 154.536 324.28 154.424 324.332C151.154 324.305 147.937 325.16 145.118 326.807L144.913 326.927L148.428 332.87L149.466 332.186C151.663 330.738 153.515 328.83 154.892 326.596L155.336 325.875C155.437 325.802 155.499 325.668 155.497 325.48" fill="#199BE2"/>
<path fill-rule="evenodd" clip-rule="evenodd" d="M149.135 331.286C149.123 329.732 148.01 327.851 146.649 327.084C145.289 326.318 144.196 326.956 144.208 328.51C144.22 330.065 145.333 331.946 146.694 332.712C148.054 333.479 149.147 332.84 149.135 331.286" fill="#D7E8FE"/>
<path fill-rule="evenodd" clip-rule="evenodd" d="M127.566 345.786L148.429 332.87L144.914 326.927L123.413 338.764L127.566 345.786" fill="#D7E8FE"/>
<path fill-rule="evenodd" clip-rule="evenodd" d="M128.4 343.915C128.386 342.078 127.071 339.855 125.463 338.95C123.855 338.044 122.564 338.798 122.578 340.635C122.593 342.471 123.907 344.694 125.515 345.6C127.123 346.506 128.415 345.751 128.4 343.915" fill="#D4EAF2"/>
<path fill-rule="evenodd" clip-rule="evenodd" d="M127.21 344.61C127.196 342.774 125.881 340.551 124.273 339.645C122.665 338.739 121.374 339.493 121.388 341.33C121.403 343.166 122.718 345.39 124.325 346.295C125.933 347.201 127.225 346.447 127.21 344.61" fill="#D4EAF2"/>
<path fill-rule="evenodd" clip-rule="evenodd" d="M98.7754 362.603L126.376 346.481L122.222 339.459L94.6216 355.581L98.7754 362.603" fill="#D7E8FE"/>
<path fill-rule="evenodd" clip-rule="evenodd" d="M99.6101 360.733C99.5961 358.896 98.2808 356.673 96.673 355.767C95.0652 354.861 93.7737 355.616 93.7882 357.452C93.8022 359.288 95.1179 361.511 96.7253 362.418C98.3327 363.324 99.6245 362.569 99.6101 360.733" fill="#D4EAF2"/>
<path fill-rule="evenodd" clip-rule="evenodd" d="M98.7411 360.281C98.6781 359.197 97.7895 357.847 96.7571 357.265C95.7247 356.684 94.9397 357.091 95.0036 358.175C95.0667 359.259 95.9553 360.609 96.9877 361.191C98.0196 361.772 98.8051 361.365 98.7411 360.281" fill="#199BE2"/>
<path fill-rule="evenodd" clip-rule="evenodd" d="M128.609 343.792C128.595 341.956 127.28 339.733 125.673 338.827C125.025 338.462 124.43 338.371 123.951 338.507C124.472 337.965 125.328 337.901 126.302 338.45C127.91 339.356 129.226 341.579 129.24 343.415C129.248 344.512 128.789 345.218 128.077 345.42C128.416 345.068 128.615 344.516 128.609 343.792" fill="#FFFFFE"/>
<path fill-rule="evenodd" clip-rule="evenodd" d="M128.611 343.792C128.596 341.956 127.282 339.733 125.674 338.827C124.87 338.374 124.145 338.336 123.623 338.641L122.059 339.555L122.804 340.814C122.941 342.485 124.066 344.387 125.468 345.317L126.213 346.576L127.777 345.663C128.299 345.358 128.618 344.711 128.611 343.792" fill="#199BE2"/>
<path fill-rule="evenodd" clip-rule="evenodd" d="M127.047 344.706C127.032 342.869 125.717 340.646 124.109 339.74C122.502 338.835 121.21 339.589 121.224 341.425C121.239 343.262 122.554 345.485 124.161 346.391C125.769 347.297 127.061 346.542 127.047 344.706" fill="#D7E8FE"/>
<path fill-rule="evenodd" clip-rule="evenodd" d="M97.2682 360.96L95.476 357.931L89.6262 361.348C88.7838 361.84 88.5028 362.917 88.9975 363.753C89.4927 364.59 90.576 364.87 91.4179 364.378L97.2682 360.96" fill="#A2DEFF"/>
<path fill-rule="evenodd" clip-rule="evenodd" d="M97.6282 360.153C97.6221 359.361 97.0546 358.401 96.361 358.011C95.667 357.62 95.1102 357.946 95.1163 358.738C95.1228 359.53 95.6899 360.49 96.3839 360.88C97.077 361.271 97.6342 360.946 97.6282 360.153" fill="#A2DEFF"/>
<path fill-rule="evenodd" clip-rule="evenodd" d="M104.13 349.459L103.253 348.965C102.749 348.68 102.083 348.752 101.377 349.164L98.3701 350.92C97.8031 351.251 97.3452 352.053 97.3503 352.707L97.362 354.203C97.3639 354.454 97.2407 354.742 97.0596 354.954L97.1721 355.647L96.423 355.22L96.4248 355.219C96.3161 355.164 96.247 355.039 96.2456 354.855L96.2335 353.36C96.2232 351.996 97.1772 350.324 98.3603 349.632L101.366 347.877C102.371 347.29 103.319 347.19 104.036 347.593L104.913 348.088C105.417 348.371 106.083 348.3 106.79 347.888L118.907 340.81C119.064 340.718 119.205 340.71 119.308 340.771V340.77L120.055 341.195L119.415 341.44C119.327 341.707 119.139 341.968 118.917 342.097L106.8 349.175C105.795 349.762 104.847 349.863 104.13 349.459" fill="#199BE2"/>
<path fill-rule="evenodd" clip-rule="evenodd" d="M104.012 349.396C103.508 349.113 102.842 349.183 102.136 349.596L99.1289 351.352C98.5618 351.683 98.104 352.485 98.1091 353.139L98.1208 354.635C98.1236 354.99 97.8762 355.424 97.5677 355.604C97.2597 355.784 97.0072 355.642 97.0044 355.287L96.9923 353.791C96.982 352.427 97.936 350.756 99.1191 350.065L102.125 348.309C103.13 347.722 104.078 347.621 104.794 348.025L105.671 348.519C106.175 348.803 106.842 348.732 107.549 348.319L119.666 341.241C119.975 341.061 120.227 341.203 120.229 341.559C120.232 341.914 119.985 342.348 119.676 342.528L107.558 349.607C106.554 350.194 105.606 350.294 104.889 349.891L104.012 349.396" fill="#199BE2"/>
<path fill-rule="evenodd" clip-rule="evenodd" d="M98.0714 353.386L98.0826 354.881L98.0779 354.912C98.1059 354.818 98.1213 354.724 98.1204 354.634L98.1087 353.139C98.1087 353.097 98.1152 353.052 98.1185 353.009C98.09 353.137 98.07 353.264 98.0714 353.386" fill="#FFFFFE"/>
<path opacity="0.2" fill-rule="evenodd" clip-rule="evenodd" d="M87.57 329.492C85.1352 329.492 82.7003 328.958 80.8427 327.893C77.1267 325.76 77.1267 322.304 80.8423 320.173C82.6998 319.107 85.1347 318.574 87.5696 318.574C90.0049 318.574 92.4398 319.107 94.2978 320.173C98.0138 322.304 98.0138 325.76 94.2983 327.893C92.4403 328.958 90.0054 329.492 87.57 329.492" fill="#000E4B"/>
<path fill-rule="evenodd" clip-rule="evenodd" d="M98.3959 319.364V316.344H97.8223C97.3066 315.462 96.4487 314.632 95.225 313.93C90.9984 311.505 84.1446 311.505 79.9171 313.93C78.6933 314.632 77.8355 315.462 77.3207 316.344H76.7476V319.347H76.748C76.741 320.942 77.7963 322.538 79.9175 323.755C84.1446 326.181 90.9984 326.181 95.2255 323.755C97.3392 322.543 98.3959 320.953 98.3959 319.364" fill="#0288D1"/>
<path fill-rule="evenodd" clip-rule="evenodd" d="M95.2251 320.735C90.998 323.161 84.1443 323.161 79.9167 320.735C75.6901 318.31 75.6896 314.378 79.9167 311.952C84.1438 309.527 90.998 309.527 95.2246 311.953C99.4522 314.378 99.4522 318.31 95.2251 320.735" fill="#A2DEFF"/>
<path fill-rule="evenodd" clip-rule="evenodd" d="M95.2244 320.735C90.9973 323.16 84.1435 323.16 79.9165 320.735C77.8909 319.573 76.8464 318.064 76.7624 316.541C76.6709 318.196 77.7154 319.867 79.9165 321.13C84.1435 323.556 90.9973 323.556 95.2244 321.13C97.4259 319.867 98.4695 318.196 98.3785 316.541C98.294 318.064 97.2504 319.573 95.2244 320.735" fill="#FFFFFE"/>
<path fill-rule="evenodd" clip-rule="evenodd" d="M82.3545 318.4C82.172 318.296 82.0689 318.153 82.0693 318.004L82.0801 313.957C82.0805 313.649 82.5179 313.399 83.0555 313.399C83.5941 313.399 84.0286 313.65 84.0282 313.959L84.0193 317.314L93.8181 316.122C94.345 316.058 94.8617 316.251 94.9732 316.553C95.0852 316.855 94.7487 317.152 94.2227 317.216L83.2455 318.551C82.9575 318.586 82.6579 318.545 82.4292 318.438L82.3545 318.4" fill="#FFFFFE"/>
<path opacity="0.05" fill-rule="evenodd" clip-rule="evenodd" d="M31.628 284.986L23.5859 280.372L31.628 275.758L39.67 280.372L31.628 284.986" fill="#000E4B"/>
<path fill-rule="evenodd" clip-rule="evenodd" d="M39.669 274.514L31.6274 279.128V269.9L39.669 265.286V274.514" fill="#0288D1"/>
<path fill-rule="evenodd" clip-rule="evenodd" d="M31.628 269.9L23.5859 265.286L31.6275 260.672L39.6696 265.287L31.628 269.9" fill="#A2DEFF"/>
<path fill-rule="evenodd" clip-rule="evenodd" d="M31.628 279.128L23.5859 274.514V265.286L31.628 269.9V279.128" fill="#0288D1"/>
<path fill-rule="evenodd" clip-rule="evenodd" d="M28.733 274.143L26.4834 272.852V270.272L28.733 271.562V274.143" fill="#FFFFFE"/>
<path fill-rule="evenodd" clip-rule="evenodd" d="M34.4075 336.219L42.7399 331.308C43.4418 330.817 43.9926 329.827 43.9935 328.998L43.9991 328.348C43.9996 327.822 43.7783 327.482 43.4372 327.384L27.0348 336.452L13.6772 343.631L13.6894 348.021L34.4075 336.219" fill="#FFFFFE"/>
<path fill-rule="evenodd" clip-rule="evenodd" d="M13.2666 350.272L13.7095 350.526L13.7912 350.386L13.5154 350.171L13.2666 350.272" fill="#FFFFFE"/>
<path fill-rule="evenodd" clip-rule="evenodd" d="M13.2788 344.44L13.7325 344.7L13.619 344.455L13.2788 344.44" fill="#FFFFFE"/>
<path fill-rule="evenodd" clip-rule="evenodd" d="M0 326.159L16.0995 316.94L30.0623 324.968L13.9629 334.186L0 326.159" fill="#FFFFFE"/>
<path opacity="0.05" d="M80 0H150V408H80V0Z" fill="#199BE2"/>
<g opacity="0.3" clip-path="url(#clip0)">
<path opacity="0.3" fill-rule="evenodd" clip-rule="evenodd" d="M82.9735 38.6316L85.5637 46.6042H93.9471L87.1652 51.5316L89.7554 59.5051L82.9735 54.5777L76.1917 59.5051L78.7818 51.5316L72 46.6042H80.3834L82.9735 38.6316Z" stroke="#222222" stroke-width="2" stroke-linecap="round" stroke-linejoin="round"/>
<g opacity="0.3">
<path d="M146.974 128.197C147.994 128.197 148.82 127.371 148.82 126.351C148.82 125.332 147.994 124.505 146.974 124.505C145.954 124.505 145.128 125.332 145.128 126.351C145.128 127.371 145.954 128.197 146.974 128.197Z" fill="#222222"/>
<path d="M141.436 128.197C142.455 128.197 143.282 127.371 143.282 126.351C143.282 125.332 142.455 124.505 141.436 124.505C140.416 124.505 139.589 125.332 139.589 126.351C139.589 127.371 140.416 128.197 141.436 128.197Z" fill="#222222"/>
<path d="M135.897 128.197C136.917 128.197 137.743 127.371 137.743 126.351C137.743 125.332 136.917 124.505 135.897 124.505C134.877 124.505 134.051 125.332 134.051 126.351C134.051 127.371 134.877 128.197 135.897 128.197Z" fill="#222222"/>
</g>
<rect opacity="0.3" x="105.128" y="193.197" width="14.7692" height="14.7692" rx="7.38461" stroke="#222222" stroke-width="2"/>
</g>
<defs>
<clipPath id="clip0">
<rect width="70" height="193.916" fill="white" transform="translate(80 38.6316)"/>
</clipPath>
</defs>
</svg>
